<svg xmlns="http://www.w3.org/2000/svg" viewBox="0 0 16 16">
  <g fill="none" fill-rule="evenodd" transform="translate(-1 1)">
    <path fill="#EFCCA3" d="M4.21744047,3.30719108 C5.04969419,2.03267058 5.59087173,1.3265689 5.84097308,1.18888603 C6.2161251,0.982361732 6.77885447,1.01702693 8.87868007,1.00063255 C10.2785638,0.989702956 11.341118,1.0075724 12.0663426,1.05424088 C13.6313136,2.48476304 14.5159731,3.93579283 14.7203211,5.40733024 C14.9246692,6.87886764 15.0107014,7.77002968 14.9784177,8.08081635 C14.8811338,8.82737331 14.7379127,9.29122135 14.5487545,9.47236046 C14.3595962,9.65349957 14.1359255,10.1082553 13.8777424,10.8366277 C13.7451808,11.5871494 13.3050625,12.0605175 12.5573875,12.2567319 C13.4892544,9.42918036 12.7411588,7.45256114 10.3131008,6.32687427 C9.95760327,5.84708195 9.53896213,5.60718579 9.05717737,5.60718579 C8.57539261,5.60718579 8.1898803,5.81589921 7.90064042,6.23332605 C5.27461791,7.52553838 4.55625326,9.58127901 5.7455465,12.400548 C4.77541908,12.1146465 4.2009789,11.5933398 4.02222597,10.8366277 C3.88634365,10.1568946 3.64593444,9.70213882 3.30099836,9.47236046 C3.02646167,8.76000097 2.90438725,8.25732212 2.9347751,7.96432391 C2.98035687,7.5248266 3.6808672,6.44051736 3.6808672,5.40331667 C3.6808672,4.71184955 3.85972496,4.01314102 4.21744047,3.30719108 Z"/>
    <g transform="matrix(-1 0 0 1 6.442 .36)">
      <path fill="#8C5E53" d="M0.472920697,0.713481476 C1.90178886,2.7005238 2.64834951,4.17033714 2.71260263,5.12292149 C2.8089823,6.55179802 2.81834579,8.22927982 3.08401629,8.250273 C3.26112996,8.26426846 3.70244225,7.6182801 4.40795315,6.31230792 C5.12328518,5.63703328 5.46792095,5.05974121 5.44186047,4.58043173 C5.40276973,3.8614675 2.95807761,0.701600476 0.472920697,0.713481476 Z"/>
      <path fill="#6D423A" d="M4.00121856,7.01810104 C4.09853122,4.85082074 3.73660182,3.33383612 2.91543036,2.46714717 C3.93518843,3.40878611 4.55041384,4.36896267 4.76110656,5.34767683 L4.00119783,7.01856289 L4.00111646,7.01852589 C4.00117731,7.01839209 4.00121197,7.01824788 4.00121856,7.01810104 Z"/>
    </g>
    <g transform="translate(11.442 .36)">
      <path fill="#8C5E53" d="M0.472920697,0.713481476 C1.90178886,2.7005238 2.64834951,4.17033714 2.71260263,5.12292149 C2.8089823,6.55179802 2.81834579,8.22927982 3.08401629,8.250273 C3.26112996,8.26426846 3.70244225,7.6182801 4.40795315,6.31230792 C5.12328518,5.63703328 5.46792095,5.05974121 5.44186047,4.58043173 C5.40276973,3.8614675 2.95807761,0.701600476 0.472920697,0.713481476 Z"/>
      <path fill="#6D423A" d="M4.00121856,7.01810104 C4.09853122,4.85082074 3.73660182,3.33383612 2.91543036,2.46714717 C3.93518843,3.40878611 4.55041384,4.36896267 4.76110656,5.34767683 L4.00119783,7.01856289 L4.00111646,7.01852589 C4.00117731,7.01839209 4.00121197,7.01824788 4.00121856,7.01810104 Z"/>
    </g>
    <g transform="matrix(-1 0 0 1 13.093 4.342)">
      <path fill="#000000" d="M2.43325904,1.84353079 C2.48393477,1.69517655 2.51162791,1.53465318 2.51162791,1.36708861 C2.51162791,0.612066418 1.94938085,0 1.25581395,0 C0.562247058,0 -3.37507799e-13,0.612066418 -3.37507799e-13,1.36708861 C-3.37507799e-13,2.1221108 0.562247058,2.73417722 1.25581395,2.73417722 C1.3008431,2.73417722 1.34531871,2.73159728 1.38912287,2.72656578 C1.48186367,2.57276708 1.59753001,2.42640584 1.7355204,2.29315007 C1.94614077,2.08975634 2.18545947,1.9394052 2.43325904,1.84353079 Z"/>
      <ellipse cx="1.535" cy=".911" fill="#FFFFFF" rx="1" ry="1"/>
    </g>
    <g transform="translate(4.907 4.342)">
      <path fill="#000000" d="M2.43325904,1.84353079 C2.48393477,1.69517655 2.51162791,1.53465318 2.51162791,1.36708861 C2.51162791,0.612066418 1.94938085,0 1.25581395,0 C0.562247058,0 0,0.612066418 0,1.36708861 C0,2.1221108 0.562247058,2.73417722 1.25581395,2.73417722 C1.3008431,2.73417722 1.34531871,2.73159728 1.38912287,2.72656578 C1.48186367,2.57276708 1.59753001,2.42640584 1.7355204,2.29315007 C1.94614077,2.08975634 2.18545947,1.9394052 2.43325904,1.84353079 Z"/>
      <ellipse cx="1.535" cy=".911" fill="#FFFFFF" rx="1" ry="1"/>
    </g>
    <path fill="#8C5E53" d="M8.25360259,12.9333028 C8.50141084,12.9333028 8.79764103,12.9049023 9.14229315,12.8481013 C9.7937566,12.9174592 10.2377756,12.9174592 10.4743503,12.8481013 C11.2855537,12.6102763 11.9605809,12.4308158 12.4994317,12.3097198 C13.4699358,9.44684297 12.7411588,7.45256114 10.3131008,6.32687427 C9.95760327,5.84708195 9.53896213,5.60718579 9.05717737,5.60718579 C8.57539261,5.60718579 8.1898803,5.81589921 7.90064042,6.23332605 C5.27461791,7.52553838 4.55625326,9.58127901 5.7455465,12.400548 C6.49142897,12.5004868 7.12806136,12.6496713 7.65544365,12.8481013 C7.80640802,12.9049023 8.00579434,12.9333028 8.25360259,12.9333028 C8.50141084,12.9333028 8.79764103,12.9049023 9.14229315,12.8481013 C9.7937566,12.9174592 10.2377756,12.9174592 10.4743503,12.8481013 C11.2855537,12.6102763 11.9605809,12.4308158 12.4994317,12.3097198 C12.8127943,11.0498366 12.944638,10.1576642 12.8949627,9.63320273 C11.9020585,10.7332361 10.6227967,11.2832528 9.05717737,11.2832528 C7.49155805,11.2832528 6.20290986,10.8101128 5.1912328,9.86383279 C5.16915008,10.6266125 5.35392132,11.4721842 5.7455465,12.400548 C6.49142897,12.5004868 7.12806136,12.6496713 7.65544365,12.8481013 C7.80640802,12.9049023 8.00579434,12.9333028 8.25360259,12.9333028 Z"/>
    <path fill="#6D423A" d="M12.4994317,12.3097198 C12.932016,10.9035435 13.0321992,9.8937905 12.7999811,9.28046065 C11.8638207,10.5123339 10.6129309,11.1282706 9.04731158,11.1282706 C7.48169226,11.1282706 6.16467214,10.5892106 5.09625122,9.51109072 C5.07416851,10.2738704 5.35392132,11.4721842 5.7455465,12.400548 C6.42810793,12.5711516 7.03307978,12.7556684 7.56046208,12.9540984 C7.86239083,13.0677005 8.35800733,13.0677005 9.04731158,12.9540984 C9.69877503,13.0234563 10.1427941,13.0234563 10.3793687,12.9540984 C11.1905721,12.7162734 11.8972598,12.5014805 12.4994317,12.3097198 Z"/>
    <path fill="#090806" fill-rule="nonzero" d="M7.63535471,10.9381709 C7.66959431,10.1402081 8.41997687,9.60330386 9.07967581,9.60419073 C9.73937475,9.6050776 10.3691955,10.0980613 10.4751293,10.9381709 L11.2013248,10.9223209 C11.0910217,10.0475607 10.3497624,9.11271931 9.38109448,9.03930671 C9.36641973,9.03819455 9.20292303,8.19648481 9.15561271,7.64602185 C9.15155389,7.5987968 10.2374801,7.17124228 9.92378014,7.23328625 C9.61008016,7.29533022 9.02131484,7.28325394 9.01717685,7.25114826 C9.0081772,7.18132221 8.99966278,7.14042024 8.99197843,7.14044248 C8.98436248,7.14046452 8.97755882,7.18053538 8.97142581,7.24903792 C8.96837782,7.28308245 8.55321504,7.31958008 8.12870473,7.24903792 C7.70419442,7.17849575 8.78642677,7.60257554 8.78443216,7.64602185 C8.75918742,8.19589873 8.59071904,9.0424894 8.574986,9.04382429 C7.61289124,9.12545447 6.99390482,10.0913907 6.95802685,10.9275361 L7.63535471,10.9381709 Z"/>
  </g>
</svg>
