<svg xmlns="http://www.w3.org/2000/svg" viewBox="0 0 16 16">
    <path fill="#6B7AA2" d="M7.47889303,1.56995185 C7.49687434,1.65149319 7.45192105,1.72397438 7.30807052,1.79645556 C7.1192667,1.68773378 6.71468708,1.64243304 6.37304207,1.66961348 C6.01341575,1.70585408 5.83578989,1.78404952 5.88074319,2.03773368 C5.93468713,2.29141783 6.15726628,2.45784641 6.77762169,2.40348552 C8.29704292,2.26758329 8.2657281,1.14701652 10.504402,0.947693251 C12.2485897,0.793670726 12.9737029,1.42019327 13.1085628,2.08158412 C13.2164507,2.59801258 12.9874596,3.29221569 11.7197768,3.40999762 C10.5959445,3.50965925 10.0412306,3.00145532 9.96930533,2.68435012 C9.9333427,2.5303276 10.0322399,2.28570358 10.5716794,2.22228255 C10.6256234,2.46690656 10.7753646,2.74006512 11.4946173,2.67664408 C12.0160754,2.63134334 12.1281182,2.4027116 12.0651836,2.11278685 C12.002249,1.8047418 11.8486378,1.76139981 10.9765439,1.833881 C9.20538428,1.98790353 8.91730015,3.02578588 7.39787892,3.16168811 C6.31899994,3.25228959 5.13524359,2.77181003 5.00937438,2.18290037 C4.96442109,1.96545681 5.17037475,1.10522988 6.31218834,1.00556824 C6.91456243,0.95120735 7.43393973,1.33438799 7.47889303,1.56995185 Z M1.44632908,7.41455819 C0.951842886,8.04876859 0.881832233,9.0279778 0.926785524,9.75278968 C0.971738814,10.4776016 1.41019878,11.1374687 1.94963827,11.5904761 C2.53403105,12.0434836 3.16337712,12.1793858 3.88262977,12.0434836 C4.15234951,11.9981828 4.46702255,11.8622806 4.73674229,11.7716791 C4.15234951,11.7716791 3.69627304,11.4066873 3.20178685,10.9989806 C2.66234736,10.5912739 2.37207278,10.1561149 2.2821662,9.47660375 C2.14730633,8.84239335 2.25282114,8.21345942 2.61244746,7.71515125 C3.01702708,7.21684308 3.43309686,7.06040186 4.10739622,6.96980038 C4.78169558,6.92449963 5.36608836,7.10570261 5.95048114,7.51340929 C5.81562127,7.33220632 5.63580811,7.19630409 5.45599494,7.01510112 C4.86261151,6.60739444 4.23326544,6.42619147 3.46905949,6.60739444 C2.74980684,6.74329666 1.93182462,6.7803478 1.44632908,7.41455819 Z M9.49280045,4.08890848 C7.60476224,4.08890848 6.01501206,4.17021448 4.80127321,3.89841002 C3.49762778,3.58130483 2.74980684,3.21889888 2.74980684,2.76589146 C2.74980684,2.58468849 2.83971342,2.40348552 3.10943317,2.22228255 C2.30027393,2.53938774 1.85074103,2.8111922 1.85074103,3.21889888 C1.89569432,3.67190631 2.87725334,4.26168415 4.36071193,4.62409009 C5.75426394,4.98649603 7.23832363,5.15506402 9.39608158,5.15506402 C11.5987928,5.15506402 13.420525,4.99097138 14.814077,4.62856543 C16.2975356,4.26615949 16.9820187,3.67190631 16.9820187,3.21889888 C16.9820187,2.90179369 16.6673456,2.58468849 16.0829529,2.35818477 C16.2178127,2.44878626 16.3077193,2.58468849 16.3077193,2.76589146 C16.3077193,3.21889888 15.63342,3.58130483 14.2848212,3.89841002 C13.0261291,4.17021448 11.425792,4.08890848 9.49280045,4.08890848 Z M9.33428625,6.10057046 C4.36955275,6.10057046 2.16541406,4.94032711 1.94064761,4.57792116 C2.16541406,6.15438701 2.70485355,7.64931152 3.4241062,8.96303305 C3.96354569,9.77844642 4.50298518,10.5032583 5.04242467,11.2733709 C5.26719112,11.7263784 5.31400721,12.5166634 5.40391379,12.9696708 C5.76354011,13.467979 7.40155868,14.0025746 9.40289387,13.9914155 C11.4042291,13.9802564 13.0244942,13.5372378 13.3841205,13.0389296 C13.5189804,12.5859222 13.6734565,11.7263784 13.8982229,11.2733709 C14.4376624,10.5032583 14.9771019,9.77844642 15.5165414,8.96303305 C16.2357941,7.64931152 16.7302803,6.16344716 17,4.57792116 C16.7122989,4.98562785 14.2990198,6.10057046 9.33428625,6.10057046 Z" transform="translate(-1)"/>
</svg>
