<svg xmlns="http://www.w3.org/2000/svg" viewBox="0 0 16 16">
  <path fill="#66BF5E" fill-rule="evenodd" d="M7,8.5 C6.17157288,8.5 5.5,7.82842712 5.5,7 C5.5,6.17157288 6.17157288,5.5 7,5.5 C7.82842712,5.5 8.5,6.17157288 8.5,7 C8.5,7.82842712 7.82842712,8.5 7,8.5 Z M7,14 C3.65021614,14 0.849991456,11.6470575 0.161089769,8.5 L3.29075852,8.5 C3.8841459,9.96591517 5.32131122,11 7,11 C9.209139,11 11,9.209139 11,7 C11,4.790861 9.209139,3 7,3 C5.32131122,3 3.8841459,4.03408483 3.29075852,5.5 L0.161089769,5.5 C0.847759983,2.35481799 3.64888139,0 7,0 C10.8659932,0 14,3.13400675 14,7 C14,10.8659932 10.8659932,14 7,14 Z" transform="translate(1 1)"/>
</svg>
