<?xml version="1.0" encoding="UTF-8" standalone="no"?>
<!DOCTYPE svg PUBLIC "-//W3C//DTD SVG 1.1//EN" "http://www.w3.org/Graphics/SVG/1.1/DTD/svg11.dtd">
<svg width="100%" height="100%" viewBox="0 0 32 32" version="1.1" xmlns="http://www.w3.org/2000/svg" xmlns:xlink="http://www.w3.org/1999/xlink" xml:space="preserve" xmlns:serif="http://www.serif.com/" style="fill-rule:evenodd;clip-rule:evenodd;stroke-linejoin:round;stroke-miterlimit:2;">
    <path d="M6.957,8.806C6.957,8.806 7.437,10.655 7.505,11.272C7.573,11.889 6.272,13.258 6.272,13.943C6.266,15.078 6.983,16.098 8.053,16.477C9.223,17.065 9.908,18.326 9.765,19.628C9.679,20.58 9.495,21.521 9.217,22.436C8.939,23.351 8.875,27.025 10.724,27.847C12.573,28.669 12.162,28.669 12.573,28.669C12.984,28.669 16,29.9 17.779,29.424C18.608,29.283 19.387,28.93 20.04,28.4C21.044,28.477 21.989,27.893 22.369,26.961C22.964,24.893 23.196,22.738 23.054,20.591C22.848,19.084 22.575,17.098 23.807,16.413C25.039,15.728 26.342,14.907 26.136,14.222C25.817,13.593 25.375,13.034 24.836,12.578C24.701,11.878 24.678,11.162 24.767,10.455C24.972,10.044 26.205,9.016 25.52,8.263C24.996,7.782 24.312,7.51 23.6,7.5L22.025,7.637C20.298,6.186 18.116,5.386 15.86,5.377C13.764,5.466 11.76,6.263 10.175,7.637C9.463,7.403 8.695,7.403 7.983,7.637C6.956,8.053 6.752,7.642 6.957,8.806ZM13.05,5.749C12.67,5.677 12.33,5.469 12.093,5.164C11.491,4.28 10.497,3.741 9.428,3.718C8.46,3.729 7.498,3.857 6.561,4.1L7.806,4.886C7.938,4.886 8.168,4.886 8.548,4.896C9.448,4.935 10.204,5.606 10.348,6.496L15.848,5.738M18.948,5.748C19.328,5.676 19.668,5.468 19.905,5.163C20.507,4.279 21.501,3.739 22.57,3.716C23.538,3.727 24.5,3.856 25.437,4.099L24.192,4.885C24.06,4.885 23.83,4.885 23.449,4.895C22.549,4.934 21.793,5.605 21.649,6.495L16.149,5.737" style="fill:rgb(251,169,25);fill-rule:nonzero;"/>
    <path d="M13.216,19C13.216,19 11.859,21.074 10.864,22.546C10.71,22.774 11.864,22.789 11.864,22.789L13.216,19ZM13.862,14.7C13.862,14.7 13.453,15.719 13.229,16.26C12.986,16.848 12.059,17.14 12.059,17.14C12.427,16.623 12.598,15.992 12.54,15.36C12.54,14.824 13.232,14.611 13.232,14.611L13.863,14.699L13.862,14.7ZM13.449,15.281C12.821,15.909 11.865,16.084 11.056,15.719C9.5,15.162 9.34,13.167 9.34,12.609C9.34,12.051 12.292,13.167 12.691,13.409C13.09,13.651 13.847,14.609 13.449,15.284L13.449,15.281ZM7.573,4.625C8.402,4.472 9.259,4.642 9.966,5.1C10.469,5.461 10.89,5.924 11.2,6.46L9.589,7.74C9.062,7.444 8.69,6.932 8.57,6.34C8.331,5.303 8.49,4.824 7.57,4.625L7.573,4.625ZM13.03,12.4C12.446,11.623 11.549,11.139 10.579,11.076C9.874,10.969 9.152,11.103 8.533,11.458C7.914,11.813 10.805,11.558 11.46,12.414C12.679,14.014 14.46,14.145 14.742,13.793C14.328,13.776 13.938,13.591 13.664,13.28C13.426,13.007 13.214,12.712 13.03,12.4ZM9.2,15.5C9.2,15.5 6.679,14.633 7.158,13.756C7.637,12.879 7.258,12.4 7.258,12.4C7.258,12.4 5.843,13.455 6.2,14.572C6.42,15.257 6.79,15.753 8.821,16.704C9.795,18.513 9.021,21.769 9.068,21.785C9.145,21.811 10.435,21.147 10.347,18.101C10.32,17.166 10.247,15.888 9.192,15.501L9.2,15.5ZM12.5,6.182C11.443,6.719 10,7.467 10,7.467L10.57,7.752C10.516,7.84 10.489,7.893 10.489,7.893L11.074,8.159C11.074,8.159 12.502,9.193 13.374,9.859C13.059,9.057 12.675,8.285 12.226,7.55C12.094,7.078 12.196,6.57 12.5,6.186L12.5,6.182ZM16.011,28.068C12.762,28.068 11.662,26.419 11.662,26.419L12.17,27.655C13.097,28.875 14.479,29.671 16,29.859M12.016,25.309C12.016,25.309 12.316,27.136 13.516,27.136C14.533,27.136 14.833,25.593 14.833,25.274L12.021,25.309L12.016,25.309ZM10.024,22.554C10.309,21.725 10.51,20.87 10.624,20.001C10.713,18.945 10.743,17.885 10.715,16.825C10.687,15.765 10.396,18.062 10.115,18.261C9.779,18.741 9.51,19.264 9.315,19.817C9.12,20.37 9.037,21.836 8.905,22.517C9.271,22.59 9.579,22.375 10.022,22.557L10.024,22.554ZM7.134,14.554C7.134,14.554 7.812,14.314 8.012,12.839C8.126,11.915 8.044,10.977 7.773,10.086C7.811,10.902 7.744,11.72 7.573,12.519C7.334,12.919 7.134,13.037 6.855,13.556C6.677,13.91 6.799,14.346 7.134,14.556L7.134,14.554ZM18.784,19C18.784,19 20.14,21.074 21.136,22.546C21.29,22.774 20.136,22.789 20.136,22.789L18.784,19ZM18.138,14.7C18.138,14.7 18.547,15.719 18.771,16.26C19.014,16.848 19.941,17.14 19.941,17.14C19.573,16.623 19.403,15.991 19.461,15.36C19.461,14.824 18.769,14.611 18.769,14.611L18.138,14.699L18.138,14.7ZM18.551,15.281C19.179,15.909 20.135,16.084 20.945,15.719C22.501,15.162 22.66,13.167 22.66,12.608C22.66,12.049 19.708,13.166 19.309,13.408C18.91,13.65 18.152,14.608 18.551,15.283L18.551,15.281ZM24.427,4.625C23.597,4.473 22.74,4.644 22.033,5.104C21.531,5.464 21.111,5.926 20.8,6.46L22.414,7.739C22.941,7.443 23.314,6.932 23.433,6.339C23.672,5.302 23.513,4.823 24.433,4.624L24.427,4.625ZM18.97,12.4C19.554,11.623 20.451,11.139 21.421,11.076C22.126,10.969 22.847,11.104 23.466,11.458C24.085,11.812 21.194,11.558 20.539,12.414C19.32,14.014 17.539,14.145 17.258,13.793C17.672,13.776 18.062,13.591 18.336,13.28C18.574,13.007 18.786,12.712 18.97,12.4ZM22.805,15.5C22.805,15.5 25.325,14.633 24.847,13.756C24.369,12.879 24.747,12.4 24.747,12.4C24.747,12.4 26.155,13.451 25.796,14.568C25.576,15.253 25.206,15.749 23.175,16.7C22.201,18.509 22.975,21.765 22.928,21.781C22.851,21.807 21.561,21.143 21.649,18.097C21.677,17.165 21.752,15.888 22.805,15.5ZM19.5,6.186C20.557,6.723 22,7.471 22,7.471L21.43,7.756C21.484,7.844 21.511,7.897 21.511,7.897L20.926,8.163C20.926,8.163 19.498,9.197 18.626,9.863C18.941,9.061 19.325,8.289 19.774,7.554C19.907,7.081 19.805,6.571 19.5,6.186ZM15.991,28.073C19.239,28.073 20.34,26.424 20.34,26.424L19.833,27.66C18.905,28.879 17.521,29.673 16,29.859M19.984,25.309C19.984,25.309 19.684,27.136 18.484,27.136C17.467,27.136 17.167,25.593 17.167,25.274L19.984,25.309ZM21.976,22.554C21.691,21.725 21.49,20.87 21.376,20.001C21.287,18.945 21.256,17.885 21.285,16.825C21.314,15.765 21.604,18.062 21.885,18.261C22.222,18.74 22.491,19.264 22.685,19.817C22.879,20.37 22.963,21.836 23.095,22.517C22.729,22.59 22.421,22.375 21.978,22.557L21.976,22.554ZM24.866,14.554C24.866,14.554 24.188,14.314 23.988,12.839C23.874,11.915 23.956,10.977 24.227,10.086C24.189,10.902 24.256,11.72 24.427,12.519C24.666,12.919 24.866,13.037 25.145,13.556C25.319,13.908 25.198,14.34 24.866,14.551L24.866,14.554ZM16,11.3C15.38,11.353 14.758,11.213 14.22,10.9C13.682,10.587 14.915,12.118 15.999,12.118C17.084,12.118 17.778,10.9 17.778,10.9C17.24,11.212 16.62,11.352 16,11.3Z" style="fill:rgb(231,135,36);fill-rule:nonzero;"/>
    <path d="M13.582,14.283C13.069,14.741 12.367,14.929 11.694,14.788C10.55,14.549 9.859,14.043 9.806,13.166C9.738,12.743 9.823,12.309 10.046,11.943C10.721,12.151 11.358,12.465 11.934,12.874C12.546,13.406 12.998,14.257 13.583,14.283L13.582,14.283ZM11.8,23.817C11.748,23.557 11.748,23.289 11.8,23.029C11.5,22.872 11.179,22.759 10.847,22.691C10.594,22.531 9.297,22.855 8.356,21.717C7.182,20.291 7.43,19.44 7.43,19.44C7.13,19.776 6.83,19.648 6.374,21.214C5.918,22.78 6.591,23.872 7.854,24.968C8.481,25.446 9.235,25.728 10.021,25.781C9.778,25.537 10.436,25.512 10.89,25.343C10.832,24.979 10.942,24.607 11.19,24.334C11.36,24.171 11.565,24.048 11.79,23.976L11.824,23.894C11.815,23.869 11.807,23.843 11.8,23.817ZM18.418,14.283C18.931,14.741 19.633,14.929 20.306,14.788C21.45,14.549 22.141,14.043 22.194,13.166C22.262,12.743 22.178,12.309 21.955,11.943C21.28,12.151 20.643,12.465 20.067,12.874C19.456,13.4 19,14.257 18.418,14.283ZM20.2,23.817C20.252,23.557 20.252,23.289 20.2,23.029C20.5,22.872 20.821,22.759 21.153,22.691C21.406,22.531 22.704,22.855 23.645,21.717C24.824,20.291 24.575,19.44 24.575,19.44C24.875,19.776 25.175,19.648 25.631,21.214C26.087,22.78 25.414,23.872 24.151,24.968C23.524,25.446 22.77,25.729 21.984,25.781C22.227,25.537 21.569,25.512 21.115,25.343C21.173,24.979 21.063,24.607 20.815,24.334C20.645,24.171 20.44,24.048 20.215,23.976L20.181,23.894C20.189,23.869 20.195,23.844 20.2,23.818L20.2,23.817Z" style="fill:white;fill-rule:nonzero;"/>
    <path d="M12.681,14.017C12.245,14.192 11.762,14.212 11.313,14.072C10.754,13.871 10.36,13.363 10.305,12.772C10.25,12.181 9.725,14.472 11.351,14.801C12.081,14.973 12.851,14.79 13.426,14.308L12.681,14.015L12.681,14.017ZM10.881,25.333C10.855,25.256 10.835,25.178 10.815,25.099C10.795,25.02 10.69,24.769 10.815,25.047C10.783,24.977 10.759,24.903 10.744,24.828C8.698,24.828 6.917,23.42 7.261,20.467C6.993,20.111 6.618,21.184 6.618,21.184C6.618,21.184 5.6,24.158 8.242,25.311C8.804,25.638 9.436,25.826 10.086,25.86C10.416,25.902 10.745,25.762 10.944,25.495C10.92,25.441 10.898,25.387 10.879,25.332L10.881,25.333ZM19.32,14.017C19.756,14.192 20.239,14.212 20.688,14.072C21.247,13.871 21.641,13.363 21.696,12.772C21.751,12.181 22.275,14.472 20.65,14.801C19.92,14.973 19.15,14.79 18.575,14.308L19.32,14.015L19.32,14.017ZM21.12,25.333C21.147,25.256 21.166,25.178 21.186,25.099C21.206,25.02 21.312,24.769 21.186,25.047C21.218,24.977 21.242,24.903 21.257,24.828C23.303,24.828 25.084,23.42 24.739,20.467C25.007,20.111 25.382,21.184 25.382,21.184C25.382,21.184 26.406,24.159 23.761,25.311C23.199,25.638 22.567,25.826 21.917,25.86C21.586,25.902 21.258,25.762 21.059,25.495C21.083,25.442 21.105,25.387 21.124,25.332L21.12,25.333Z" style="fill:rgb(201,201,201);fill-rule:nonzero;"/>
    <path d="M9.131,13.4L9.131,13.391L9.131,13.4ZM8.85,12.354C8.861,12.102 8.994,11.87 9.206,11.732C8.972,11.645 8.743,11.545 8.5,11.479C10.216,11.178 11.966,11.847 13.044,13.216C13.492,13.817 14.31,14.019 14.986,13.695C14.953,14.026 14.781,14.329 14.513,14.527C14.312,14.669 14.07,14.743 13.824,14.738C13.782,15.405 13.516,16.04 13.07,16.538C13.236,16.098 13.286,15.622 13.216,15.157C13.163,15.003 13.101,14.853 13.032,14.706C11.978,15.626 10.424,14.778 10.05,14.364C9.638,13.821 9.398,13.166 9.363,12.485C9.232,12.768 9.153,13.073 9.132,13.385C8.931,13.08 8.833,12.719 8.85,12.354ZM10.403,12.281C10.176,12.939 10.321,13.67 10.782,14.191C11.392,14.63 12.209,14.66 12.85,14.268C12.162,13.461 11.331,12.788 10.4,12.281L10.403,12.281ZM14.244,24.89L12.635,24.89C12.448,24.871 12.262,24.927 12.117,25.047C12.012,25.166 11.993,25.339 12.069,25.478C12.243,25.86 12.499,26.199 12.819,26.47C13,26.619 13.227,26.701 13.462,26.7C13.687,26.706 13.905,26.617 14.062,26.456C14.355,26.144 14.596,25.787 14.775,25.399C14.835,25.28 14.816,25.135 14.727,25.035C14.591,24.925 14.418,24.873 14.244,24.89ZM22.869,13.4L22.869,13.391L22.869,13.4ZM17.015,13.694C17.691,14.016 18.508,13.815 18.956,13.215C20.035,11.846 21.784,11.178 23.5,11.479C23.257,11.545 23.028,11.645 22.794,11.732C23.006,11.87 23.138,12.102 23.149,12.354C23.168,12.721 23.07,13.085 22.868,13.392C22.847,13.08 22.769,12.775 22.637,12.492C22.602,13.173 22.363,13.827 21.95,14.369C21.576,14.783 20.021,15.631 18.968,14.711C18.899,14.858 18.838,15.008 18.785,15.162C18.715,15.627 18.765,16.102 18.931,16.542C18.484,16.044 18.219,15.41 18.177,14.742C17.93,14.748 17.688,14.674 17.487,14.531C17.22,14.333 17.049,14.031 17.015,13.7L17.015,13.694ZM19.15,14.267C19.791,14.66 20.609,14.629 21.219,14.19C21.68,13.669 21.826,12.938 21.598,12.28C20.667,12.787 19.837,13.461 19.15,14.268L19.15,14.267ZM19.883,25.044C19.739,24.925 19.552,24.868 19.366,24.887L17.756,24.887C17.582,24.87 17.408,24.922 17.272,25.032C17.183,25.132 17.164,25.276 17.223,25.396C17.402,25.784 17.643,26.141 17.936,26.453C18.093,26.614 18.311,26.703 18.536,26.697C18.771,26.698 18.998,26.616 19.179,26.467C19.499,26.196 19.755,25.857 19.929,25.475C20.005,25.337 19.987,25.164 19.883,25.045L19.883,25.044ZM16,12.265C16.7,12.257 17.494,11.291 17.494,11.291C16.592,11.894 15.409,11.894 14.507,11.291C13.605,10.688 15.3,12.258 16,12.265ZM24.6,19.351C25.65,20.34 26.083,21.826 25.729,23.225C25.514,24.637 24.502,25.804 23.135,26.217C22.487,27.703 21.095,28.735 19.485,28.923C18.49,29.688 17.253,30.07 16,30C14.746,30.071 13.507,29.688 12.511,28.922C10.902,28.733 9.511,27.701 8.864,26.216C7.496,25.805 6.484,24.637 6.271,23.225C5.917,21.826 6.35,20.34 7.4,19.351C7.543,20.276 8.018,21.118 8.735,21.719C8.869,20.595 8.941,19.464 8.948,18.332C8.951,17.781 8.707,17.257 8.282,16.906C8.142,16.826 7.988,16.743 7.83,16.657C6.846,16.13 5.62,15.475 5.62,14.266C5.613,13.646 5.935,13.066 6.465,12.745C6.507,12.713 6.547,12.683 6.583,12.654C6.677,12.592 6.757,12.511 6.819,12.416C7.015,11.748 7.046,11.042 6.91,10.359C6.413,9.763 6.18,8.989 6.267,8.218C6.378,7.811 6.66,7.472 7.039,7.288C7.372,7.136 7.734,7.056 8.1,7.051C8.094,6.938 8.112,6.825 8.152,6.72C8.191,6.576 8.208,6.428 8.202,6.279C8.203,6.068 8.163,5.859 8.084,5.664C7.682,5.171 7.123,4.83 6.5,4.7L5.83,4.57L6.274,4.05C6.967,3.427 7.868,3.085 8.8,3.092C9.248,3.094 9.692,3.166 10.117,3.306C11.199,3.766 12.134,4.516 12.817,5.473C12.923,5.439 13.031,5.415 13.138,5.385C13.096,4.275 13.698,3.235 14.68,2.717C14.703,2.964 14.657,3.929 15.071,4.225C15.192,3.437 15.6,2.569 17.21,2C16.976,2.666 17.012,3.397 17.31,4.037C18.41,3.037 19.151,3.204 19.151,3.204C18.764,3.843 18.599,4.592 18.684,5.334C18.851,5.377 19.02,5.419 19.184,5.471C19.867,4.515 20.802,3.766 21.884,3.307C22.309,3.167 22.753,3.094 23.2,3.092C24.134,3.083 25.037,3.424 25.732,4.048L26.176,4.568L25.5,4.7C24.875,4.83 24.314,5.17 23.911,5.665C23.832,5.86 23.792,6.069 23.793,6.28C23.787,6.429 23.804,6.577 23.843,6.721C23.883,6.825 23.901,6.937 23.895,7.049C24.263,7.053 24.626,7.134 24.961,7.287C25.34,7.471 25.622,7.81 25.733,8.217C25.82,8.988 25.587,9.762 25.09,10.358C24.954,11.041 24.985,11.747 25.181,12.415C25.243,12.51 25.324,12.591 25.418,12.653C25.454,12.682 25.493,12.712 25.536,12.744C26.066,13.066 26.387,13.645 26.38,14.265C26.38,15.474 25.154,16.129 24.17,16.656C24.008,16.743 23.854,16.825 23.715,16.906C23.29,17.257 23.046,17.781 23.049,18.332C23.056,19.464 23.126,20.595 23.261,21.719C23.98,21.118 24.456,20.276 24.6,19.351ZM20.153,5.836C20.239,5.874 20.329,5.901 20.415,5.936C20.552,5.998 20.686,6.067 20.815,6.143C21.046,5.627 21.437,5.199 21.93,4.923C22.541,4.514 23.29,4.362 24.012,4.5C24.174,4.379 24.349,4.274 24.533,4.189C24.105,4.01 23.647,3.917 23.183,3.915C22.855,3.914 22.529,3.965 22.217,4.065C21.375,4.447 20.659,5.062 20.153,5.836ZM22.729,7.146C22.926,6.875 23.022,6.544 23,6.21C23,5.871 23.082,5.537 23.239,5.236C23.283,5.171 23.348,5.126 23.397,5.065C22.999,5.065 22.611,5.198 22.297,5.443C21.948,5.786 21.697,6.216 21.569,6.688C21.774,6.874 21.961,7.08 22.126,7.302C22.327,7.247 22.525,7.183 22.729,7.146ZM9.873,7.3C10.038,7.077 10.224,6.872 10.43,6.687C10.302,6.214 10.05,5.785 9.7,5.442C9.385,5.198 8.998,5.065 8.6,5.064C8.65,5.125 8.715,5.171 8.759,5.236C8.916,5.537 8.999,5.871 9,6.21C8.979,6.544 9.075,6.876 9.273,7.146C9.477,7.183 9.674,7.247 9.873,7.3ZM11.588,5.941C11.672,5.901 11.761,5.874 11.846,5.841C11.341,5.064 10.625,4.447 9.782,4.062C9.47,3.962 9.144,3.911 8.816,3.912C8.352,3.914 7.894,4.007 7.466,4.186C7.65,4.271 7.824,4.375 7.986,4.496C8.709,4.359 9.458,4.512 10.069,4.922C10.563,5.201 10.954,5.633 11.182,6.152C11.313,6.075 11.449,6.006 11.588,5.944L11.588,5.941ZM9.723,18.089C9.738,19.472 9.674,20.854 9.532,22.23C10.221,22.465 10.942,22.591 11.67,22.603C11.794,22.37 11.906,22.13 12.006,21.885L12,21.88C12.036,21.78 13.071,19.092 13.443,18.48C13.182,20.146 12.752,21.781 12.158,23.36C12.373,23.325 12.591,23.318 12.807,23.34L19.2,23.34C19.413,23.319 19.628,23.325 19.84,23.358C19.247,21.78 18.817,20.145 18.556,18.48C18.928,19.092 19.962,21.78 19.999,21.88L19.999,21.885C20.099,22.13 20.211,22.37 20.335,22.603C21.063,22.591 21.784,22.465 22.473,22.23C22.33,20.854 22.267,19.472 22.282,18.089C22.299,17.332 22.69,16.631 23.325,16.219C23.474,16.134 23.625,16.05 23.785,15.966C24.597,15.527 25.438,15.073 25.438,14.297C25.475,13.9 25.287,13.513 24.952,13.297L24.925,13.275C24.89,13.246 24.857,13.216 24.825,13.184C24.865,13.453 24.903,13.723 24.954,13.991C24.463,13.27 24.167,12.435 24.094,11.566C24.03,10.771 24.125,9.97 24.373,9.212C24.373,9.497 24.392,9.78 24.414,10.064C24.432,10.004 24.44,9.941 24.462,9.882C24.809,9.479 24.992,8.96 24.974,8.428C24.919,8.237 24.782,8.08 24.6,8C24.341,7.883 24.059,7.829 23.775,7.841C23.163,7.864 22.557,7.974 21.975,8.167C20.71,8.673 19.53,9.369 18.475,10.23L18.452,10.248L18.152,10.459L18.342,10.141C19.06,9.044 20.073,8.171 21.264,7.623C20.946,7.238 20.532,6.944 20.064,6.77C18.793,6.177 17.402,5.883 16,5.909C14.597,5.883 13.206,6.179 11.934,6.773C11.467,6.948 11.054,7.241 10.734,7.624C11.925,8.172 12.938,9.045 13.656,10.142L13.846,10.46L13.546,10.249L13.523,10.231C12.468,9.37 11.288,8.674 10.023,8.168C9.441,7.975 8.835,7.865 8.223,7.842C7.94,7.83 7.658,7.884 7.4,8C7.221,8.081 7.086,8.238 7.033,8.427C7.015,8.958 7.197,9.478 7.544,9.881C7.566,9.941 7.574,10.004 7.592,10.064C7.614,9.78 7.637,9.496 7.633,9.211C7.881,9.969 7.976,10.77 7.912,11.565C7.839,12.434 7.543,13.269 7.052,13.99C7.103,13.722 7.141,13.452 7.182,13.182C7.147,13.212 7.118,13.247 7.082,13.274L7.055,13.296C6.72,13.512 6.532,13.899 6.569,14.296C6.569,15.072 7.41,15.526 8.222,15.965C8.382,16.049 8.533,16.133 8.682,16.218C9.317,16.63 9.707,17.332 9.723,18.089ZM8.646,25.254L9.346,25.254C9.379,25.374 9.418,25.492 9.464,25.607C9.83,25.713 10.209,25.765 10.59,25.759C10.355,25.233 10.409,24.622 10.732,24.145L10.71,24.145C10.902,23.901 11.08,23.645 11.241,23.379C9.753,23.31 7.789,22.772 7.2,20.9C6.805,21.956 6.878,23.131 7.4,24.13C7.727,24.592 8.153,24.976 8.646,25.254ZM11.578,27.868C11.322,27.475 11.103,27.06 10.922,26.627C10.581,26.6 10.242,26.554 9.906,26.492C10.319,27.102 10.9,27.58 11.578,27.868ZM16,29.243C18.177,29.292 20.114,27.813 20.642,25.7C20.854,25.302 20.836,24.82 20.595,24.439C20.223,24.12 19.733,23.974 19.247,24.039L12.747,24.039C12.262,23.975 11.772,24.12 11.4,24.439C11.159,24.82 11.141,25.302 11.353,25.7C11.881,27.815 13.821,29.294 16,29.243ZM22.1,26.492C21.763,26.555 21.423,26.6 21.082,26.627C20.9,27.061 20.679,27.477 20.422,27.871C21.102,27.583 21.685,27.104 22.1,26.492ZM24.8,20.9C24.208,22.77 22.247,23.311 20.763,23.382C20.901,23.597 21.041,23.811 21.199,24.012C21.233,24.055 21.257,24.104 21.292,24.146L21.28,24.146C21.6,24.624 21.651,25.235 21.414,25.76C21.795,25.766 22.174,25.714 22.54,25.608C22.581,25.492 22.627,25.378 22.657,25.257L23.35,25.257C23.845,24.978 24.272,24.593 24.6,24.129C25.122,23.13 25.194,21.955 24.8,20.9Z" style="fill:rgb(70,48,20);fill-rule:nonzero;"/>
</svg>
