<svg xmlns="http://www.w3.org/2000/svg" viewBox="0 0 16 16">
  <g fill="none" fill-rule="evenodd">
    <path fill="#595FC1" d="M1,2 L15,2 L15,2 C15.5522847,2 16,2.44771525 16,3 L16,14 C16,14.5522847 15.5522847,15 15,15 L1,15 C0.44771525,15 9.55813795e-16,14.5522847 8.8817842e-16,14 L8.8817842e-16,3 L8.8817842e-16,3 C8.20543045e-16,2.44771525 0.44771525,2 1,2 L1,2 Z M1,3 L1,5 L3,5 L3,3 L1,3 Z M1,6 L1,8 L3,8 L3,6 L1,6 Z M1,9 L1,11 L3,11 L3,9 L1,9 Z M1,12 L1,14 L3,14 L3,12 L1,12 Z M13,3 L13,5 L15,5 L15,3 L13,3 Z M13,6 L13,8 L15,8 L15,6 L13,6 Z M13,9 L13,11 L15,11 L15,9 L13,9 Z M13,12 L13,14 L15,14 L15,12 L13,12 Z"/>
    <path fill="#777CCF" d="M13.3571429,5 L3,13.5294118 L3,12 L1,12 L1,14 L2.42857143,14 L1.63570725,14.652947 C1.20938196,15.0040384 0.579161185,14.9430493 0.228069764,14.516724 C0.0806242101,14.337683 1.99472374e-15,14.1129561 1.55431223e-15,13.8810167 L2.3869795e-15,3 L2.66453526e-15,3 C2.59689988e-15,2.44771525 0.44771525,2 1,2 L1,2 L14.2126632,2 L14.2126632,2 C14.7649479,2 15.2126632,2.44771525 15.2126632,3 C15.2126632,3.22554804 15.1365298,3.44217555 15,3.61653635 L15,3 L13,3 L13,5 L13.3571429,5 Z M1,3 L1,5 L3,5 L3,3 L1,3 Z M1,6 L1,8 L3,8 L3,6 L1,6 Z M1,9 L1,11 L3,11 L3,9 L1,9 Z"/>
    <path fill="#FFFFFF" d="M6.38194167,5.23731883 L10.5955806,7.85545641 L10.5955806,7.85545641 C10.7128568,7.92832578 10.7488556,8.08246923 10.6759862,8.19974543 C10.654754,8.23391664 10.6255888,8.26245914 10.5909673,8.28294899 L6.37732842,10.7766875 L6.37732842,10.7766875 C6.25850698,10.847009 6.1051763,10.8076921 6.03485476,10.6888706 C6.01203797,10.6503174 6,10.6063413 6,10.5615422 L6,5.44966617 L6,5.44966617 C6,5.31159499 6.11192881,5.19966617 6.25,5.19966617 C6.29663143,5.19966617 6.34233343,5.21270831 6.38194167,5.23731883 Z"/>
  </g>
</svg>
