<svg xmlns="http://www.w3.org/2000/svg" viewBox="0 0 16 16">
  <path fill="#5CB9F7" fill-rule="evenodd" d="M2.24942542,1 L13.6652297,1 L12.5402297,12.9336859 L8,15 L3.33578941,12.9336859 L2.24942542,1 Z M4.10636941,2.79410815 L4.31601501,4.5267077 C4.31601501,4.5267077 6.30775608,4.5267077 10.2912382,4.5267077 C10.2912382,4.5267077 10.2300611,5.08560056 10.1077069,6.20338628 L4.52113924,6.16782259 L4.65141968,7.77345148 L9.87631704,7.75919899 L9.50523615,9.82377026 C9.50523615,9.82377026 8.96115399,10.0670579 7.87298968,10.5536332 C7.87298968,10.5536332 7.39237245,10.2829372 6.43113798,9.74154515 L5.9983136,8.89515757 L4.58707952,8.87390997 L5.18361207,10.8377021 L7.87298968,12.0480288 L10.8955882,10.8062002 L11.8275644,2.79410815 L4.10636941,2.79410815 Z"/>
</svg>
