<svg xmlns="http://www.w3.org/2000/svg" viewBox="0 0 16 16">
  <path fill="#F05033" fill-rule="evenodd" d="M9.25,6.82508425 C9.25712682,6.81993712 9.26422154,6.81473902 9.27128329,6.80949079 L11.0193528,8.25841287 C11.0066188,8.33706026 11,8.41775718 11,8.5 C11,9.32842712 11.6715729,10 12.5,10 C13.3284271,10 14,9.32842712 14,8.5 C14,7.67157288 13.3284271,7 12.5,7 C12.1604214,7 11.8471981,7.11284054 11.5957811,7.30307067 L9.93121189,5.91806932 C9.97567155,5.78167121 10,5.64098821 10,5.5 C10,4.67157288 9.32842712,4 8.5,4 C8.27855139,4 8.04716777,4.06142166 7.82698443,4.16725125 L6.30193218,2.89833472 L5.49472952,3.67921939 L6.97127413,4.90308264 C6.80571765,5.14778273 6.70410865,5.4195286 6.70410865,5.68800303 C6.70410865,6.31729935 7.16520493,6.83203094 7.75,7.04312525 L7.75,10.2006733 C7.30164897,10.4600304 7,10.9447882 7,11.5 C7,12.3284271 7.67157288,13 8.5,13 C9.32842712,13 10,12.3284271 10,11.5 C10,10.9447882 9.69835103,10.4600304 9.25,10.2006733 L9.25,6.82508425 Z M9.31843299,1.27969076 L15.8765099,7.89810577 C16.2652418,8.29041425 16.2623425,8.92357259 15.870034,9.31230451 C15.86926,9.31307142 15.8684848,9.31383706 15.8677083,9.31460143 L9.30972155,15.7704547 L9.30972155,15.7704547 C8.92332866,16.1508299 8.30419393,16.1539836 7.91394616,15.7775644 L1.22083177,9.32162218 L1.22083177,9.32162218 C0.823328171,8.93820422 0.811909504,8.30514221 1.19532747,7.90763861 C1.20079971,7.90196533 1.20633884,7.89635695 1.2119437,7.89081465 L7.90496795,1.27248856 L7.90496795,1.27248856 C8.29739089,0.884445301 8.92998481,0.887668631 9.31843299,1.27969076 L9.31843299,1.27969076 Z" transform="translate(-1 -1)"/>
</svg>
