<svg xmlns="http://www.w3.org/2000/svg" viewBox="0 0 16 16">
  <path fill="#D92B2A" fill-rule="evenodd" d="M5.15431652,10.9411353 C6.83076147,10.2226979 7.52848145,10.108219 9.24621966,9.78158512 C9.21744296,9.76124845 7.72295787,7.94349472 7.20026809,6.86795849 C6.86869396,7.78159111 6.47103732,8.4142769 5.82078361,9.67197433 C5.4849113,10.3188036 5.45749195,10.3902548 5.15431652,10.9411353 Z M4.54467161,9.57963745 C4.86938911,8.92856821 5.43010138,7.69160092 6.22680842,5.8687356 C5.64808875,3.61574708 5.46854516,1.99770321 5.6826887,0.807195844 C5.77512615,0.293300006 6.71525473,0.0029372291 7.46591322,4.52798403e-16 C8.21657171,-0.0029372291 9.07884232,0.707232735 9.10370599,0.963087929 C8.81138577,2.2056803 8.21657171,2.20804472 8.21657171,2.20804472 C8.21657171,1.91721495 8.17944915,1.63881016 8,1.23318743 C7.79092409,0.763808279 7.4513301,0.773143534 7.27234147,0.728545448 C7.18207963,0.790417441 7.05451569,0.860426578 7.02442841,1.10634419 C6.96225826,1.45103715 7.02442841,1.48006889 7.02442841,1.7043156 C7.02442841,2.49703087 7.02028373,3.37202359 7.32008201,4.4505435 C7.37657242,4.28345771 7.42630854,4.12312445 7.46591322,3.97284146 C7.52746935,3.73587487 8.38890613,2.07630341 8.43541861,2.20804472 C8.44972559,2.24856762 9.04919759,2.77224103 9.01356059,3.06749046 C8.8184242,4.68417867 8.09436901,5.41955279 8.06044406,5.5549174 C8.55473513,6.96807999 9.074268,7.5761485 10.0244735,8.48381377 C10.3990295,8.84216881 10.5641671,9.11195256 11.0120992,9.37530112 C11.9900893,9.23224177 13.0745025,9.07928307 13.82561,9.08792002 C14.8223279,9.10126804 15.4811038,9.74389659 15.7773714,10.0422641 C15.9224351,10.1875219 15.9813816,10.3626165 15.9996489,10.5590679 C16.0039471,10.6357013 15.9675661,10.8151929 15.9568206,10.860105 C15.9675661,10.8057707 15.5386665,10.4918567 14.7385904,10.2307067 C14.1084461,10.0245191 13.6286265,10.0764978 12.2134497,10.2307067 C13.8501364,11.0496469 14.4185675,11.1850115 14.923911,10.9411353 C15.0476373,10.8795774 15.9529829,10.9411353 15.9529829,10.9411353 C15.9529829,10.9411353 15.8639491,11.355238 15.8000904,11.4587244 C15.7184249,11.5711618 15.075729,12.0040779 14.923911,12.0452212 C14.1258305,12.2630295 12.9341233,11.8002819 11.1230531,10.7415485 C9.09968335,11.0463544 6.54785755,11.572104 4.76672114,12.1697812 C3.12065391,15.35595 2.32928527,16.2608367 0.556123239,15.8858696 L0.162532465,15.6834508 C0.0025786479,15.5898577 0.0331580453,15.364821 0.0151661844,15.1763832 C-0.0663638106,14.3224785 0.140387951,13.1093247 1.6785235,12.1697812 C1.84415706,12.067237 3.62256984,11.2759364 3.62256984,11.4587244 C3.62256984,11.6415124 2.41989655,12.7530868 2.2920256,12.8592428 C1.06428028,13.8884535 0.742565651,14.9570677 1.42602374,14.9687345 C1.88166246,14.9765123 2.92121175,13.1801466 4.54467161,9.57963745 Z"/>
</svg>
