<svg xmlns="http://www.w3.org/2000/svg" viewBox="0 0 16 16">
  <g fill="none" fill-rule="evenodd" transform="translate(1 1)">
    <path fill="#5881D8" d="M12.165517,9.85715893 C12.6347735,9.01058958 12.9019608,8.03649726 12.9019608,7 C12.9019608,3.74043706 10.2595629,1.09803922 7,1.09803922 C5.03170105,1.09803922 3.2884447,2.06156111 2.21616436,3.54267147 C2.01363729,3.82241636 4.63929518,3.35008396 5.32138225,3.92623563 C6.63784271,5.03823573 7.41604814,8.61311165 8.45395614,9.69477003 C9.1458948,10.4158756 10.3830817,10.4700052 12.165517,9.85715893 Z"/>
    <path fill="#63B132" d="M7,12.9019608 C9.17889615,12.9019608 11.0820168,11.7212255 12.1044301,9.96468686 C12.2829245,9.65802795 9.97284201,10.9103605 8.55146364,9.66556432 C7.11839069,8.41052645 6.56700044,4.65621182 5.03863377,3.83186978 C4.19712849,3.37799428 3.29632087,3.22824319 2.33621092,3.38261652 C1.56013157,4.38174664 1.09803922,5.6369096 1.09803922,7 C1.09803922,10.2595629 3.74043706,12.9019608 7,12.9019608 Z"/>
    <path fill="#91DC47" d="M7,9.95098039 C7.55102838,9.95098039 8.06678228,9.79995242 8.50812551,9.53703268 C7.5027085,8.49785291 7,7.65217535 7,7 C7,5.37021853 5.68958744,4.35284073 5.59159155,4.40616344 C4.67267983,4.90617282 4.04901961,5.88025458 4.04901961,7 C4.04901961,8.62978147 5.37021853,9.95098039 7,9.95098039 Z"/>
    <path fill="#90B4FE" d="M8.69892614,9.47291889 C9.48478679,8.93199092 10,8.02616271 10,7 C10,5.34314575 8.65685425,4 7,4 C6.51293523,4 6.05298056,4.11607213 5.64628812,4.32206427 C5.58486616,4.35317485 6.49387272,5.4873003 7,7 C7.32819221,7.98089212 8.21592703,9.80537952 8.69892614,9.47291889 Z"/>
    <path fill="#EDF2F7" d="M4.99108173,9.06693405 C4.97711087,8.44198574 5.45137455,7.59899878 6.41387277,6.53797317 C6.25850062,5.57181025 5.8631776,4.96427357 5.4255321,4.5852691 C4.63803352,5.09978707 4.11764706,5.98912215 4.11764706,7 C4.11764706,7.81069503 4.45233776,8.54321887 4.99108173,9.06693405 Z M6.17255318,9.7618222 C6.43464258,9.84023188 6.71240234,9.88235294 7,9.88235294 C7.3540879,9.88235294 7.69326317,9.81850443 8.00664083,9.7016924 C7.39239679,9.15243547 6.88120149,8.37794416 6.59074942,7.36063067 C6.08558045,8.00065775 5.9461817,8.80105493 6.17255318,9.7618222 Z M1.83092848,4.47846109 C1.45883915,5.23980442 1.25,6.09551371 1.25,7 C1.25,10.1756373 3.82436269,12.75 7,12.75 C8.788479,12.75 10.3862457,11.9334634 11.4408437,10.6528467 C10.8013216,10.789982 10.1724205,10.7648959 9.55414029,10.5775885 C9.39312623,10.5288095 9.23276647,10.4689296 9.07447423,10.3977376 C8.47037588,10.7673561 7.76006656,10.9803922 7,10.9803922 C4.80169011,10.9803922 3.01960784,9.19830989 3.01960784,7 C3.01960784,5.82233635 3.53104522,4.76412529 4.34392856,4.03535826 C4.16161629,3.99298085 4.00995492,3.97970852 3.91299627,3.97970852 C3.57454459,3.97970852 2.52333511,3.85329487 1.83092848,4.47846109 Z M3.12708584,2.74988506 C3.57306835,2.63039332 4.0098042,2.69270171 4.43729339,2.93681022 C4.69139049,3.08190691 4.94836236,3.24510584 5.20399345,3.44687384 C5.74356859,3.173594 6.3538016,3.01960784 7,3.01960784 C9.19830989,3.01960784 10.9803922,4.80169011 10.9803922,7 C10.9803922,8.01165817 10.6029786,8.93516667 9.98127018,9.6374068 C10.2469746,9.66040153 10.5306176,9.64930805 10.8321993,9.60412639 C11.5577149,9.29533212 12.1177294,8.97450855 12.5122428,8.64165566 C12.6669357,8.12146163 12.75,7.57043117 12.75,7 C12.75,3.82436269 10.1756373,1.25 7,1.25 C5.50814053,1.25 4.14897984,1.81815099 3.12708584,2.74988506 Z M6.03861935,4.28186927 C6.5562294,4.93346072 7.04766789,5.85227486 7.47440128,7.22539607 C7.77111555,8.18014828 8.21627243,8.85281956 8.80987194,9.24340991 C9.46400566,8.71502408 9.88235294,7.90636716 9.88235294,7 C9.88235294,5.40812043 8.59187957,4.11764706 7,4.11764706 C6.66289214,4.11764706 6.33930094,4.17551878 6.03861935,4.28186927 Z M7,14 C3.13400675,14 0,10.8659932 0,7 C0,3.13400675 3.13400675,0 7,0 C10.8659932,0 14,3.13400675 14,7 C14,10.8659932 10.8659932,14 7,14 Z"/>
  </g>
</svg>
