<svg xmlns="http://www.w3.org/2000/svg" viewBox="0 0 16 16">
  <path fill="#F9DC3E" d="M12.5303445,7.899048 C12.4344913,7.72409452 12.4186879,7.39992224 11.7966881,6.69186988 C11.785116,6.55501942 11.7958482,6.53588672 12.2442666,6.27706085 L13.7293521,4.89912807 C14.0128683,4.52427682 13.9450326,3.95120984 14,3.12415708 L13.9826419,2.93078144 C13.9334605,2.34767949 13.7773443,1.87306376 13.0049073,1.51011255 C12.5478098,1.19178649 11.4714983,1.02677509 10.2853591,1 C9.30173139,1.08627529 7.99683994,1.31392706 6.41724963,1.94165415 C5.98329625,2.26593023 5.36548646,2.61245537 4.81002614,2.93078144 L4.96219758,3.13903213 C4.99980687,3.13605712 5.04898825,3.11523205 5.10974173,3.07953193 C5.17338822,3.07358191 5.20810449,3.10333201 5.21389054,3.16283221 L5.31225331,3.10630702 L5.36143469,3.10333201 L5.36432771,3.15093217 C5.36722073,3.19853233 5.02295105,3.47520825 4.32573262,3.98095994 L4.38070005,4.07021023 L4.33151866,4.07318524 L4.22447683,4.03451012 C4.22736985,4.06426021 4.17818847,4.08508528 4.07693268,4.09401031 L4.08271873,4.14756049 L4.19843963,4.27846093 C4.16083033,4.28143594 4.10875593,4.2695359 4.04221641,4.24573582 C3.81656065,4.26656089 3.59669094,4.43316144 3.37971425,4.7485125 L3.43468168,4.83776279 C3.62272814,4.6592622 3.732663,4.5700119 3.76448625,4.56703689 L3.77605834,4.71281238 C3.74423509,4.71578739 3.6950537,4.73661246 3.62851419,4.77231257 L3.84375661,4.99803581 C4.07230539,4.74515996 4.32399835,4.52798424 4.59883549,4.34650863 C4.73480755,4.38220875 4.80713311,4.4268339 4.81002614,4.47443406 L4.91417495,4.46550903 C5.66057476,3.89728214 5.97138948,3.74479262 6.70332419,3.49191678 L6.71200325,3.59306712 C6.57603119,3.80131781 6.55284312,3.75772681 6.50366174,3.76367683 C6.50944778,3.83507706 6.53259196,3.89755227 6.5759873,3.95110245 C6.58755939,4.07902788 6.25601956,4.91731014 5.58194531,6.51191546 C4.05153639,10.2187778 2.81127143,12.5429497 1.76689029,14.3160557 C1.76978332,14.3517558 1.81153975,14.606635 2.04313783,14.7534708 C2.30061684,14.6909956 2.4626261,14.6255454 2.53205864,14.5630702 L2.58702607,14.5571202 L2.59570514,14.6582705 L2.69117488,14.6493455 C2.67259656,14.7140974 2.82425392,14.6374455 2.89079344,14.6314954 L2.5898439,14.8279572 C2.59852296,14.9261326 2.70473021,15.0013448 2.58900931,15.2066205 C2.4848605,15.3285959 2.52048655,15.5626735 2.40187263,15.9523998 L2.40476565,16 L2.50023539,15.991075 C2.91683064,15.5120984 3.17890714,15.24852 3.39588383,14.7903685 C4.61095329,14.4244423 5.86141073,13.8895235 6.50366174,13.5354973 C7.14880576,13.4789722 7.36919233,13.2719159 7.70478295,12.9833399 L7.6989969,12.9297898 L7.45598301,13.004165 L7.40101558,13.010115 L7.39522954,12.9565649 C7.86968523,12.8821896 8.06862442,12.9770043 8.25088484,12.8282538 C9.17375903,12.0964014 9.99323028,11.5768613 10.464793,11.2704353 C11.4339555,10.5385829 12.2350363,9.60537829 12.5214456,8.91220098 C12.8298721,8.38939092 12.6311504,8.22629909 12.5303445,7.899048 Z M3.96699782,4.44208647 L3.91781644,4.44506148 L3.90913737,4.35283618 L4.10875593,4.33498612 L4.11164895,4.38258628 C4.0798257,4.38556129 4.03064432,4.40341134 3.96699782,4.44208647 Z M2.99204923,14.4708449 C2.87632832,14.4172947 2.77217951,14.3964697 2.68249581,14.4053947 L2.67092372,14.2596192 C2.66513768,14.203094 2.69696093,14.1644189 2.76639347,14.1495438 C2.83003996,14.1435938 2.86764926,14.191194 2.8734353,14.2863943 C3.04123061,14.0751686 3.13380733,13.9680682 3.15116547,13.9650932 L3.2582073,14.0097184 C3.22349103,14.3072194 3.13380733,14.4589449 2.99204923,14.4708449 Z M13.4098234,3.26398255 C13.360642,3.26993257 13.2622793,3.11225704 13.1205211,2.799881 L13.1118421,2.70765569 C13.2044188,2.69873066 13.2998885,2.85343118 13.4011443,3.17175724 L13.4098234,3.26398255 Z M13.2709583,2.15430385 L13.230456,2.25247917 L11.815768,1.64557715 C12.7588933,1.67830226 13.2449211,1.84787783 13.2709583,2.15430385 Z M7.29686677,7.42899643 L7.09724821,7.44684649 L7.08856915,7.35462118 L7.2881877,7.33677112 L7.29686677,7.42899643 Z M7.18403889,4.25763586 L7.19561098,4.40341134 C7.14932262,4.40638635 7.08856915,4.47778659 7.01335056,4.61463705 L7.00467149,4.51348671 C7.09435519,4.40341134 7.14064355,4.32011107 7.13485751,4.26061087 L7.18403889,4.25763586 Z M6.7401009,5.27806426 L6.76618786,5.4714399 L6.69227481,5.47441491 L6.66618786,5.28103927 L6.7401009,5.27806426 Z M6.49549953,5.64101547 L6.59096927,5.63209044 C6.5822902,5.79274098 6.53889486,5.87901626 6.46078325,5.88496628 L6.41160187,5.88794129 C6.47235534,5.78084094 6.50128557,5.69754066 6.49549953,5.64101547 Z M6.38556467,6.14081714 L6.38845769,6.18841729 L6.29877399,6.34311781 L6.20330425,6.35204284 L6.20041123,6.30444268 C6.29588097,6.29551765 6.33927631,6.24494248 6.33059724,6.14676716 L6.38556467,6.14081714 Z M6.17022521,6.60194367 L6.14081345,6.84589449 L6.09081345,6.8488695 L6.07022521,6.60789369 L6.17022521,6.60194367 Z M4.54560233,11.3470845 C4.48195584,11.6802856 4.41252329,11.8498612 4.34019773,11.8558112 L4.33730471,11.808211 C4.31994657,11.6445855 4.38937911,11.489885 4.54560233,11.3470845 Z M4.25613882,12.0105117 L4.25931343,12.0581119 C4.26566263,12.1235621 4.2339166,12.1622372 4.16407533,12.1652122 L4.16090073,12.1176121 C4.15455152,12.0610869 4.18629755,12.0253868 4.25613882,12.0105117 Z M4.31126751,13.3730662 L4.31705355,13.4266164 C4.27944426,13.4295914 4.23026287,13.4504165 4.1695094,13.4861166 L4.07403966,13.4950417 C4.06825361,13.4444665 4.10007686,13.4057914 4.16083033,13.3879413 L4.31126751,13.3730662 Z M6.95259709,12.9000397 C6.03840196,13.2272908 5.58419742,13.4295914 5.59287649,13.5099167 C4.77993716,13.8401428 4.24472799,14.0840936 3.98724898,14.2358191 C3.92649551,14.2417691 3.83970483,14.2179691 3.72398393,14.1644189 C3.70951882,13.9948433 3.7847374,13.8579929 3.94385364,13.7479175 C4.08561175,13.7360175 4.22158381,13.7568425 4.35176982,13.8133677 C4.50220699,13.7330424 4.76547205,13.6437921 5.13867195,13.5485918 L5.12999289,13.4474415 L4.82911854,13.4742166 C4.86672783,13.4206664 5.15603009,13.2808409 5.69991833,13.0547402 L5.8503555,13.0398651 L5.85324852,13.0874653 C5.59576951,13.1112654 5.45401141,13.1886156 5.42218816,13.3284411 C5.42797421,13.3909163 5.46269048,13.4176914 5.52633697,13.4117414 C5.72016948,13.286791 5.81563923,13.2124157 5.81274621,13.1915906 C6.18016007,13.1201904 7.19561098,12.5727886 8.85909894,11.5523602 L8.86777801,11.6445855 C8.87067103,11.6892106 8.72891293,11.814161 8.4425037,12.0283618 C7.59774111,12.4567632 7.10014124,12.7483142 6.95259709,12.9000397 Z M6.51575068,12.5936136 C6.58518322,12.5876636 6.62279252,12.6144387 6.62568554,12.6769139 C6.50707162,12.688814 6.27852283,12.7899643 5.94582524,12.986315 L5.89664386,12.98929 L5.89085781,12.8911146 C6.13387171,12.8702896 6.34216933,12.7691392 6.51575068,12.5936136 Z M8.87814526,10.430648 C7.92923386,11.0702751 7.40689388,11.381569 7.33167529,11.387519 C5.82151753,12.2413469 5.22863899,12.4168208 4.86411815,12.449546 L4.80915073,12.455496 C4.85543909,12.2799704 5.45879001,11.1596589 6.76065015,8.5 C7.33346861,8.44942483 7.67647867,8.41214401 8.87814526,8.07962835 L9.40045575,8.00741297 C10.0224556,7.95088778 10.2197881,7.92126738 10.5264485,8.21876837 L10.5438066,8.41214401 C10.3152578,9.09342128 10.3317254,9.22140102 10.0600345,9.51562203 L8.87814526,10.430648 Z M7.51384346,8.20597166 L7.71924806,8.17869893 L7.72214108,8.2514262 L7.51673648,8.27869893 L7.51384346,8.20597166 Z M10.5486241,7.67889726 C10.6874892,7.74732249 10.7598148,7.80682269 10.7656008,7.86037287 L10.7684938,7.90797303 C10.6354148,7.91987307 10.5110148,7.84847283 10.3981869,7.69377231 L10.5486241,7.67889726 Z M10.8061031,5.30483935 C10.6730241,5.46846489 10.3085032,5.74811583 9.71254059,6.14081714 C9.51581506,6.1586672 8.78388036,6.45021817 7.51673648,7.02142007 C7.45308999,6.99166997 7.38655047,6.97976993 7.3142249,6.98571995 L7.30554584,6.89349464 C7.29108072,6.70606902 7.37208536,6.47104324 7.55145275,6.18544228 C7.64981552,5.6499405 7.75685735,5.34351448 7.87547128,5.26913923 L8.93142451,2.82665609 C8.91985242,2.67493058 9.14550817,2.5589052 9.60839178,2.47857993 L9.75882895,2.46370488 L9.77040104,2.60353035 C10.2246056,2.53213011 10.5081218,2.49047997 10.6180566,2.48155494 C11.4570332,2.40717969 11.8938796,2.58270528 11.9285959,3.00218167 L12.0240656,2.99325664 L12.0038144,2.74633082 L12.1079633,2.73740579 C12.3538702,2.87723126 12.4869492,3.04680682 12.5043073,3.24613249 C12.5158794,3.38298294 12.4435539,3.55255851 12.2902237,3.75485918 C12.2265772,3.7608092 12.1889679,3.71320904 12.1831818,3.61800873 L12.079033,3.62693376 L12.0558889,3.92443475 C11.6306145,4.57893693 11.3210611,4.91511305 11.1301216,4.93296311 C10.9565403,5.17988893 10.8494985,5.30186434 10.8061031,5.30483935 Z M11.2458425,6.93216977 L11.2342704,6.78639429 L11.3297402,6.77746926 L11.5409308,6.90539468 C11.5496099,6.97381991 11.5206797,7.00952003 11.4541402,7.01547005 C11.3673495,6.95596985 11.2979169,6.92919476 11.2458425,6.93216977 Z M12.2844376,7.95259818 L12.2381493,7.96449821 L12.2410423,7.96747322 C12.2323632,7.96747322 12.2207911,7.97044823 12.2121121,7.97342324 L12.1426795,8.02994843 L12.1253214,7.83359778 C12.2178981,7.87227291 12.2728655,7.91392305 12.2844376,7.95259818 Z M12.1889679,8.27572392 L12.1802888,8.21920218 L12.3017958,8.17572392 L12.3104748,8.23224566 L12.1889679,8.27572392 Z"/>
</svg>
