<svg xmlns="http://www.w3.org/2000/svg" viewBox="0 0 16 16">
    <g>
        <g>
            <path d="M4.8182 3H3.00002C2.74911 3 2.54547 3.20364 2.54547 3.45455V12.5455C2.54547 12.7964 2.74911 13 3.00002 13H4.8182V3Z" fill="#E75A5A"/>
            <path fill-rule="evenodd" clip-rule="evenodd" d="M5.72729 3V13H13C13.2509 13 13.4546 12.7964 13.4546 12.5455V3.45455C13.4546 3.20364 13.2509 3 13 3H5.72729ZM7.54545 4.81818H8.90909V5.72727H7.54545V4.81818ZM7.54545 11.1818H8.90909V10.2727H7.54545V11.1818ZM10.2727 9.36364H8.45455V8.45455H10.2727V9.36364ZM8.90909 7.54545H11.6364V6.63636H8.90909V7.54545Z" fill="#69A7D3"/>
        </g>
    </g>
</svg>
