<svg xmlns="http://www.w3.org/2000/svg" viewBox="0 0 16 16">
  <g fill="none" fill-rule="evenodd">
    <g transform="translate(1)">
      <path fill="#A375E6" d="M7.73592008,0.266586306 L13.2009996,3.39915762 L13.2009996,3.39915762 C13.6951837,3.68242284 14,4.20848323 14,4.7780946 L14,11.1796509 L14,11.1796509 C14,11.7463882 13.6982262,12.2702492 13.2079683,12.5545699 L7.74295013,15.7239595 L7.74295013,15.7239595 C7.24606718,16.0121224 6.63236615,16.0097734 6.13770369,15.7178152 L0.781529831,12.5565103 L0.781529831,12.5565103 C0.297203441,12.2706526 -1.53171242e-16,11.7501292 -2.22044605e-16,11.1877355 L3.29225625e-16,4.77003304 L1.11022302e-15,4.77003304 C7.8995584e-16,4.20474315 0.300247095,3.68199251 0.788528177,3.39715178 L6.14464071,0.27264202 L6.14464071,0.27264202 C6.63579652,-0.0138756916 7.24259781,-0.0161849121 7.73592008,0.266586306 Z"/>
      <path fill="#7F31F2" d="M13.8203049,11.9636164 C13.6978965,12.1863096 13.5174502,12.3750886 13.2930032,12.5052547 L7.62830548,15.7904466 C7.20070249,16.0384313 6.67748196,16.0364015 6.25171459,15.7851064 L0.697869221,12.5071324 C0.442312446,12.3562984 0.244765587,12.1292027 0.126103184,11.8628958 C3.09447837,10.1574879 5.32075975,8.87843195 6.80494734,8.02572801 L13.8203049,11.9636164 Z"/>
      <path fill="#6247BC" d="M13.0771216,3.84943315 C13.1924961,4.05982903 14,4.44583963 14,4.69591571 L14,11.2612533 C14,11.5117903 13.936137,11.7528873 13.8203049,11.9636164 C13.3503394,12.2988309 11.0118868,10.9862014 6.80494734,8.02572801 L13.0771216,3.84943315 Z"/>
      <path fill="#FFFFFF" d="M11.1645802,5.23203527 C10.2685214,3.88654696 8.73779276,3 7,3 C4.23857625,3 2,5.23857625 2,8 C2,10.7614237 4.23857625,13 7,13 C8.65579128,13 10.1235989,12.1951463 11.0335383,10.9553234 L8.90509998,9.61890225 C8.44653702,10.1580043 7.7632072,10.5 7,10.5 C5.61928813,10.5 4.5,9.38071187 4.5,8 C4.5,6.61928813 5.61928813,5.5 7,5.5 C7.82588273,5.5 8.55823014,5.90047236 9.01344561,6.5178205 L11.1645802,5.23203527 Z"/>
    </g>
    <path fill="#FFFFFF" d="M11.4660175,8.38633213 L11.551919,7.61654757 L11.1304348,7.61654757 L11.173913,7.00071992 L11.6206402,7.00071992 L11.6792675,6.47534634 L12.0434783,6.47534634 L11.9843565,7.00071992 L12.4032489,7.00071992 L12.4618762,6.47534634 L12.826087,6.47534634 L12.7669652,7.00071992 L13,7.00071992 L12.9565217,7.61654757 L12.6976643,7.61654757 L12.6110382,8.38633213 L12.8695652,8.38633213 L12.826087,9.00215977 L12.5417374,9.00215977 L12.4782609,9.56623037 L12.1169594,9.56623037 L12.1799049,9.00215977 L11.7591287,9.00215977 L11.6956522,9.56623037 L11.3343507,9.56623037 L11.3972962,9.00215977 L11,9.00215977 L11.0434783,8.38633213 L11.4660175,8.38633213 Z M11.8284295,8.38633213 L12.2486262,8.38633213 L12.3345277,7.61654757 L11.9150556,7.61654757 L11.8284295,8.38633213 Z"/>
  </g>
</svg>
