<svg xmlns="http://www.w3.org/2000/svg" viewBox="0 0 24 24">
  <path fill="#ebba16" fill-rule="nonzero" d="M10.97207973 6.5097975V4.63340827c0-.34980337-.31172451-.63341077-.69620773-.63341077H2.69620773C2.31172451 3.9999975 2 4.2836049 2 4.63340827V9.3333225h20.000024V7.14320828c0-.34980338-.31172451-.63341078-.69620773-.63341078H10.97207973z"/>
  <path fill="#efce4a" fill-rule="nonzero" d="M21.30395229 19.99995316H2.69599574c-.3839991 0-.69599838-.28399933-.69599838-.63299852V9.33297807h19.9999533v10.03397657c0 .34899919-.31199927.63299852-.69599837.63299852zm-3.76499121-8.99997898h-.92399785l-.11899972.62199855c-.13499968.69799837-.9399978 1.03199759-1.52899643.63299852l-.52399877-.35499917-.65199848.65199847.3019993.41199904c.42999899.58699863.10299975 1.42099668-.61199858 1.55899636l-.48099887.09199979v.92399784l.50499882.07699982c.71899832.11099974 1.07699748.93299782.66899843 1.53499641l-.27499935.40599906.65299847.65199847.41199904-.3019993c.58699863-.42999899 1.42099668-.10299975 1.55799636.61199858l.09299978.48099888h.92299785l.05499987-.35499917c.11299974-.73499829.96499775-1.08799746 1.56499635-.6479985l.28899932.21199951.65299848-.65199847-.27499936-.40599906c-.40799905-.60199859-.04899989-1.42399667.66899844-1.53499641l.50499882-.07699982v-.92399784h.001l-.48099888-.09299979c-.71499833-.13699968-1.04199757-.97199773-.61199857-1.55799636l.3019993-.41199904-.65199849-.65299847-.40599905.27499936c-.6019986.40799904-1.42399667.04999988-1.53499641-.66899844l-.07699982-.50499882z"/>
  <circle cx="48.39" cy="44.695" r="4" fill="#efce4a" transform="matrix(.33335 0 0 .33335 .869161 .100879)"/>
</svg>
