<svg xmlns="http://www.w3.org/2000/svg" viewBox="0 0 24 24">
  <path fill="#efce4a" fill-rule="nonzero" d="M17.97381595 20.000025H2.53970425c-.3551718 0-.61344723-.33293663-.52068877-.6716605l3.50551129-9.48801304c.06344816-.23217054.27689608-.39353246.52068877-.39353246h15.43411169c.35517181 0 .52068877.33497918.52068877.6716605l-3.50551128 9.48801304c-.06344817.23217054-.27689608.39353246-.52068877.39353246z"/>
  <path fill="#ebba16" fill-rule="nonzero" d="M19.33381364 6.382985H10.620725L8.89659 4.000003H2.59729036c-.3296546 0-.59724036.26383015-.59724036.58961783v14.54572213c.02379306.00068085.04758613.00204256.07068954.00340426l3.4534424-9.29839576c.06344817-.23251096.27689608-.39353246.52068877-.39353246H19.931054V6.97260283c0-.32578768-.26758575-.58961783-.59724036-.58961783z"/>
</svg>
