<svg xmlns="http://www.w3.org/2000/svg" viewBox="0 0 24 24" fill="#000">
    <g transform="matrix(0.228588,0,0,0.228588,0.779785,1.30213)">
        <path d="M27.5,4.969C20.368,4.969 14.531,10.899 14.531,18.031C14.531,23.767 18.308,28.642 23.5,30.344L23.5,69.625C18.308,71.341 14.531,76.295 14.531,82.031C14.531,89.164 20.368,95 27.5,95C34.632,95 40.5,89.164 40.5,82.031C40.5,76.295 36.692,71.341 31.5,69.625L31.5,69C31.5,63.071 33.315,60.76 36.656,58.656C39.997,56.553 45.258,55.263 50.938,53.875C56.617,52.487 62.777,50.97 67.875,47.156C72.507,43.691 75.836,38.076 76.406,30.375C81.646,28.702 85.5,23.802 85.5,18.031C85.5,10.899 79.632,4.969 72.5,4.969C65.368,4.969 59.531,10.899 59.531,18.031C59.531,23.732 63.263,28.582 68.406,30.312C67.984,35.795 66.012,38.574 63.062,40.781C59.723,43.28 54.633,44.763 49.062,46.125C43.492,47.487 37.503,48.697 32.406,51.906C32.1,52.099 31.796,52.288 31.5,52.5L31.5,30.344C36.692,28.642 40.5,23.767 40.5,18.031C40.5,10.899 34.632,4.969 27.5,4.969ZM27.5,13C30.309,13 32.531,15.222 32.531,18.031C32.531,20.84 30.309,22.969 27.5,22.969C24.691,22.969 22.5,20.84 22.5,18.031C22.5,15.222 24.691,13 27.5,13ZM72.5,13C75.309,13 77.531,15.222 77.531,18.031C77.531,20.84 75.309,22.969 72.5,22.969C69.691,22.969 67.5,20.84 67.5,18.031C67.5,15.222 69.691,13 72.5,13ZM27.5,77C30.309,77 32.531,79.222 32.531,82.031C32.531,84.84 30.309,86.969 27.5,86.969C24.691,86.969 22.5,84.84 22.5,82.031C22.5,79.222 24.691,77 27.5,77Z" />
    </g>
</svg>
