<svg xmlns="http://www.w3.org/2000/svg" viewBox="0 0 24 24" fill="#fff">
    <path d="M 7 2 C 5.355469 2 4 3.355469 4 5 C 4 6.292969 4.84375 7.394531 6 7.8125 L 6 16.1875 C 4.84375 16.605469 4 17.707031 4 19 C 4 20.644531 5.355469 22 7 22 C 8.644531 22 10 20.644531 10 19 C 10 17.707031 9.15625 16.605469 8 16.1875 L 8 12.375 C 8.390625 12.847656 8.828125 13.277344 9.28125 13.65625 C 10.824219 14.949219 12.59375 15.730469 14.1875 15.9375 C 14.589844 17.121094 15.6875 18 17 18 C 18.644531 18 20 16.644531 20 15 C 20 13.355469 18.644531 12 17 12 C 15.742188 12 14.660156 12.796875 14.21875 13.90625 C 13.136719 13.695313 11.722656 13.09375 10.5625 12.125 C 9.277344 11.050781 8.292969 9.582031 8.0625 7.78125 C 9.183594 7.34375 10 6.269531 10 5 C 10 3.355469 8.644531 2 7 2 Z M 7 4 C 7.5625 4 8 4.4375 8 5 C 8 5.5625 7.5625 6 7 6 C 6.4375 6 6 5.5625 6 5 C 6 4.4375 6.4375 4 7 4 Z M 17 14 C 17.5625 14 18 14.4375 18 15 C 18 15.5625 17.5625 16 17 16 C 16.4375 16 16 15.5625 16 15 C 16 14.4375 16.4375 14 17 14 Z M 7 18 C 7.5625 18 8 18.4375 8 19 C 8 19.5625 7.5625 20 7 20 C 6.4375 20 6 19.5625 6 19 C 6 18.4375 6.4375 18 7 18 Z "></path>
</svg>
