<svg xmlns="http://www.w3.org/2000/svg" viewBox="0 0 24 24" fill="#fff">
  <path fill="#fff" fill-rule="nonzero" d="M4.045067 4.000001c-.80000024 1.87000056-.47692322 3.43077026-.19230775 4.28615513-1.14846188 1.2307696-1.85076979 2.92692396-1.85076979 5.18538617 0 5.59000168 3.5307703 7.4515407 10.000003 7.4515407 6.46923271 0 10.000003-1.86153902 10.000003-7.4515407.00076923-2.18153911-.74230791-3.88307809-1.9453852-5.13692462.17230775-.283077.40846166-.83538486.40846166-1.88230825 0-1.57538509-.52923092-2.45230843-.52923092-2.45230843-.82230794 0-2.75461621.33153856-4.352309 1.92153904-1.13461573-.28230778-2.34384686-.38307704-3.58000108-.38307704-1.21076959 0-2.3969238.06615387-3.51000105.31076932C8.4219914 5.78307846 6.4319908 4.000001 4.045067 4.000001zm4.11384739 7.3076945c1.00230799.01076923 2.65615464.38384627 3.84461653.3846155 1.1884619-.00076923 2.84077009-.37384627 3.84307808-.3846155 1.94000058 0 3.076924 1.5407697 3.076924 3.44077026 0 3.11692401-1.80230823 4.635386-6.91846361 4.63615524H12.000454c-5.11615538-.00076923-6.91846361-1.51923122-6.91846361-4.63615524 0-1.90000057 1.13692341-3.44077026 3.076924-3.44077026z"/>
</svg>
