<svg xmlns="http://www.w3.org/2000/svg" viewBox="0 0 16 16">
  <path fill="#4476C5" d="M14.8726287,7.01151631 C14.8726287,6.18809981 15.00271,5.7024952 15.00271,4.81573896 C15.00271,3.44337812 14.4823848,3 13.3333333,3 L12.4878049,3 L12.4878049,3.97120921 L12.7479675,3.97120921 C13.3333333,3.97120921 13.4634146,4.16122841 13.4634146,4.85796545 C13.4634146,5.51247601 13.398374,6.16698656 13.398374,6.92706334 C13.398374,7.89827255 13.7235772,8.27831094 14.3739837,8.42610365 L14.3739837,8.48944338 C13.7235772,8.63723608 13.398374,9.01727447 13.398374,9.98848369 C13.398374,10.7485605 13.4634146,11.3608445 13.4634146,12.0575816 C13.4634146,12.7754319 13.3116531,12.9654511 12.7479675,12.9654511 L12.4878049,12.9865643 L12.4878049,14 L13.3333333,14 C14.4823848,14 15.00271,13.5566219 15.00271,12.184261 C15.00271,11.2763916 14.8726287,10.8119002 14.8726287,9.98848369 C14.8726287,9.54510557 15.1544715,9.0806142 16,9.03838772 L16,7.94049904 C15.1544715,7.9193858 14.8726287,7.45489443 14.8726287,7.01151631 Z M10.3603304,8.21750152 C9.70992388,7.96414259 9.11432515,7.69937562 9.11432515,7.27711074 C9.11432515,6.96041209 9.37448775,6.77039289 9.85145252,6.77039289 C10.3284173,6.77039289 10.8935438,6.95788178 11.3705086,7.29569368 L12.2377172,6.17669176 C11.6957118,5.77554013 10.8487425,5.23621111 9.85145252,5.23621111 C8.37719778,5.23621111 7.35822759,6.17922207 7.35822759,7.34045048 C7.35822759,8.37499942 8.27902957,9.01980478 9.05951737,9.31539019 C9.7316041,9.56874912 10.5135328,9.77735125 10.5135328,10.1996161 C10.5135328,10.5163148 10.2533702,10.7274472 9.66800432,10.7274472 C9.1259989,10.7274472 8.58399348,10.5163148 7.99862762,10.0729367 L7.13141895,11.2975048 C7.78182545,11.8253359 8.77911543,12.184261 9.60296366,12.184261 C11.337381,12.184261 12.2696303,11.2975048 12.2696303,10.1362764 C12.2696303,8.97504798 11.2058588,8.49197369 10.3603304,8.21750152 Z M6.19303852,10.706334 C6.041277,10.706334 5.84615505,10.5796545 5.84615505,10.1785029 L5.84615505,4.03454894 L5.84615505,3.10556622 L5.84615505,3.02111324 L2.68834688,3 C1.51761518,3 0.997289973,3.44337812 0.997289973,4.81573896 C0.997289973,5.72360845 1.12737127,6.2303263 1.12737127,7.01151631 C1.12737127,7.45489443 0.845528455,7.9193858 0,7.96161228 L0,9.05950096 C0.845528455,9.0806142 1.12737127,9.54510557 1.12737127,9.98848369 C1.12737127,10.7696737 0.997289973,11.2341651 0.997289973,12.1420345 C0.997289973,13.5143954 1.51761518,13.9577735 2.66666667,13.9577735 L3.51219512,13.9577735 L3.51219512,12.9865643 L3.25203252,12.9865643 C2.7100271,12.9865643 2.53658537,12.7754319 2.53658537,12.0786948 C2.53658537,11.3819578 2.60162602,10.7907869 2.60162602,10.0095969 C2.60162602,9.03838772 2.27642276,8.65834933 1.62601626,8.51055662 L1.62601626,8.44721689 C2.27642276,8.29942418 2.60162602,7.9193858 2.60162602,6.94817658 C2.60162602,6.18809981 2.53658537,5.57581574 2.53658537,4.87907869 C2.53658537,4.18234165 2.68834688,3.99232246 3.25203252,3.99232246 L3.83739837,3.99232246 C3.83739837,5.3646833 3.83739837,10.0518234 3.83739837,10.0518234 C3.83739837,11.3397313 4.29268293,12.184261 5.61517615,12.184261 C6.02710027,12.184261 6.4315209,12.1420345 6.67000329,12.0575816 L6.45320112,10.6852207 C6.32311982,10.706334 6.25807917,10.706334 6.19303852,10.706334 Z"/>
</svg>
