<?xml version="1.0" encoding="UTF-8" standalone="no"?>
<svg width="100%" height="100%" viewBox="0 0 16 16" version="1.1" xmlns="http://www.w3.org/2000/svg" xmlns:xlink="http://www.w3.org/1999/xlink" xml:space="preserve" xmlns:serif="http://www.serif.com/" style="fill-rule:evenodd;clip-rule:evenodd;stroke-linejoin:round;stroke-miterlimit:2;">
    <g id="webpack_2" transform="matrix(1.34344,0,0,1.36364,-2.58161,-3.58078)">
        <path id="Shape" d="M7.876,3C7.755,3 7.639,3.03 7.546,3.091L2.972,5.336C2.787,5.422 2.666,5.589 2.666,5.782L2.666,11.218C2.666,11.411 2.787,11.578 2.972,11.664L7.546,13.909C7.639,13.97 7.755,14 7.876,14C7.998,14 8.114,13.97 8.206,13.909L12.78,11.664C12.966,11.578 13.087,11.411 13.087,11.218L13.087,5.782C13.087,5.589 12.966,5.422 12.78,5.336L8.206,3.091C8.114,3.03 7.998,3 7.876,3ZM7.876,4.088L11.929,6.08L11.929,7.144L11.92,7.144L11.92,10.647L11.929,10.647L11.929,10.92L7.876,12.912L3.823,10.92L3.823,6.08L7.876,4.088ZM5.039,6.571L7.876,5.14L10.713,6.571L7.876,8.002L5.039,6.571ZM4.981,7.709L4.981,9.519L7.297,10.687L7.297,8.876L4.981,7.709ZM8.455,8.876L10.771,7.709L10.771,9.519L8.455,10.687L8.455,8.876Z" style="fill:rgb(129,197,218);"/>
        <path id="Shape_2" d="M7.876,5.14L5.039,6.571L7.876,8.002L10.713,6.571L7.876,5.14ZM4.981,7.709L4.981,10.405L7.297,11.572L7.297,8.876L4.981,7.709ZM8.455,8.876L10.771,7.709L10.771,10.405L8.455,11.572L8.455,8.876Z" style="fill:rgb(95,124,227);"/>
    </g>
</svg>
