<svg xmlns="http://www.w3.org/2000/svg" viewBox="0 0 16 16">
  <path fill="#E25997" fill-rule="evenodd" d="M6.46971286,11.5359934 C6.61855959,12.1055471 6.60222579,12.6366703 6.44849884,13.1176692 C6.43141807,13.1710906 6.41259436,13.2239453 6.39217711,13.2761819 C6.37175986,13.3283154 6.34964948,13.3798823 6.32594555,13.4307794 C6.2073761,13.6852653 6.04827095,13.9234722 5.85341071,14.1433397 C5.25901976,14.8141726 4.42853568,15.0678342 4.07242897,14.854097 C3.6878875,14.6235143 3.88050682,13.6776925 4.56966369,12.924126 C5.31105885,12.1133259 6.37778544,11.5920421 6.37778544,11.5920421 C6.40686757,11.571642 6.43809103,11.5540238 6.46971286,11.5359934 Z M8.59265864,0.50774231 C6.895786,1.13143863 5.05878132,2.11023023 3.73793466,3.3882745 C2.16744978,4.90787423 1.91701479,6.23047927 2.02024639,6.78313592 C2.30618831,10.0182668 4.55827203,9.87786297 5.6200686,10.8235817 L5.66884131,10.9470286 C5.35576021,11.1064686 3.04408943,12.5101722 2.50781294,13.7366496 C1.94195634,15.0305606 2.97821378,15.7673096 3.41245382,15.8922858 C4.75795057,16.2795267 6.51585757,15.5369986 7.2578503,14.39207 C7.97389819,13.2871688 7.79666908,11.6886454 7.48548032,10.9789185 C7.91474054,10.8617726 7.77145897,10.9058115 8.40743139,10.9826724 C10.202008,11.1995005 10.1789579,12.2243224 10.1116308,12.7093394 C10.0443535,13.194511 10.0431021,13.5956339 9.91726211,13.6761524 C9.79137233,13.7567224 9.75297794,13.7845922 9.76358495,13.844453 C9.77882319,13.931514 9.83708705,13.9282685 9.94440211,13.9094654 C10.0921035,13.8837077 11.1263538,13.2897562 11.1603161,12.3942649 C11.2035907,11.2573212 9.94511767,9.90792716 8.08022601,9.94115456 C7.31218884,9.95485764 6.91405634,10.0170692 6.56522016,10.1513697 C6.5394247,10.1209757 6.51318107,10.0907362 6.48604107,10.0608058 C5.33311384,8.78832514 3.46673383,8.32545392 3.55711751,6.61478376 C3.5899843,5.99289048 3.82978519,4.8850571 7.68331697,2.8986768 C10.840023,1.27146151 12.5227855,1.46671985 12.9595154,2.45911151 C13.5833371,3.8768654 12.6364037,5.55625747 9.35814036,5.9363377 C8.10915246,6.08119886 7.21419693,6.09717838 7.05060994,5.91069282 C6.87835807,5.71436783 6.85271201,5.70550719 6.78842258,5.74234066 C6.68364723,5.80235604 6.75002819,5.97570519 6.78842258,6.07904497 C6.88627598,6.34254598 7.28794802,6.8098417 7.97272265,7.04227895 C8.57508131,7.24679488 10.2365524,7.56674366 12.0100146,6.85711975 C13.9962146,6.06228944 15.375518,3.80544579 14.9199643,1.95733268 C14.4566919,0.0777437016 11.4440022,-0.54013138 8.59265864,0.50774231 Z"/>
</svg>
