<svg xmlns="http://www.w3.org/2000/svg" viewBox="0 0 16 16">
  <g fill="none" fill-rule="evenodd" transform="translate(3)">
    <g fill="#89001C" transform="translate(0 2.426)">
      <path d="M0,7.36791758 L0,11.0495188 C0.159269731,10.9273009 0.639822449,10.8265948 1.44165815,10.7474005 C2.64441171,10.6286089 6.95554768,10.0329011 8.2790609,9.63819568 C9.16140305,9.37505871 9.73504941,9.05768644 10,8.68607886 L10,4.98360656 C9.6047202,5.42155537 9.03107384,5.7532184 8.2790609,5.97859565 C7.1510415,6.31666152 2.32799019,6.94680687 1.44165815,7.07152601 C0.850770125,7.15467211 0.370217407,7.2534693 0,7.36791758 Z" transform="matrix(1 0 0 -1 0 16.033)"/>
      <path d="M0,2.38431102 L0,6.06591228 C0.159269731,5.94369438 0.639822449,5.84298825 1.44165815,5.7637939 C2.64441171,5.64500237 6.95554768,5.04929457 8.2790609,4.65458912 C9.16140305,4.39145215 9.73504941,4.07407988 10,3.70247231 L10,0 C9.6047202,0.437948813 9.03107384,0.769611844 8.2790609,0.994989093 C7.1510415,1.33305497 2.32799019,1.96320032 1.44165815,2.08791946 C0.850770125,2.17106555 0.370217407,2.26986274 0,2.38431102 Z" transform="matrix(1 0 0 -1 0 6.066)"/>
    </g>
    <g fill="#EF2938">
      <path d="M0 7.36791758L0 11.0495188C.158272788 10.9273009.635817503 10.8265948 1.43263415 10.7474005 2.62785911 10.6286089 6.91200969 10.0329011 8.22723842 9.63819568 9.10405758 9.37505871 9.69497811 9.05768644 10 8.68607886L10 4.98360656C9.56546469 5.42155537 8.97454416 5.7532184 8.22723842 5.97859565 7.10627982 6.31666152 2.31341822 6.94680687 1.43263415 7.07152601.84544476 7.15467211.367900045 7.2534693 0 7.36791758zM0 12.2859504L0 15.9675516C.158272788 15.8453337.635817503 15.7446276 1.43263415 15.6654332 2.62785911 15.5466417 6.91200969 14.9509339 8.22723842 14.5562285 9.10405758 14.2930915 9.69497811 13.9757192 10 13.6041116L10 9.90163934C9.56546469 10.3395882 8.97454416 10.6712512 8.22723842 10.8966284 7.10627982 11.2346943 2.31341822 11.8648397 1.43263415 11.9895588.84544476 12.0727049.367900045 12.1715021 0 12.2859504zM0 2.38431102L0 6.06591228C.158272788 5.94369438.635817503 5.84298825 1.43263415 5.7637939 2.62785911 5.64500237 6.91200969 5.04929457 8.22723842 4.65458912 9.10405758 4.39145215 9.69497811 4.07407988 10 3.70247231L10 0C9.56546469.437948813 8.97454416.769611844 8.22723842.994989093 7.10627982 1.33305497 2.31341822 1.96320032 1.43263415 2.08791946.84544476 2.17106555.367900045 2.26986274 0 2.38431102z"/>
    </g>
  </g>
</svg>
