<svg viewBox="0 0 16 16" fill="none" xmlns="http://www.w3.org/2000/svg">
<g id="stylelint">
<g id="stylelint_2">
<path id="Shape" fill-rule="evenodd" clip-rule="evenodd" d="M8.08531 13.9215C9.39492 9.24659 9.35694 9.22541 10.3036 5.89214L10.5312 6.02337C10.6549 6.09469 10.7562 6.03637 10.7562 5.89411V4.30448C11.0074 3.42619 11.2042 2.74752 11.2619 2.54346H12.2875L13.9913 4.1191L12.8723 5.08444L13.7184 5.99764L8.1419 13.9214C8.11464 13.9662 8.07668 13.9559 8.08531 13.9214V13.9215Z" fill="#6B7394"/>
<path id="Shape_2" fill-rule="evenodd" clip-rule="evenodd" d="M10.3949 2.94327L8.87939 3.81663C8.89697 3.84333 8.90767 3.87408 8.90767 3.90762V4.72231C8.90767 4.76459 8.89124 4.80269 8.86418 4.83344L10.3949 5.71556C10.4992 5.77571 10.5848 5.7265 10.5848 5.60635V3.0526C10.5848 2.93233 10.4992 2.88327 10.3949 2.94327ZM7.10347 4.72226V3.9076C7.10347 3.87423 7.11417 3.84348 7.13155 3.81678L5.61606 2.94328C5.51177 2.88327 5.42626 2.93237 5.42626 3.05261V5.60633C5.42626 5.72645 5.51166 5.77578 5.61606 5.71542L7.14666 4.83322C7.11975 4.80246 7.10344 4.76445 7.10344 4.72217L7.10347 4.72226ZM8.69453 3.84513C8.7449 3.84513 8.78603 3.87293 8.78603 3.90743V4.72209C8.78603 4.7565 8.7449 4.78447 8.69456 4.78447H7.31696C7.26632 4.78447 7.22531 4.75662 7.22531 4.72209V3.90743C7.22531 3.87304 7.2663 3.84513 7.31696 3.84513H8.69456H8.69453Z" fill="#E75A5A"/>
<path id="Shape_3" fill-rule="evenodd" clip-rule="evenodd" d="M7.86586 13.9215H7.92246C6.61304 9.24659 6.65074 9.22541 5.70416 5.89214L5.47649 6.02337C5.35287 6.09469 5.25161 6.03637 5.25161 5.89411V4.30448C5.00033 3.42619 4.80356 2.74752 4.74572 2.54346H3.72019L2.01645 4.1191L3.1353 5.08444L2.2892 5.99764L7.86586 13.9215Z" fill="#6B7394"/>
<path id="Oval" fill-rule="evenodd" clip-rule="evenodd" d="M7.96236 6.4855C8.19081 6.4855 8.376 6.30063 8.376 6.07258C8.376 5.84454 8.19081 5.65967 7.96236 5.65967C7.73392 5.65967 7.54873 5.84454 7.54873 6.07258C7.54873 6.30063 7.73392 6.4855 7.96236 6.4855Z" fill="#8E95B4"/>
<path id="Oval_2" fill-rule="evenodd" clip-rule="evenodd" d="M7.96236 8.94082C8.19081 8.94082 8.376 8.75595 8.376 8.52791C8.376 8.29986 8.19081 8.11499 7.96236 8.11499C7.73392 8.11499 7.54873 8.29986 7.54873 8.52791C7.54873 8.75595 7.73392 8.94082 7.96236 8.94082Z" fill="#8E95B4"/>
<path id="Oval_3" fill-rule="evenodd" clip-rule="evenodd" d="M7.96236 11.396C8.19079 11.396 8.37597 11.2112 8.37597 10.9831C8.37597 10.7551 8.19079 10.5703 7.96236 10.5703C7.73393 10.5703 7.54876 10.7551 7.54876 10.9831C7.54876 11.2112 7.73393 11.396 7.96236 11.396Z" fill="#8E95B4"/>
</g>
</g>
</svg>
