<svg xmlns="http://www.w3.org/2000/svg" viewBox="0 0 16 16">
  <path fill="#2C8EBB" fill-rule="evenodd" d="M4.45315433,3.65993809 C5.0086258,3.79891315 5.40474093,3.74533954 5.64149972,3.49921728 C5.9966379,3.13003388 6.58237347,2.38092182 7.70780229,2.53298301 C7.86122281,1.51189263 8.09712508,1.00134744 8.4155091,1.00134744 C8.73389312,1.00134744 9.05454282,1.51189263 9.37745819,2.53298301 C9.68747607,2.09600966 9.93256006,1.91185037 10.1127102,1.98050514 C10.3829353,2.0834873 11.353337,4.77671479 10.7038277,6.23215765 C10.2708216,7.20245289 9.70576595,7.83225244 9.00866085,8.12155629 C10.025842,8.67667142 10.5908977,9.36840752 10.7038277,10.1967646 C10.8732228,11.4393001 10.5191274,12.2258845 10.4543809,12.5557287 C10.8645142,12.6712966 11.2419516,12.6067399 11.586693,12.3620587 C12.1038052,11.9950368 14.0800198,11.2369025 14.6135875,11.1466601 C15.1471552,11.0564177 15.6330341,11.0202785 15.6247956,11.5803641 C15.616557,12.1404497 15.1881326,12.295711 14.90086,12.295711 C14.6135875,12.295711 12.7405157,12.9076201 12.1636044,13.4434548 C11.7789968,13.8006779 10.9698118,14.1189221 9.7360493,14.3981872 C9.64655817,14.6012237 9.40409535,14.7249693 9.00866085,14.7694241 C8.4155091,14.8361062 6.39631945,15.0484731 5.842747,14.9898966 C5.28917455,14.9313201 4.7768258,14.8885909 4.86715854,14.269348 C4.92738036,13.8565195 5.10184597,13.6365584 5.39055535,13.6094648 C5.09713329,13.5186933 4.93654498,13.3831184 4.9087904,13.2027401 C4.86715854,12.9321725 4.82810513,13.8284749 4.70083389,14.0055345 C4.57356265,14.1825941 4.42050689,14.8338893 3.65818317,14.7307161 C2.89585946,14.6275429 2.56190645,14.4610801 2.57184363,14.1792171 C2.57846842,13.9913084 2.68869312,13.7460543 2.90251773,13.4434548 C2.59427744,13.6477603 2.39946795,13.6477603 2.31808926,13.4434548 C2.19602121,13.1369964 1.91708275,12.442997 2.0238793,11.8843942 C2.13067585,11.3257915 2.74315883,10.9006613 3.03783628,10.6798195 C2.84113353,9.60747059 2.91847357,8.75471618 3.26985638,8.12155629 C3.6212392,7.4883964 4.19984971,6.95951936 5.00568791,6.53492518 C4.3192513,5.79328433 4.01341525,5.20673739 4.08817976,4.77528436 C4.16294428,4.34383133 4.28460246,3.97204924 4.45315433,3.65993809 Z"/>
</svg>
