<svg viewBox="0 0 16 16" fill="none" xmlns="http://www.w3.org/2000/svg">
<g id="svg">
<path id="Combined Shape" fill-rule="evenodd" clip-rule="evenodd" d="M3.96704 4.83662C3.81589 5.278 3.40804 5.59424 2.92864 5.59424C2.32054 5.59424 1.82759 5.08545 1.82759 4.45782C1.82759 3.8302 2.32054 3.32141 2.92864 3.32141C3.40804 3.32141 3.81588 3.63764 3.96703 4.07901H10.3627V4.11706C10.6549 4.09184 10.9569 4.07902 11.269 4.07902V4.76284C10.9555 4.76284 10.6535 4.77651 10.3627 4.80336V4.83662H10.0596C7.77535 5.12797 6.21616 6.26846 5.23445 8.01051C4.83109 8.72627 4.55578 9.49588 4.386 10.2658C4.32662 10.5351 4.28475 10.7847 4.25742 11.0078C4.2413 11.1393 4.23366 11.2311 4.23144 11.2763L3.56208 11.2421C3.5651 11.1805 3.57414 11.0719 3.59239 10.923C3.62233 10.6786 3.66783 10.4073 3.73215 10.1157C3.9158 9.28287 4.21382 8.44975 4.65345 7.66964C5.35563 6.42362 6.33268 5.45284 7.61265 4.83662H3.96704Z" fill="#6B7394"/>
<path id="Rectangle 12" fill-rule="evenodd" clip-rule="evenodd" d="M4.06897 10.2906C3.10734 10.2906 2.33103 11.0608 2.33103 12.0133V12.0308C2.33103 12.982 3.10996 13.7536 4.06897 13.7536C5.03059 13.7536 5.8069 12.9833 5.8069 12.0308V12.0133C5.8069 11.0621 5.02797 10.2906 4.06897 10.2906ZM3.32414 12.0308V12.0133C3.32414 11.6063 3.65474 11.2763 4.06897 11.2763C4.48032 11.2763 4.81379 11.6073 4.81379 12.0133V12.0308C4.81379 12.4379 4.48319 12.7678 4.06897 12.7678C3.65761 12.7678 3.32414 12.4368 3.32414 12.0308Z" fill="#E382BC"/>
<path id="Rectangle 12_2" fill-rule="evenodd" clip-rule="evenodd" d="M12.0138 2.83289C11.0522 2.83289 10.2759 3.60312 10.2759 4.55563V4.57311C10.2759 5.52433 11.0548 6.29586 12.0138 6.29586C12.9754 6.29586 13.7517 5.52563 13.7517 4.57311V4.55563C13.7517 3.60441 12.9728 2.83289 12.0138 2.83289ZM11.269 4.57311V4.55563C11.269 4.14858 11.5996 3.8186 12.0138 3.8186C12.4251 3.8186 12.7586 4.14962 12.7586 4.55563V4.57311C12.7586 4.98016 12.428 5.31014 12.0138 5.31014C11.6024 5.31014 11.269 4.97912 11.269 4.57311Z" fill="#E382BC"/>
</g>
</svg>
