<svg xmlns="http://www.w3.org/2000/svg" viewBox="0 0 16 16">
  <path fill="#338DD7" fill-rule="evenodd" d="M0.109227263,8.01904619 C7.32137297,8.01904619 11.0491437,8.01904619 11.2925394,8.01904619 C11.5359351,8.01904619 11.8562688,7.93966419 12.2535407,7.7809002 C11.7572921,7.36261474 11.5721551,5.33073062 12.4130771,4.71999979 C12.9287448,4.71999979 13.4172526,5.30473555 13.8786005,6.47420706 C14.5548717,6.27283268 15.2620049,6.30266424 16,6.56370174 C15.7737685,7.24913053 15.5303728,7.74349518 15.2698129,8.04679567 C15.009253,8.35009616 14.4376837,8.5075057 13.555105,8.51902429 C12.0472767,11.695141 9.53213646,12.4531726 8.54747139,12.9259402 C7.56280631,13.3987078 6.19957747,13.9013889 4.51536135,13.9100278 C2.83114524,13.9186667 1.61316072,12.8375511 0.689926372,11.6039907 C0.0744368076,10.7816171 -0.119129562,9.58663557 0.109227263,8.01904619 Z M3.77999997,3.8096277 L5.22000003,3.8096277 L5.22000003,5.24962776 L3.77999997,5.24962776 L3.77999997,3.8096277 Z M3.77999997,5.8096277 L5.22000003,5.8096277 L5.22000003,7.24962776 L3.77999997,7.24962776 L3.77999997,5.8096277 Z M1.77999997,5.8096277 L3.22000003,5.8096277 L3.22000003,7.24962776 L1.77999997,7.24962776 L1.77999997,5.8096277 Z M5.77999997,5.8096277 L7.22000003,5.8096277 L7.22000003,7.24962776 L5.77999997,7.24962776 L5.77999997,5.8096277 Z M5.77999997,3.8096277 L7.22000003,3.8096277 L7.22000003,5.24962776 L5.77999997,5.24962776 L5.77999997,3.8096277 Z M7.77999997,3.8096277 L9.22000003,3.8096277 L9.22000003,5.24962776 L7.77999997,5.24962776 L7.77999997,3.8096277 Z M7.77999997,5.8096277 L9.22000003,5.8096277 L9.22000003,7.24962776 L7.77999997,7.24962776 L7.77999997,5.8096277 Z M9.77999997,5.8096277 L11.22,5.8096277 L11.22,7.24962776 L9.77999997,7.24962776 L9.77999997,5.8096277 Z M7.77999997,1.8096277 L9.22000003,1.8096277 L9.22000003,3.24962776 L7.77999997,3.24962776 L7.77999997,1.8096277 Z"/>
</svg>
