<svg xmlns="http://www.w3.org/2000/svg" viewBox="0 0 16 16">
  <path fill="#FC7040" d="M11.0051475,12.8007439 C12.3523892,11.2972419 12.5108883,9.74444475 11.4674363,6.86067866 C10.8070237,5.03675822 9.71073869,3.63184653 10.5164421,2.49805815 C11.3749785,1.29032705 13.1977174,2.46108679 11.6787683,4.07550286 L11.9825581,4.27268344 C13.805297,4.46986403 14.7034582,2.14066834 13.3430082,1.47518386 C9.75036345,-0.27479386 6.60679933,3.08959992 7.99366585,6.98391652 C8.58803722,8.63530395 9.42015714,10.3852817 8.74653625,11.7778696 C8.16537314,12.9732769 7.04267166,13.6757327 6.28980126,13.7003803 C4.7180192,13.774323 5.76147116,10.4099292 7.57100177,9.57191174 C7.7295008,9.49796902 7.95404109,9.39937872 7.74270905,9.15290299 C5.51051436,8.91875104 4.20289735,9.88000641 3.45002695,11.2232992 C1.25745701,15.1299396 7.61062653,16.5718226 11.0051475,12.8007439 Z"/>
</svg>
