<svg xmlns="http://www.w3.org/2000/svg" viewBox="0 0 16 16">
  <defs>
    <linearGradient id="a" x1="16.538%" x2="159.438%" y1="63.66%" y2="19.963%">
      <stop offset="0%" stop-color="#F69923"/>
      <stop offset="31.23%" stop-color="#F79A23"/>
      <stop offset="83.83%" stop-color="#E97826"/>
    </linearGradient>
    <linearGradient id="b" x1="-217.811%" x2="74.731%" y1="394.453%" y2="13.74%">
      <stop offset="32.33%" stop-color="#9E2064"/>
      <stop offset="63.02%" stop-color="#C92037"/>
      <stop offset="75.14%" stop-color="#CD2335"/>
      <stop offset="100%" stop-color="#E97826"/>
    </linearGradient>
    <linearGradient id="c" x1="-20.658%" x2="125.228%" y1="192.493%" y2="-136.438%">
      <stop offset="0%" stop-color="#282662"/>
      <stop offset="9.548%" stop-color="#662E8D"/>
      <stop offset="78.82%" stop-color="#9F2064"/>
      <stop offset="94.87%" stop-color="#CD2032"/>
    </linearGradient>
    <linearGradient id="d" x1="-80.07%" x2="146.218%" y1="170.504%" y2="-44.376%">
      <stop offset="32.33%" stop-color="#9E2064"/>
      <stop offset="63.02%" stop-color="#C92037"/>
      <stop offset="75.14%" stop-color="#CD2335"/>
      <stop offset="100%" stop-color="#E97826"/>
    </linearGradient>
    <linearGradient id="e" x1="-18.401%" x2="164.863%" y1="77.341%" y2="-41.406%">
      <stop offset="0%" stop-color="#282662"/>
      <stop offset="9.548%" stop-color="#662E8D"/>
      <stop offset="78.82%" stop-color="#9F2064"/>
      <stop offset="94.87%" stop-color="#CD2032"/>
    </linearGradient>
    <linearGradient id="f" x1="-34.767%" x2="110.656%" y1="187.767%" y2="-51.168%">
      <stop offset="32.33%" stop-color="#9E2064"/>
      <stop offset="63.02%" stop-color="#C92037"/>
      <stop offset="75.14%" stop-color="#CD2335"/>
      <stop offset="100%" stop-color="#E97826"/>
    </linearGradient>
    <linearGradient id="g" x1="-129.874%" x2="66.423%" y1="465.634%" y2="17.191%">
      <stop offset="32.33%" stop-color="#9E2064"/>
      <stop offset="63.02%" stop-color="#C92037"/>
      <stop offset="75.14%" stop-color="#CD2335"/>
      <stop offset="100%" stop-color="#E97826"/>
    </linearGradient>
  </defs>
  <g fill="none" transform="rotate(11 16.885 18.385)">
    <path fill="url(#a)" d="M10.7964653,1.11111111 C10.1187614,1.23341284 9.53970536,1.75856799 8.74749757,2.47548572 L9.71515152,3.6078076 C10.225974,3.0661079 10.7454545,2.57832144 11.2692641,2.1624193 C11.3099567,2.12968626 11.3307359,2.11364065 11.3307359,2.11364065 C11.3099567,2.12968626 11.2900433,2.14637369 11.2692641,2.1624193 C11.1004329,2.30105335 10.8655743,2.8199283 10.0898167,3.70307852 C10.8361371,3.67548008 11.8308062,3.46442397 12.7667369,3.34568648 C13.0455248,2.1891191 12.4940097,1.66025589 12.4940097,1.66025589 C12.4940097,1.66025589 11.7686054,0.935673982 10.7964653,1.11111111 Z"/>
    <path fill="url(#b)" d="M7.56883117,6.24057085 C7.79047619,5.93442066 8.01385281,5.63404689 8.24069264,5.34265866 C8.47619048,5.0397176 8.71341991,4.74576207 8.95411255,4.46207574 C8.96796537,4.4453883 8.98268398,4.42870087 8.9965368,4.41201344 C9.23376623,4.1334617 9.47359307,3.86517914 9.71515152,3.60909125 L8.8217686,2.43389768 C6.47394371,4.77720482 5.94229038,5.55309381 5.93449817,5.56272117 L6.95411255,7.12051195 C7.15670996,6.82142183 7.36103896,6.52810813 7.56883117,6.24057085 Z"/>
    <path fill="url(#c)" d="M3.25367965,14.0567071 C3.12813853,14.3121531 3.0025974,14.5727338 2.87619048,14.8378072 C2.87445887,14.8416582 2.87272727,14.8455091 2.87099567,14.8493601 C2.85281385,14.8865859 2.83549784,14.9244535 2.81731602,14.9623211 C2.73246753,15.1413901 2.65800866,15.302488 2.48831169,15.6696115 C2.76709957,15.7639597 2.99134199,16.0123457 3.2034632,16.2941065 C3.18095238,16.0020765 3.56363636,15.7764536 3.25367965,15.5640098 C4.63030303,15.6102211 5.71111571,15.5155737 6.12618575,14.7319062 C5.9339288,14.6158246 5.40952381,14.7203534 4.75844156,14.6933968 C5.71601732,14.3756937 6.91948052,13.8506815 6.91948052,13.1697059 C6.89788055,13.1861656 5.08616906,13.9844846 4.09090909,13.8506815 L3.32467532,13.9129384 C3.3004329,13.9610752 3.27705628,14.0085702 3.25367965,14.0567071 Z"/>
    <path fill="url(#d)" d="M3.61125541,12.7846113 C3.77662338,12.4675501 3.94718615,12.146638 4.12294372,11.8231585 C4.29090909,11.5131574 4.46233766,11.2012308 4.63896104,10.8880205 C4.81471861,10.5741685 4.99480519,10.2603164 5.17835498,9.94582248 C5.36536797,9.62619398 5.55584416,9.30656548 5.75064935,8.98886246 C5.94285714,8.67436856 6.13852814,8.36180013 6.33766234,8.05244082 C6.40952381,7.94076339 6.48138528,7.82972779 6.55411255,7.71869219 C6.67965368,7.52742855 6.80606061,7.33744856 6.93419913,7.14875222 C6.94112554,7.13848303 6.94805195,7.12885567 6.95497835,7.11858648 C6.28158945,6.05983983 5.9397002,5.53667081 5.92931058,5.54907941 C5.70853136,5.81607832 3.61125541,7.71869219 2.16103896,12.3642164 L3.11255411,13.7569751 C3.23809524,13.5079473 3.36709957,13.2550685 3.5004329,12.9989806 C3.53593074,12.92838 3.57402597,12.8564956 3.61125541,12.7846113 Z"/>
    <path fill="url(#e)" d="M2.14718615,12.4129951 C2.02770563,12.8590629 1.87186147,13.4416443 1.87012987,13.4570481 C1.57316017,13.1040447 0.802597403,13.092687 0.804329004,13.0958961 C1.29958109,14.2566099 1.80606061,14.3153623 1.87012987,14.9122588 C1.56536797,14.9584702 1.14718615,14.8917205 0.664935065,14.7601465 C1.16796537,15.1028807 1.54632035,15.1978707 1.69350649,15.2229018 C1.23116883,15.244082 0.74978355,15.4796315 0.264069264,15.7511232 C0.974025974,15.5367539 1.28225108,15.4574679 1.69350649,15.5267849 C1.16577446,16.5110536 0.740666234,17.638027 0.418181818,18.9077051 C0.618181818,18.8634192 1.23291442,18.3799027 1.29958109,18.2444777 C1.4155984,17.9543732 1.59761415,17.4026099 2.48484848,15.0245781 C2.51510293,14.9434879 2.55411255,14.8820931 2.58874459,14.8102088 C2.5982684,14.7903122 2.60865801,14.7704157 2.61818182,14.7498773 C2.74632035,14.488013 2.87878788,14.2197304 3.01558442,13.9469551 C3.04675325,13.8846982 3.07792208,13.8224412 3.10995671,13.7601842 C3.11053391,13.7593285 2.79393939,13.2937919 2.16017316,12.3635746 C2.15670996,12.380262 2.15151515,12.3969494 2.14718615,12.4129951 Z"/>
    <path fill="url(#f)" d="M3.34178133,13.9221382 C3.34178133,13.984887 4.60516891,13.9672447 5.09090909,13.8542608 C5.93493746,13.6579386 9.2251982,11.7345963 9.72987013,9.79499377 C8.64155844,10.049038 8.15757576,9.790501 8.10822511,9.79563559 C8.96450216,9.55174236 9.5030303,9.08128516 9.89437229,8.50492695 C9.67012987,8.61852984 9.3047619,8.76743308 8.86666667,8.83867558 C8.80692641,8.84830294 8.74632035,8.85600483 8.68484848,8.8630649 C8.66926407,8.86499037 8.65454545,8.86691585 8.63896104,8.86819949 C8.93766234,8.7757768 9.18787879,8.67244309 9.40519481,8.55113829 C9.45194805,8.5248235 9.4969697,8.4985087 9.54025974,8.47026843 C9.60692641,8.42790803 9.66926407,8.38298033 9.72987013,8.33612716 C9.76796537,8.30596142 9.80606061,8.27515385 9.84155844,8.24306263 C9.92640693,8.16796919 10.0060606,8.08709933 10.0805195,7.9991694 C10.1030303,7.97221278 10.1255411,7.94461434 10.1480519,7.91701589 C10.1766234,7.87593914 10.2034632,7.83614603 10.230303,7.79763658 C10.3497835,7.61985125 10.4450216,7.46132065 10.5212121,7.32204478 C10.5593074,7.25272775 10.5922078,7.1879035 10.6207792,7.12821384 C10.6320346,7.10446634 10.64329,7.08136067 10.6528139,7.05889682 C10.6831169,6.99214709 10.7073593,6.93245743 10.7272727,6.88046966 C10.7558442,6.8021671 10.774026,6.73991014 10.7835498,6.69498244 C10.7549784,6.71166988 10.7212121,6.72899913 10.6839827,6.74504474 C10.425974,6.85928946 9.98354978,6.963265 9.62683983,7.01204364 L10.3307359,6.95492128 L9.62683983,7.01204364 C9.57575758,7.01910371 9.53939394,7.02295466 9.5038961,7.02744743 C9.50512792,7.02705607 8.59465361,5.75177278 7.52809886,7.1943752 C6.46154412,8.63697762 3.47077896,13.6608264 3.34178133,13.9221382 Z"/>
    <path fill="url(#g)" d="M10.1221442,3.67839366 C9.90829142,3.92164507 8.37943211,5.79070979 7.57472386,7.18680872 L9.52207792,7.01910371 C10.2233766,6.78034507 10.5367965,6.56405029 10.8406926,6.25084003 C10.9212121,6.16483558 11.0025974,6.07433835 11.0831169,5.98127383 C11.3307359,5.6950202 11.7004718,5.33558398 11.916922,5.02301555 C12.1264458,4.72071631 12.3108614,4.42034254 12.4519869,4.15077634 C12.5420302,3.97876743 12.6147575,3.81895318 12.6641081,3.67839366 C12.708264,3.55452157 12.7420302,3.43706773 12.76887,3.32474848 C11.8320735,3.44412779 10.8684646,3.65079522 10.1221442,3.67839366 Z"/>
  </g>
</svg>
