<svg xmlns="http://www.w3.org/2000/svg" viewBox="0 0 16 16">
  <g fill="none">
    <path fill="#46A4EC" d="M8.34085371,1.00012169 C7.72816852,1.00294114 7.14306789,1.05469071 6.62823957,1.14491137 C5.11161987,1.41026583 4.83626053,1.96567548 4.83626039,2.9899455 L4.82953052,4.10452259 L8,4.10452259 L8,4.91981246 L4.82953052,4.91981246 L3.48450186,4.91981246 C2.44290378,4.91981246 1.53085068,5.53983884 1.24557214,6.71934125 C0.91650695,8.0713248 0.908640991,8.78878322 1.25230201,10.2004712 C1.50706257,11.2512771 1.82471245,11.9999997 2.86631026,12 L4.09855701,12 L4.09855701,10.3783557 C4.09855701,9.20681334 5.12206789,8.17341605 6.33748671,8.17341579 L10.2080208,8.17341579 C11.2045051,8.17341579 12.0000004,7.36085098 12,6.36975015 L12,2.9899455 C12,2.02803386 11.1806212,1.30545053 10.2080208,1.14491137 C9.59235031,1.04341294 8.95353889,0.997302242 8.34085371,1.00012169 Z M6.53592733,1.88999999 C6.86620872,1.88999999 7.13592735,2.16148217 7.13592735,2.49528945 C7.13592711,2.82791355 6.86620872,3.09688813 6.53592733,3.09688813 C6.20446185,3.09688801 5.9359273,2.82791343 5.9359273,2.49528945 C5.93592718,2.16148229 6.20446185,1.88999999 6.53592733,1.88999999 Z"/>
    <path fill="#F6C20A" d="M12.9163372,5 L12.9163372,6.64460998 C12.9163372,7.85727076 11.8723951,8.87793022 10.6819562,8.87793035 L6.7883385,8.87793035 C5.80976861,8.87793035 5.00000013,9.70274588 5,10.6678709 L5,13.9414918 C5,14.8960839 5.8428736,15.4575643 6.7883385,15.7314324 C7.92051349,16.0592852 9.00621001,16.1185365 10.3608469,15.7314324 C11.2612898,15.4746807 12.1491858,14.9579666 12.1491854,13.9414918 L12.1491854,12.8480191 L8.76725391,12.8480191 L8.76725391,12.0403567 L12.1491854,12.0403567 L13.9375244,12.0403567 C14.9770065,12.0403567 15.3643601,11.4374924 15.7258616,10.3657164 C16.0992807,9.26233975 16.0833919,8.20126428 15.7258616,6.78583522 C15.4689705,5.76672634 15.2994378,5 14.2586338,5 L12.9163372,5 Z M10.4574022,13.751138 C10.7571565,13.7511383 11,13.9930204 11,14.2921404 C10.9999998,14.5923245 10.7571561,14.8364621 10.4574022,14.8364621 C10.1587186,14.8364621 9.91480442,14.5923245 9.91480442,14.2921404 C9.91480464,13.9930204 10.1587183,13.751138 10.4574022,13.751138 Z"/>
  </g>
</svg>
