<svg xmlns="http://www.w3.org/2000/svg" viewBox="0 0 24 24" fill="#fff">
  <path fill-rule="nonzero" d="M9.99997868 3.99999052l1.99999533 1.99999533h7.99998132c1.09999743 0 1.99999533.8999979 1.99999533 1.99999533v9.99997665c0 1.09999743-.8999979 1.99999533-1.99999533 1.99999533H3.99999269c-1.09999743 0-1.99999533-.8999979-1.99999533-1.99999533l.00999998-11.99997198c0-1.09999743.88999792-1.99999533 1.98999535-1.99999533h5.999986zm7.5389824 6.99998366h-.92399785l-.11899972.62199855c-.13499968.69799837-.9399978 1.03199759-1.52899643.63299852l-.52399877-.35499917-.65199848.65199847.3019993.41199904c.42999899.58699863.10299975 1.42099668-.61199858 1.55899636l-.48099887.09199979v.92399784l.50499882.07699982c.71899832.11099974 1.07699748.93299782.66899843 1.53499641l-.27499935.40599906.65299847.65199847.41199904-.3019993c.58699863-.42999899 1.42099668-.10299975 1.55799636.61199858l.09299978.48099888h.92299785l.05499987-.35499917c.11299974-.73499829.96499775-1.08799746 1.56499635-.6479985l.28899932.21199951.65299848-.65199847-.27499936-.40599906c-.40799905-.60199859-.04899989-1.42399667.66899844-1.53499641l.50499882-.07699982v-.92399784h.001l-.48099888-.09299979c-.71499833-.13699968-1.04199757-.97199773-.61199857-1.55799636l.3019993-.41199904-.65199849-.65299847-.40599905.27499936c-.6019986.40799904-1.42399667.04999988-1.53499641-.66899844l-.07699982-.50499882z"/>
  <circle cx="48.39" cy="44.695" r="4" transform="matrix(.33335 0 0 .33335 .869161 .100879)"/>
</svg>
