<svg xmlns="http://www.w3.org/2000/svg" viewBox="0 0 16 16">
  <path fill="#EC382F" d="M1.56537996,13.8599163 C1.43974714,12.7549656 1.51957703,11.507091 1.80486965,10.1162924 C2.23280857,8.03009453 2.86225894,6.63942263 3.94494955,4.65242271 C5.02751173,2.66554949 6.76469715,1.02643926 9.28249866,0.802958777 C11.8003002,0.579351607 13.7893428,2.56622483 13.7893428,2.56622483 L13.4871398,3.01331248 C13.4871398,3.01331248 12.7316966,2.16879951 11.3470599,2.31791319 C9.96229479,2.46690017 7.52014035,3.85782545 7.14241875,6.91256544 C6.76482559,9.96730542 8.26264976,13.8599163 8.26264976,13.8599163 L1.56537996,13.8599163 Z M0.218721483,9.96730542 L1.52796799,10.0666301 L1.30128366,11.3579773 L0.0676842171,11.2089903 L0.218721483,9.96730542 Z M2.28328276,7.23537057 L1.10002907,6.86277642 L1.47762224,5.81974082 L2.63583148,6.26682847 L2.28328276,7.23537057 Z M3.91977667,3.90736109 L3.01342464,3.31128645 L3.71839365,2.54152036 L4.5995728,3.11276383 L3.91977667,3.90736109 Z M5.70730786,0.827789941 L6.53814125,0.405533456 L7.14241875,1.07610159 L6.31158536,1.5480204 L5.70730786,0.827789941 Z M8.65317672,0.00823482494 L9.73573889,0.0580238434 L9.83655883,0.703760809 L8.80421398,0.728591973 L8.65317672,0.00823482494 Z M12.1528489,0.778127612 L12.9836823,1.37407556 L12.832645,1.59755604 L12.127676,1.22508857 L12.1528489,0.778127612 Z M12.0016832,2.69050734 L12.6814793,2.83937612 L12.6814793,3.13749377 L12.0016832,3.06299603 L12.0016832,2.69050734 Z M9.83655883,3.01331248 L10.5415278,2.83936764 L10.6422194,3.23679296 L10.1638062,3.60926043 L9.83655883,3.01331248 Z M8.80408555,3.78333196 L9.30767154,4.52839358 L9.00546857,5.04984803 L8.27532668,4.25525077 L8.80408555,3.78333196 Z M7.79717044,5.84457199 L8.52718389,6.39098429 L8.32580087,7.2106661 L7.4697946,6.49030895 L7.79717044,5.84457199 Z M7.44462172,8.10458802 L8.4013195,8.60121131 L8.45166526,9.42089311 L7.39427596,8.97380546 L7.44462172,8.10458802 Z M7.74669625,11.1842859 L8.8544313,11.1842859 L9.33284441,12.1529547 L7.99855346,12.0784612 L7.74669625,11.1842859 Z" transform="translate(1 1)"/>
</svg>
