<svg xmlns="http://www.w3.org/2000/svg" viewBox="0 0 16 16">
  <g fill="none" fill-rule="evenodd" transform="translate(2)">
    <path fill="#ECE2A9" d="M0.166977237,0.806974125 L3.21816299,7.40596177 L1.14861104,14.7928192 C1.47939172,15.3240977 1.96687199,15.6246628 2.61105185,15.6945146 C3.25523171,15.7643663 3.8191773,15.7643663 4.30288863,15.6945146 L5.59978391,7.98655554 L11.5720602,3.03216917 C10.9230472,2.19846064 10.2726597,1.8136774 9.62089755,1.87781945 L4.82992069,5.91952844 L2.06153912,0.300491359 C1.67120904,0.136613713 1.303537,0.136613713 0.958522996,0.300491359 C0.613508988,0.464369005 0.349660402,0.633196593 0.166977237,0.806974125 Z"/>
    <path fill="#EDF2F7" d="M8.86837956,10.3159601 C8.58363119,10.4334961 8.42944717,10.6288271 8.40582749,10.9019531 C8.38220781,11.1750791 8.32040922,11.4081204 8.22043174,11.6010769 C8.64402384,11.8488961 9.03952852,11.9108509 9.40694577,11.7869413 C9.95807164,11.6010769 10.6331071,11.3472122 10.6434173,11.2148201 C10.6502907,11.1265588 10.6537275,10.6796282 10.6537275,9.87402837 C10.2459443,10.4930764 9.93620157,10.7575169 9.72449925,10.6673497 C9.51279693,10.5771825 9.2274237,10.4600526 8.86837956,10.3159601 Z"/>
    <path fill="#C49C2E" fill-rule="nonzero" d="M5.45804665,10.0180045 L4.65680721,15.822318 C4.07967682,16.0078344 3.24147318,16.058111 2.63911944,16 C2.03676569,15.941889 0.935026422,15.4400801 0.501593379,14.8457836 L2.81480544,7.80243301 C1.77654324,4.95495725 1.06237099,3.09757468 0.672288698,2.23028527 C0.648540718,2.17748521 0.237948051,2.36659642 0.214863491,2.31527136 C0.198880176,2.27973486 -0.0090748638,1.72853892 0.0196499761,1.46737992 C0.0324121687,1.35134928 0.334044783,1.47825073 0.305808589,1.41547179 C0.242217786,1.27408719 0.146831582,1.06201029 0.0196499761,0.779241088 C0.112108363,0.578535437 0.344711016,0.407370506 0.717457935,0.265746297 C1.09020485,0.124122087 1.58861163,0.0889015563 2.21267825,0.160084704 C2.42829795,0.60830675 2.59001272,0.944473285 2.69782257,1.16858431 C2.72620949,1.22759398 2.8916853,1.16561989 2.92181639,1.22825525 C2.94312594,1.27255273 3.04288027,1.39126215 3.031776,1.46737992 C3.02017039,1.54693424 2.89768006,1.58404049 2.92181639,1.63421417 C3.22286303,2.26001851 3.84121106,3.54541695 4.77686049,5.49040949 L4.72138963,5.53934035 L4.80938642,5.55802317 L4.91321072,5.77384917 L5.09027627,5.61765958 L5.17827306,5.6363424 L5.14574713,5.56872872 C6.94659351,4.03281817 7.9984179,3.12318172 8.30122031,2.83981938 C8.33237844,2.81066161 8.1607555,2.65620738 8.1869173,2.63201137 C8.32334666,2.50583325 8.43973153,2.40025324 8.5360719,2.31527136 C8.57400858,2.28180741 8.68101165,2.45027057 8.71729006,2.41826936 C8.92469308,2.23531908 9.2357976,1.96089367 9.65060364,1.59499311 C10.3245824,1.71640975 11.009555,2.15766535 11.7055215,2.91875991 C11.425667,3.19709197 11.1927426,3.41795393 11.0067485,3.58134578 C10.900208,3.67493931 10.7883174,3.77309239 10.6710768,3.87580502 L10.8216846,3.98608073 L10.3070236,4.59153933 L10.0854074,4.38797553 C9.72548765,4.70222916 9.32689957,5.04943756 8.88964319,5.42960073 C8.56369792,6.31411786 8.80325919,6.93975177 9.608327,7.30650245 C10.8903904,7.89054967 12.3086015,8.74051243 11.7755169,9.57161936 C11.4201272,10.1256907 11.1012963,10.5321385 10.8190242,10.790963 L10.8190242,11.2171876 C10.4208335,11.7356653 9.97793772,11.9955258 9.49033673,11.9967691 C9.00273575,11.9980123 8.5394876,11.8646862 8.10059229,11.5967907 C8.10059229,11.4406948 8.10059229,11.3141604 8.10059229,11.2171876 C8.10059229,11.0951144 6.21288789,10.603872 5.45804665,10.0180045 Z M5.60859524,8.92740517 C6.82528587,9.90998918 7.78959404,10.4088079 8.50151976,10.4238614 C8.61024285,10.2351189 8.73477335,10.0956456 8.87511127,10.0054416 C9.08561814,9.87013546 9.30483794,10.4608133 9.70862538,10.4027263 C9.977817,10.3640016 10.3717387,10.0350722 10.8903904,9.4159379 L10.8903904,10.2109218 C11.1956309,9.8209123 11.3462558,9.51346329 11.3422652,9.28857472 C11.3362792,8.95124187 10.4033313,8.42838983 9.71394625,8.18471449 C9.03969807,7.94638957 7.77359965,7.62039079 8.07771167,6.13482706 C7.37157852,6.74761557 6.5827139,7.43091138 5.7111178,8.18471449 L5.60859524,8.92740517 Z M1.80913554,1.83130565 C2.49160597,2.77378452 2.7370515,4.07330432 2.54547214,5.72986505 L2.42083079,5.36020791 C2.53235767,4.45758708 2.19503528,3.32888075 1.40886362,1.97408893 L0.976778201,2.12822058 C1.88186961,4.30716269 2.60059255,5.93054792 3.13294702,6.99837627 C3.18279973,7.09837381 3.31244946,7.14116201 3.52189619,7.12674086 L1.28651125,14.5522661 C1.65084818,15.0053262 2.16331331,15.3000184 2.63911944,15.345921 C3.14825657,15.3950391 3.65781311,15.4013451 4.16794447,15.3648353 C4.47847819,13.2488408 4.6814502,11.8031373 4.77686049,11.0277247 C4.78760461,10.9404058 4.17572577,9.01474024 4.18588097,8.93220755 C4.20072495,8.81156851 4.83237467,10.2807162 4.84596036,10.1703034 C4.90025278,9.72906144 5.07891244,8.9397713 5.38193933,7.80243301 C7.09265962,6.32750463 8.54214194,5.08065149 9.73038627,4.0618736 L8.90087114,3.29992894 L4.80938642,6.13433159 C4.43999013,6.41643257 4.24594515,6.53842931 4.22725149,6.5003218 C4.20728248,6.45961446 4.67091023,5.85204438 4.65680721,5.82329502 C4.16573992,4.82224195 3.4688304,3.40157433 2.56607867,1.56129215 L1.80913554,1.83130565 Z M0.681200938,1.41300121 L2.27640791,0.970791003 C2.19284562,0.800447167 2.1076764,0.626827573 2.02090027,0.449932241 C1.51429956,0.406273925 1.33586789,0.4769762 1.04211094,0.588588379 C0.822702648,0.67195198 0.5708399,0.845502484 0.483469163,0.930755275 C0.550262618,1.0941357 0.61617321,1.25488435 0.681200938,1.41300121 Z M10.2809457,3.59014931 C10.3814348,3.50411113 10.4797619,3.41996051 10.575927,3.33769746 C10.5896018,3.32599952 11.1168951,3.3406311 11.1956904,3.33769746 C11.3043852,3.33365061 11.4392841,3.06836271 11.4702773,3.04185002 C11.4900659,3.02492219 11.4229918,2.97736081 11.2690551,2.89916587 C10.7398748,2.37257468 10.6682078,2.54217995 10.1735544,2.41826936 L9.40634206,2.94976068 L10.2809457,3.59014931 Z M8.99177132,10.5037051 C8.69371398,10.8082532 8.53029679,11.106424 8.50151976,11.3982174 C8.47274273,11.6900108 8.9383631,11.7578365 9.89838087,11.6016946 C10.319572,11.4194924 10.5454207,11.2501012 10.575927,11.093521 C10.6064333,10.9369407 10.6064333,10.7137208 10.575927,10.4238614 C10.2291837,10.6986638 9.93057212,10.8102102 9.68009222,10.7585006 C9.42961232,10.7067909 9.20017202,10.6218591 8.99177132,10.5037051 Z"/>
  </g>
</svg>
