<svg viewBox="0 0 16 16" fill="none" xmlns="http://www.w3.org/2000/svg">
  <g>
    <g>
      <rect opacity="0.8" x="3" y="4" width="10" height="8" fill="#70E3EB"/>
      <path d="M10.85 8L5 13L13.55 12.6429L14 9.42857L10.85 8Z" fill="#212431"/>
      <path d="M3.33333 3.5H12.6667C13.2161 3.5 13.5 3.85509 13.5 4.11111V11.8889C13.5 12.1449 13.2161 12.5 12.6667 12.5H3.33333C2.78387 12.5 2.5 12.1449 2.5 11.8889V4.11111C2.5 3.85509 2.78387 3.5 3.33333 3.5Z" stroke="#A9EFA3" stroke-linecap="round" stroke-linejoin="round"/>
      <path d="M5.91667 8.16666C6.60702 8.16666 7.16667 7.60701 7.16667 6.91666C7.16667 6.2263 6.60702 5.66666 5.91667 5.66666C5.22631 5.66666 4.66667 6.2263 4.66667 6.91666C4.66667 7.60701 5.22631 8.16666 5.91667 8.16666Z" fill="#FEE17C"/>
    </g>
  </g>
</svg>
