<svg xmlns="http://www.w3.org/2000/svg" viewBox="0 0 16 16">
  <path fill="#52CDB9" fill-rule="evenodd" d="M1,2 L13,2 L13,2 C13.5522847,2 14,2.44771525 14,3 L14,13 L14,13 C14,13.5522847 13.5522847,14 13,14 L1,14 L1,14 C0.44771525,14 6.76353751e-17,13.5522847 0,13 L0,3 L0,3 C-6.76353751e-17,2.44771525 0.44771525,2 1,2 Z M4.42070449,12.844588 C3.78593569,12.6655507 3.45390896,12.3709572 3.18535293,11.9803302 C2.9167969,11.5897033 2.7825209,11.1160752 2.7825209,10.5594318 L2.7825209,9.56822086 C2.7825209,9.26874019 2.71741738,9.03436754 2.5872084,8.86509586 C2.45699941,8.69582418 2.13880478,8.62095523 1.87187637,8.62095523 L1.87187637,7.5125568 C2.13880478,7.5125568 2.45699941,7.41897039 2.5872084,7.25132633 C2.71741738,7.08368226 2.7825209,6.84686822 2.7825209,6.54087711 L2.7825209,5.54966617 C2.7825209,4.99302276 2.9167969,4.52020848 3.18535293,4.13120914 C3.45390896,3.7422098 3.78593569,3.46796134 4.42070449,3.28892398 L4.72832168,4.14829898 C4.49069028,4.2427005 4.32467632,4.41034205 4.2302748,4.65122867 C4.13587329,4.89211529 4.08867324,5.19484664 4.08867324,5.5594318 L4.08867324,6.55064273 C4.08867324,6.88918609 4.0138042,7.18947606 3.86406387,7.45152164 C3.71432353,7.71356722 3.48808882,7.9178295 3.18535293,8.06431461 C3.48808882,8.21731017 3.71432353,8.42482762 3.86406387,8.6868732 C4.0138042,8.94891878 4.08867324,9.24595357 4.08867324,9.57798648 L4.08867324,10.5691974 C4.08867324,10.9337826 4.13587329,11.2365139 4.2302748,11.4774005 C4.32467632,11.7182872 4.49069028,11.8859287 4.72832168,11.9803302 L4.42070449,12.844588 Z M9.57761765,12.844588 C10.2123864,12.6655507 10.5444132,12.3709572 10.8129692,11.9803302 C11.0815252,11.5897033 11.2158012,11.1160752 11.2158012,10.5594318 L11.2158012,9.56822086 C11.2158012,9.26874019 11.2809048,9.03436754 11.4111137,8.86509586 C11.5413227,8.69582418 11.8595174,8.62095523 12.1264458,8.62095523 L12.1264458,7.5125568 C11.8595174,7.5125568 11.5413227,7.41897039 11.4111137,7.25132633 C11.2809048,7.08368226 11.2158012,6.84686822 11.2158012,6.54087711 L11.2158012,5.54966617 C11.2158012,4.99302276 11.0815252,4.52020848 10.8129692,4.13120914 C10.5444132,3.7422098 10.2123864,3.46796134 9.57761765,3.28892398 L9.27000046,4.14829898 C9.50763185,4.2427005 9.67364582,4.41034205 9.76804733,4.65122867 C9.86244885,4.89211529 9.9096489,5.19484664 9.9096489,5.5594318 L9.9096489,6.55064273 C9.9096489,6.88918609 9.98451794,7.18947606 10.1342583,7.45152164 C10.2839986,7.71356722 10.5102333,7.9178295 10.8129692,8.06431461 C10.5102333,8.21731017 10.2839986,8.42482762 10.1342583,8.6868732 C9.98451794,8.94891878 9.9096489,9.24595357 9.9096489,9.57798648 L9.9096489,10.5691974 C9.9096489,10.9337826 9.86244885,11.2365139 9.76804733,11.4774005 C9.67364582,11.7182872 9.50763185,11.8859287 9.27000046,11.9803302 L9.57761765,12.844588 Z M7.86516464,6.72265625 L6.21965683,6.72265625 L6.21965683,5.3359375 L7.86516464,5.3359375 L7.86516464,6.72265625 Z M8.08000839,11.0390625 L7.28410995,12.5917969 L6.14641464,12.5917969 L6.48821151,10.9951172 L6.48821151,9.7109375 L8.08000839,9.7109375 L8.08000839,11.0390625 Z"/>
</svg>
