<?xml version="1.0" encoding="UTF-8" standalone="no"?>
<svg viewBox="0 0 32 32" version="1.1" xmlns="http://www.w3.org/2000/svg" xmlns:xlink="http://www.w3.org/1999/xlink" xml:space="preserve" xmlns:serif="http://www.serif.com/" style="fill-rule:evenodd;clip-rule:evenodd;stroke-linejoin:round;stroke-miterlimit:2;">
    <path d="M2,21.555C1.992,20.607 2.065,19.66 2.217,18.725C2.329,17.97 2.608,17.248 3.033,16.614C3.446,16.032 4.014,15.578 4.673,15.304C5.541,14.977 6.465,14.827 7.391,14.862C8.039,14.865 8.686,14.902 9.33,14.974C9.949,15.044 10.571,15.082 11.194,15.086C11.806,15.106 12.415,14.999 12.983,14.772C13.443,14.574 13.839,14.253 14.128,13.844C14.437,13.399 14.652,12.894 14.757,12.362C14.893,11.73 14.983,11.09 15.027,10.445L16.959,10.445C17.012,11.103 17.115,11.756 17.266,12.399C17.375,12.922 17.586,13.418 17.887,13.859C18.182,14.276 18.589,14.601 19.062,14.795C19.614,15.003 20.201,15.103 20.791,15.087C21.422,15.084 22.051,15.046 22.678,14.975C23.32,14.903 23.964,14.866 24.61,14.863C25.504,14.838 26.394,14.988 27.23,15.305C27.906,15.574 28.492,16.028 28.922,16.615C29.359,17.252 29.648,17.978 29.768,18.741C29.929,19.67 30.007,20.612 30,21.555L28.772,21.555C28.745,21.09 28.692,20.627 28.615,20.167C28.558,19.731 28.429,19.307 28.233,18.914C28.01,18.535 27.679,18.231 27.282,18.041C26.73,17.795 26.127,17.68 25.523,17.707L22.023,17.707C21.14,17.732 20.259,17.605 19.418,17.333C18.774,17.111 18.197,16.729 17.741,16.222C17.328,15.749 17.006,15.204 16.79,14.615C16.541,13.944 16.354,13.251 16.229,12.546L15.76,12.546C15.628,13.236 15.443,13.915 15.206,14.577C14.995,15.182 14.67,15.74 14.248,16.222C13.791,16.718 13.221,17.095 12.586,17.322C11.743,17.606 10.855,17.737 9.966,17.711L6.477,17.711C5.887,17.688 5.299,17.795 4.755,18.025C4.339,18.214 3.99,18.526 3.755,18.918C3.535,19.318 3.393,19.755 3.336,20.208C3.266,20.7 3.221,21.151 3.201,21.558L2,21.555Z" style="fill:rgb(207,207,207);fill-rule:nonzero;"/>
</svg>
