<svg xmlns="http://www.w3.org/2000/svg" viewBox="0 0 16 16">
    <g transform="matrix(1,0,0,1,1,1)">
        <path d="M1,14L13,14C13.552,14 14,13.552 14,13L14,1C14,0.448 13.552,0 13,0L1,0C0.448,0 0,0.448 0,1L0,13C0,13.552 0.448,14 1,14ZM8.936,7.584L8.936,8.168L7.191,8.168L7.191,13.044L5.926,13.044L5.889,8.168L4.074,8.168L4.074,7L8.936,7L8.936,7.584ZM12.791,7.163L12.929,7.218L12.929,7.853C12.929,8.204 12.918,8.488 12.908,8.488C12.898,8.488 12.791,8.432 12.67,8.366C12.213,8.107 11.481,8.011 11.034,8.143C10.928,8.173 10.77,8.27 10.689,8.351C10.567,8.468 10.542,8.539 10.542,8.727C10.542,8.93 10.567,8.986 10.735,9.143C10.841,9.245 11.238,9.478 11.623,9.671C12.436,10.072 12.863,10.3 13.05,10.721C13.218,11.097 13.213,11.725 13.05,12.08C12.898,12.416 12.563,12.756 12.233,12.913C11.532,13.243 10.389,13.274 9.496,12.979L9.176,12.873L9.176,11.461L9.43,11.644C9.76,11.882 10.186,12.03 10.633,12.06C11.08,12.091 11.41,12.009 11.613,11.816C11.74,11.7 11.766,11.634 11.766,11.441C11.766,11.07 11.563,11.041 10.689,10.614C9.917,10.233 9.658,10.174 9.43,9.839C8.922,9.102 9.074,7.975 9.755,7.462C10.334,7.02 11.293,6.858 12.268,7.036C12.477,7.076 12.71,7.132 12.791,7.163Z" style="fill:rgb(86,165,234);fill-rule:nonzero;"/>
    </g>
</svg>
