<svg xmlns="http://www.w3.org/2000/svg" viewBox="0 0 16 16">
    <g>
        <path fill-rule="evenodd" clip-rule="evenodd" d="M13.5784 10.9945C12.9793 11.0474 12.2005 10.8891 11.7906 11.4325C11.7933 12.0388 12.5653 12.4069 13.0675 12.6817C13.5418 12.8378 14.0095 13.308 14.4103 13.394C13.9786 12.7127 13.2651 12.2518 12.5822 11.833C12.477 11.0109 13.7621 11.7133 13.9894 11.0943C13.7295 10.3994 12.9483 10.1291 12.4002 9.69805C11.8193 9.39395 11.0524 9.19269 10.8355 8.50497C10.1989 7.12645 9.68412 5.60958 8.48183 4.5854C7.72186 3.88086 6.84803 3.18339 5.80466 2.97002C4.89987 3.0029 4.24774 2.24443 3.40293 2.08402C2.48143 2.01504 2.33755 3.1418 2.96569 3.61384C3.54375 4.18887 3.71457 4.97967 3.99901 5.70625C4.25084 6.24859 4.74715 6.62812 4.39483 7.24628C4.14517 8.2281 4.1263 9.39931 4.85493 10.1972C5.37607 10.7112 5.93343 10.1226 5.86263 9.55005C6.13836 9.17057 6.31082 10.1417 6.62905 10.2897C6.96496 10.6366 7.32325 11.0045 7.74734 11.2314C7.1184 10.6374 6.71221 9.86035 6.2883 9.11948C6.40618 8.42551 5.36505 8.18828 5.45218 9.00403C5.46654 9.32842 5.2305 10.2543 4.8821 9.60427C4.45328 8.80008 4.5896 7.85751 4.83408 7.02263C5.06777 6.36528 4.51711 5.92023 4.24383 5.40449C4.02108 4.81517 3.97519 4.12142 3.45708 3.68233C2.9592 3.37097 2.82618 2.26901 3.66937 2.61358C4.30443 3.05195 4.98051 3.3689 5.76898 3.40367C6.93315 3.75169 7.90811 4.55685 8.66673 5.46928C9.57933 6.53262 9.93208 7.90501 10.6024 9.10307C10.7897 9.60572 11.3855 9.66249 11.8257 9.84878C12.3983 10.0077 12.815 10.433 13.3144 10.7208C13.4158 10.7981 13.5085 10.8883 13.5784 10.9945V10.9945Z" fill="#69A7D3" stroke="#69A7D3" stroke-width="0.962182" stroke-linecap="round" stroke-linejoin="round"/>
    </g>
</svg>
