<svg xmlns="http://www.w3.org/2000/svg" viewBox="0 0 16 16">
    <g>
        <g>
            <path fill-rule="evenodd" clip-rule="evenodd" d="M8.26067 13.6464C11.2349 13.6464 13.6461 11.2353 13.6461 8.261C13.6461 5.28673 11.2349 2.87561 8.26067 2.87561C5.2864 2.87561 2.87527 5.28673 2.87527 8.261C2.87527 11.2353 5.2864 13.6464 8.26067 13.6464Z" stroke="#42A5F5" stroke-width="1.04348"/>
            <path fill-rule="evenodd" clip-rule="evenodd" d="M8.32693 4.94482C6.45908 4.94502 4.94496 6.43544 4.94481 8.27399C4.94496 10.1125 6.45908 11.603 8.32693 11.6032C9.22409 11.6033 10.0846 11.2527 10.7191 10.6283C11.3535 10.004 11.71 9.15708 11.7101 8.27399C11.71 7.3909 11.3535 6.54401 10.7191 5.91966C10.0846 5.29531 9.22409 4.94465 8.32693 4.94482ZM9.29705 5.94448C9.61947 5.94433 9.92873 6.07031 10.1567 6.2947C10.3848 6.51908 10.5128 6.82346 10.5128 7.14083C10.5123 7.80132 9.96807 8.33644 9.29705 8.33613C8.62645 8.33588 8.08283 7.80092 8.08239 7.14083C8.08225 6.48033 8.62603 5.94473 9.29705 5.94448Z" fill="#3965BD"/>
            <path fill-rule="evenodd" clip-rule="evenodd" d="M12.1361 5.55099C12.8072 5.55099 13.3513 5.01548 13.3513 4.3549C13.3513 3.69432 12.8072 3.15881 12.1361 3.15881C11.465 3.15881 10.921 3.69432 10.921 4.3549C10.921 5.01548 11.465 5.55099 12.1361 5.55099Z" fill="#3965BD"/>
        </g>
    </g>
</svg>
