<svg viewBox="0 0 16 16" fill="none" xmlns="http://www.w3.org/2000/svg">
<g id="sublime">
<g id="sublime-icon">
<rect id="Rectangle-path" x="2" y="2" width="12" height="12" rx="1.5" fill="#343944"/>
<path id="Shape" d="M11.4286 8.02991C11.4286 7.92548 11.3514 7.86527 11.2567 7.89518L4.74326 9.96129C4.64839 9.99139 4.57143 10.1006 4.57143 10.2048V12.3165C4.57143 12.4209 4.64839 12.4813 4.74326 12.4512L11.2567 10.3853C11.3514 10.3552 11.4286 10.246 11.4286 10.1416V8.02991Z" fill="url(#paint0_linear)"/>
<path id="Shape_2" d="M4.57143 7.97432C4.57143 8.07875 4.64838 8.18793 4.74324 8.21804L11.2568 10.2842C11.3516 10.3143 11.4286 10.2539 11.4286 10.1497V8.03797C11.4286 7.93374 11.3516 7.82455 11.2568 7.79444L4.74324 5.72828C4.64838 5.69817 4.57143 5.75838 4.57143 5.86281V7.97432Z" fill="#FF9800"/>
<path id="Shape_3" d="M11.4286 3.69606C11.4286 3.59163 11.3514 3.53122 11.2567 3.56133L4.74326 5.62724C4.64839 5.65735 4.57143 5.76654 4.57143 5.87097V7.98262C4.57143 8.08705 4.64839 8.14726 4.74326 8.11735L11.2567 6.05124C11.3514 6.02114 11.4286 5.91194 11.4286 5.8077V3.69606Z" fill="#FF9800"/>
</g>
</g>
<defs>
<linearGradient id="paint0_linear" x1="9.629" y1="11.1536" x2="9.74549" y2="9.18096" gradientUnits="userSpaceOnUse">
<stop stop-color="#FF9700"/>
<stop offset="0.53" stop-color="#F48E00"/>
<stop offset="1" stop-color="#CE6E00"/>
</linearGradient>
</defs>
</svg>
