<svg xmlns="http://www.w3.org/2000/svg" viewBox="0 0 16 16">
  <g fill="none" fill-rule="evenodd">
    <path fill="#2E2E2E" d="M3.82741718,3.82963873 C3.94625773,2.05002674 4.54192756,1.13064288 5.56445043,0.54187009 C6.5869733,-0.0469027048 8.27893486,-0.104473075 8.82149339,0.137596887 C9.36405191,0.379666849 9.37080018,1.20727909 9.32347656,1.81567517 C9.29192747,2.22127256 9.12459975,2.73583783 8.82149339,3.35937097 C9.16618035,3.46771451 9.66565655,3.62447043 10.319922,3.82963873 C10.9741875,4.03480703 11.324878,4.39181226 11.3719936,4.90065441 C11.841828,4.50530062 13.3143119,4.08142648 13.8798518,4.05476843 C14.4453918,4.02811037 15.1629553,4.05827443 15.6737631,5.21893658 C16.184571,6.37959873 15.7001009,8.09170545 15.6737631,8.12519561 C15.1294659,8.81730468 14.3139384,9.29147276 13.2271806,9.54769984 C13.3000538,9.73302304 13.4981417,9.90928726 13.8214442,10.0764925 C14.306398,10.3273004 13.6323009,10.6392737 13.4436868,10.7222099 C13.2550727,10.8051461 13.2292942,10.6049885 13.3364905,10.5471553 C13.4436868,10.4893221 12.9789323,9.81915734 12.6771497,9.71504282 C12.4759613,9.64563314 12.2017331,9.58985215 11.854465,9.54769984 C11.9431401,10.3760249 10.3586788,11.7554365 10.1424718,11.9843996 C9.92626488,12.2133627 8.53646924,13.0569764 7.9655619,13.4249317 C7.39465456,13.7928869 6.64437963,13.9961496 5.63916844,14.37462 C4.63395725,14.7530903 2.28613374,14.696244 1.88312818,14.696244 C1.48012261,14.696244 0.291040576,14.1440327 0.191781924,13.4249317 C0.0282911564,12.075491 0.48171972,10.3089123 1.55206762,8.12519561 C1.15125317,7.56522832 1.11245793,6.6764029 1.20702958,6.15316449 C1.27007734,5.80433889 1.83149437,5.58386836 2.89128066,5.49175289 C3.10952874,4.8558842 3.15528567,5.01392289 3.82741718,3.82963873 Z M2.08294217,7.66190232 L2.51231461,6.72050737 C2.61754506,6.50262564 2.61754506,6.39779079 2.51231461,6.40600282 C2.35446893,6.41832087 2.08294217,6.57500652 1.95552881,6.85048748 C1.87058658,7.03414145 1.9130577,7.30461306 2.08294217,7.66190232 Z M1.45623499,12.8285661 C1.28014475,13.2793834 1.51943395,13.5493209 2.17410259,13.6383786 C3.15610555,13.7719651 6.01464889,13.5465564 6.48985063,13.135578 C6.96505237,12.7245997 8.07035378,12.2982929 8.58093484,12.0438566 C9.09151591,11.7894202 10.6854753,10.774785 10.974104,10.0372454 C11.1665232,9.54555238 11.2627328,9.23824423 11.2627328,9.11532098 L10.5494766,8.8887275 C10.6278957,9.29634892 10.5297962,9.60923552 10.2551781,9.82738728 C9.84325089,10.1546149 8.25458328,10.2164468 7.69728337,10.1970456 C7.13998346,10.1776445 6.17793807,9.7417853 6.18942879,8.20879896 C5.99348177,8.08079092 5.8588942,8.02717861 5.78566606,8.04796202 C5.67582385,8.07913713 5.09115788,8.85259102 3.90836971,8.61674127 C3.11984427,8.45950811 2.58638256,8.35119741 2.30798459,8.29180918 C1.653978,10.3193092 1.3269747,11.603413 1.3269747,12.1441205 C1.94414043,12.2116049 2.42354696,12.3425502 2.76519429,12.5369566 C3.27766527,12.8285661 3.1094623,13.135578 3.01216916,13.135578 C2.91487603,13.135578 2.54422472,13.4083788 2.17410259,13.2719784 C1.9273545,13.1810448 1.6880653,13.0332407 1.45623499,12.8285661 Z M4.08241754,8.28136027 C4.31949303,8.28136027 4.50141315,8.28136027 4.62817789,8.28136027 C4.99052854,8.19769023 5.11656991,8.11828798 5.20480223,7.7666058 C5.29303455,7.41492361 4.88974744,7.30609439 4.62817789,7.16720597 C4.36660834,7.02831754 3.31923061,6.68056856 3.20644804,6.76661276 C3.13125966,6.82397555 2.93590602,7.21106429 2.62038713,7.92787897 C2.68872124,8.11022986 3.17606471,8.22805696 4.08241754,8.28136027 Z M6.97862271,8.12519561 C6.73495507,8.51865373 6.68866147,8.8385456 6.83974189,9.08487119 C7.06636253,9.45435958 7.19849168,9.42624466 7.52941176,9.55031372 C7.86033185,9.67438279 8.00410151,9.77703021 8.81844247,9.70699246 C9.63278342,9.63695471 9.76078754,9.5672409 9.82865255,9.46469246 C9.89651755,9.36214401 10.1609018,8.91239145 9.82865255,8.76163222 C9.49640331,8.61087299 8.76602017,8.09651744 8.37614823,8.04796202 C8.1162336,8.01559174 7.65039176,8.04133627 6.97862271,8.12519561 Z M3.29270904,6.16708804 C3.72890109,5.2692023 4.03509589,4.69894004 4.21129345,4.45630125 C4.4755898,4.09234307 5.36217256,3.73765051 5.89770058,3.73535495 C6.4332286,3.7330594 8.48417089,3.98786599 8.92626121,4.14551877 C9.36835154,4.30317155 10.692657,4.92578527 10.9782619,6.35302799 C11.2638667,7.7802707 11.2104198,7.79300733 11.2638667,7.99975537 C11.299498,8.13758739 11.3173137,8.43845318 11.3173137,8.90235272 C10.9120642,8.77375229 10.6579328,8.68953257 10.5549196,8.64969359 C10.4003996,8.58993511 9.74117571,7.96742982 8.49367665,7.7666058 C7.24617758,7.56578177 6.57799655,7.76175816 6.40888641,7.88075677 C6.29614633,7.96008917 6.2472875,7.99975537 6.26230993,7.99975537 C6.04402111,7.90211404 5.8994767,7.84876186 5.8286767,7.83969883 C5.87469262,7.71337393 5.86102628,7.57835603 5.78767769,7.43464511 C5.6776548,7.21907874 4.84690148,6.89714827 4.79609711,6.86265771 C4.74529273,6.82816716 3.51468896,6.27646617 3.20747945,6.26335976 L3.29270904,6.16708804 Z M11.488945,6.58678258 C11.7291843,7.7427416 11.7752939,8.50746281 11.6272738,8.88094621 C12.1941701,8.99466648 12.5885999,9.02309655 12.810563,8.96623641 C13.1435078,8.88094621 15.0070224,8.00390077 15.3300074,7.17735936 C15.6529925,6.35081794 15.7233138,6.2427147 15.6529925,6.01310617 C15.5826712,5.78349765 15.1187417,5.09437644 14.4256895,4.96424852 C13.7326373,4.8341206 13.2964239,4.75193455 12.9531674,4.96424852 C12.6099109,5.1765625 11.4753133,5.66977738 11.3958875,5.84144178 C11.3164616,6.01310617 11.488945,6.17880864 11.488945,6.13283766 C11.488945,6.08686668 12.1476414,5.65238428 12.4312908,5.53753075 C12.7149401,5.42267722 13.179775,5.20676637 13.6795191,5.19331505 C14.1792631,5.17986374 14.8810174,5.33571176 15.026489,5.43662125 C15.1719605,5.53753075 14.9550611,5.43662125 13.8167915,5.43662125 C13.0579451,5.43662125 12.2819963,5.82000836 11.488945,6.58678258 Z"/>
    <path fill="#CADDF1" d="M4.84694139,7.47480876 C4.8966056,7.51376666 4.92311442,7.57159581 4.92646785,7.64829623 C4.93149798,7.76334685 4.78859181,8.03350641 4.70416097,8.17176425 C4.61973013,8.31002208 4.55172269,8.17176425 4.56138055,7.93846031 C4.56781913,7.78292435 4.66300607,7.62837383 4.84694139,7.47480876 Z M8.2452009,8.43315335 C8.30110248,8.51143048 8.32316801,8.60765733 8.31139749,8.72183391 C8.29374171,8.89309878 8.09481659,8.90434355 7.97769825,8.99042211 C7.86057991,9.07650067 7.9277993,8.86684739 7.95274877,8.72405651 C7.96938176,8.62886259 8.0668658,8.53189487 8.2452009,8.43315335 Z"/>
    <path fill="#EDF2F7" d="M4.08241754 8.28136027C3.17606471 8.22805696 2.68872124 8.11022986 2.62038713 7.92787897 2.93590602 7.21106429 3.13125966 6.82397555 3.20644804 6.76661276 3.31923061 6.68056856 4.36660834 7.02831754 4.62817789 7.16720597 4.88974744 7.30609439 5.29303455 7.41492361 5.20480223 7.7666058 5.11656991 8.11828798 4.99052854 8.19769023 4.62817789 8.28136027 4.50141315 8.28136027 4.31949303 8.28136027 4.08241754 8.28136027zM7.02818957 8.35479526C6.75147736 8.59518695 6.68866147 8.8385456 6.83974189 9.08487119 7.06636253 9.45435958 7.19849168 9.42624466 7.52941176 9.55031372 7.86033185 9.67438279 8.00410151 9.77703021 8.81844247 9.70699246 9.63278342 9.63695471 9.76078754 9.5672409 9.82865255 9.46469246 9.89651755 9.36214401 10.1609018 8.91239145 9.82865255 8.76163222 9.49640331 8.61087299 8.76602017 8.40335068 8.37614823 8.35479526 8.1162336 8.32242498 7.66691405 8.32242498 7.02818957 8.35479526z"/>
    <path fill="#EDF2F7" d="M1.45623499,12.8285661 C1.6880653,13.0332407 1.9273545,13.1810448 2.17410259,13.2719784 C2.54422472,13.4083788 2.91487603,13.135578 3.01216916,13.135578 C3.1094623,13.135578 3.27766527,12.8285661 2.76519429,12.5369566 C2.42354696,12.3425502 1.94414043,12.2116049 1.3269747,12.1441205 C1.3269747,11.603413 1.653978,10.3193092 2.30798459,8.29180918 C2.47655575,8.59138308 2.95510405,8.81978661 3.74362949,8.97701977 C4.92641766,9.21286952 5.51909268,8.33931183 5.62893489,8.30813672 C5.70216303,8.2873533 5.82590267,8.34088407 6.00015381,8.46872902 C5.98866309,10.0017154 7.44270009,10.487488 8,10.5068891 C8.55729991,10.5262903 9.84325089,10.1546149 10.2551781,9.82738728 C10.5297962,9.60923552 10.6282737,9.45871279 10.5506105,9.37581909 L11.2638667,9.60241257 C11.2631108,9.4006081 11.1665232,9.54555238 10.974104,10.0372454 C10.6854753,10.774785 9.09151591,11.7894202 8.58093484,12.0438566 C8.07035378,12.2982929 6.96505237,12.7245997 6.48985063,13.135578 C6.01464889,13.5465564 3.15610555,13.7719651 2.17410259,13.6383786 C1.51943395,13.5493209 1.28014475,13.2793834 1.45623499,12.8285661 Z M3.29270904,6.16708804 C3.72890109,5.2692023 4.03509589,4.69894004 4.21129345,4.45630125 C4.4755898,4.09234307 5.36217256,3.73765051 5.89770058,3.73535495 C6.4332286,3.7330594 8.48417089,3.98786599 8.92626121,4.14551877 C9.36835154,4.30317155 10.692657,4.92578527 10.9782619,6.35302799 C11.2638667,7.7802707 11.2104198,7.79300733 11.2638667,7.99975537 C11.299498,8.13758739 11.3173137,8.43845318 11.3173137,8.90235272 C10.9120642,8.77375229 10.6579328,8.68953257 10.5549196,8.64969359 C10.4003996,8.58993511 9.82843391,7.76724503 8.58093484,7.56642101 C7.33343578,7.36559698 6.69382972,7.67148914 6.54725323,7.74107322 C6.44953557,7.78746261 6.40067674,7.82712881 6.40067674,7.86007182 C6.18238793,7.7624305 6.03784352,7.70907832 5.96704351,7.70001528 C6.06246564,7.54931049 6.0735024,7.40210263 6.00015381,7.25839172 C5.89013092,7.04282535 5.02240248,6.60049994 4.9715981,6.56600939 C4.92079372,6.53151884 3.51468896,6.27646617 3.20747945,6.26335976 L3.29270904,6.16708804 Z"/>
    <path stroke="#000000" stroke-width=".5" d="M4.06232854,7.95117198 C3.91623646,7.85351595 4.05256091,7.48583437 4.20842062,7.29024203 C4.36428033,7.09464969 4.38935938,6.97877574 4.62504967,7.00323979 C4.86073996,7.02770385 5.13169932,7.24824412 4.9285854,7.47558599 C4.79317612,7.62714724 4.6606064,7.7856759 4.53087625,7.95117198 C4.31590583,8.01627601 4.15972326,8.01627601 4.06232854,7.95117198 Z M8,9.05296639 C7.85390792,8.95531036 7.84414029,8.85369291 8,8.65810056 C8.15585971,8.46250822 8.09163713,8.30039576 8.32732742,8.32485982 C8.56301771,8.34932387 8.83397707,8.56986414 8.63086315,8.79720601 C8.49545387,8.94876726 8.39427529,9.06114339 8.32732742,9.1343344 C8.20650386,9.14519308 8.09739472,9.11807041 8,9.05296639 Z"/>
    <path fill="#FBDBDB" d="M5.03603461,3.46696444 C5.15457816,2.83214121 5.43079971,2.31136674 5.86469927,1.90464103 C6.51554861,1.29455245 6.81866463,1.16388254 6.91328149,1.01468627 C7.00789835,0.865490001 7.60235987,0.850314159 7.89340356,0.865490001 C8.18444724,0.880665844 8.40753379,1.24690622 8.31809797,1.64004923 C8.25847408,1.90214457 8.07381778,2.23118442 7.76412905,2.6271688 C7.62938847,2.88144628 7.59570332,3.02796542 7.66307361,3.06672623 C7.76412905,3.12486744 8.11794884,2.8951111 8.31809797,2.39987607 C8.51824709,1.90464103 8.84746951,0.638689993 8.01784913,0.54187009 C7.46476887,0.477323488 6.98469266,0.585196791 6.57762049,0.865490001 C6.04204511,1.31646217 5.70432176,1.66284584 5.56445043,1.90464103 C5.35464344,2.26733381 4.78875311,3.20345663 4.77532264,3.39438646 C4.76189218,3.5853163 4.65334184,3.24356421 4.76189218,2.9353665 C4.87044252,2.6271688 5.30967403,1.64133031 5.49875685,1.44266473 C5.68783968,1.24399916 6.4156501,0.716096644 6.4966353,0.628983367 C6.57762049,0.54187009 7.27238292,0.235889631 7.76412905,0.289054352 C8.25587518,0.342219073 8.79274163,0.90993354 8.78373769,1.10978165 C8.77473374,1.30962975 8.6327833,2.31049627 8.38862048,2.68861125 C8.14445766,3.06672623 7.92931873,3.39438646 7.76412905,3.39438646 C7.59893937,3.39438646 6.92035924,3.53954241 6.74898986,3.46696444 C6.57762049,3.39438646 5.79865358,3.32180849 5.56445043,3.39438646 C5.408315,3.44277178 5.23217639,3.46696444 5.03603461,3.46696444 Z M11.6819149,6.61893304 C12.2548047,6.10060553 12.9206727,5.84144178 13.6795191,5.84144178 C14.8177886,5.84144178 14.6723588,5.77467792 14.7295514,6.01310617 C14.7867441,6.25153443 14.885573,6.26587264 14.9461359,6.13283766 C15.0066987,5.99980268 15.1719605,5.53753075 15.026489,5.43662125 C14.8810174,5.33571176 14.1792631,5.17986374 13.6795191,5.19331505 C13.179775,5.20676637 12.7149401,5.42267722 12.4312908,5.53753075 C12.1476414,5.65238428 11.488945,6.08686668 11.488945,6.13283766 C11.488945,6.17880864 11.3164616,6.01310617 11.3958875,5.84144178 C11.4753133,5.66977738 12.6099109,5.1765625 12.9531674,4.96424852 C13.2964239,4.75193455 13.7326373,4.8341206 14.4256895,4.96424852 C15.1187417,5.09437644 15.5826712,5.78349765 15.6529925,6.01310617 C15.7233138,6.2427147 15.2691209,6.32703031 14.9461359,7.15357172 C14.6231508,7.98011314 13.1561308,8.54456878 12.8231861,8.62985898 C12.6012229,8.68671912 12.3214649,8.75117429 11.9839119,8.8232245 C12.1319321,8.4497411 12.0312664,7.71497728 11.6819149,6.61893304 Z"/>
  </g>
</svg>
