<svg viewBox="0 0 16 16" fill="none" xmlns="http://www.w3.org/2000/svg">
<g id="php">
<path id="Shape" fill-rule="evenodd" clip-rule="evenodd" d="M5.97072 10.1917C6.05917 10.5873 6.05917 10.9843 5.88227 11.3798C6.27679 11.5558 6.27679 11.9077 6.27679 12.2597H6.32031C6.75975 12.3033 7.15427 12.3033 7.54878 12.171C7.72428 12.1274 7.7678 12.0823 7.72428 11.9063C7.68075 11.598 7.63583 11.2461 7.5923 10.9378C7.5923 10.6731 7.63583 10.4099 7.81132 10.1903C7.9433 9.97067 8.07527 9.92562 8.33781 10.0143C8.82077 10.1903 9.30374 10.1903 9.7853 9.92562C9.96079 9.83693 10.1363 9.88198 10.2683 10.0143C10.4002 10.1903 10.4438 10.4099 10.4002 10.6309C10.3567 10.8519 10.3118 11.1152 10.2247 11.3784C10.5757 11.5544 10.5322 11.9063 10.5322 12.2583H11.4981C11.6736 12.2583 11.8926 12.2146 12.0681 12.126C12.3321 12.0373 12.4191 11.8613 12.3756 11.598C12.3321 11.0701 12.2436 10.5859 12.2001 10.0579C12.2001 9.83834 12.2001 9.61732 12.2436 9.35407C12.2436 9.31043 12.2872 9.1781 12.3321 9.13446C12.7715 8.69383 13.0341 8.12227 13.2096 7.55072C13.2096 7.50708 13.2096 7.41839 13.2531 7.37475C13.2531 7.28606 13.2966 7.28606 13.3851 7.37475C13.4286 7.46344 13.517 7.55072 13.5606 7.63941C13.649 7.7281 13.7361 7.81538 13.8245 7.85902C13.913 7.94771 14 7.90266 14 7.81538C13.9565 7.63941 13.9565 7.46344 13.9116 7.33111C13.6041 6.23165 13.0341 5.3518 12.0681 4.7352C11.4532 4.33961 10.7962 4.1186 10.0492 4.07496C9.43431 3.98627 8.82077 4.03131 8.20584 4.16364C8.11739 4.16364 8.07386 4.20729 8.03034 4.20729C7.94189 4.25093 7.89837 4.33961 7.94189 4.4269C7.94189 4.60287 7.98541 4.7352 8.03034 4.91117C8.16231 5.74738 8.07386 6.53854 7.54738 7.19878C7.10794 7.81538 6.45088 8.07863 5.70397 7.99135C5.48495 7.99135 5.35298 7.85902 5.26453 7.68305C5.04551 7.37475 5.00058 7.02281 4.91354 6.67087C4.95706 6.71451 4.95706 6.75956 5.00199 6.8032C5.00199 6.8032 5.00199 6.84684 5.04551 6.89189L5.44003 7.55213C5.65904 7.81679 5.83454 7.86043 6.18553 7.77174C6.97596 7.55213 7.5895 6.84825 7.67795 6.01204C7.67795 5.57141 7.67795 5.17583 7.54597 4.78024C7.32695 4.16364 6.88751 3.85675 6.27398 3.76806C5.52848 3.63573 4.87002 3.76806 4.16803 3.94403C3.90409 4.03272 3.64155 4.07636 3.42253 4.16364C3.07154 4.33961 2.85252 4.64792 2.67702 4.95622C2.15054 5.74879 1.93152 6.67228 2.01856 7.63941C2.06209 8.47562 2.41308 9.1795 3.11506 9.75106C3.37901 9.97067 3.64155 10.2353 3.90549 10.4549C3.99394 10.4986 4.03746 10.5873 4.03746 10.6745C4.12591 10.8069 4.08099 10.9392 3.94901 11.0701C3.90549 11.0701 3.86057 11.1138 3.81704 11.1588C3.59802 11.2911 3.5531 11.4671 3.72859 11.6431C3.90409 11.7754 4.07958 11.8627 4.2986 11.8627C4.34213 11.8627 4.38705 11.8627 4.43057 11.8191C4.78157 11.5108 4.95706 11.1588 5.00058 10.7196C5.00058 10.5 4.91213 10.324 4.78157 10.1917C4.69312 10.0157 4.51762 9.88339 4.38705 9.70742C4.34353 9.61873 4.25508 9.53145 4.16803 9.39912C4.12451 9.31043 4.07958 9.22315 4.12451 9.09082C4.21296 9.00213 4.34353 8.91485 4.4755 8.95849C4.651 9.00213 4.82649 9.09082 4.95847 9.1781C5.13396 9.22174 5.26593 9.31043 5.39791 9.39771C5.79242 9.53004 5.92439 9.83834 5.96792 10.1903L5.97072 10.1917ZM3.55731 8.87121C3.38181 9.00354 3.20632 9.04718 2.9873 9.04718H2.72335C2.59138 9.00354 2.54786 8.91485 2.59138 8.78252C2.6349 8.73888 2.6349 8.69383 2.67983 8.69383C2.85533 8.47422 2.9873 8.29825 3.16279 8.12228C3.20632 8.03359 3.29477 8.03359 3.38181 8.07864C3.55731 8.16733 3.7328 8.43058 3.68928 8.65019C3.68928 8.69383 3.60083 8.78252 3.55731 8.8698V8.87121ZM3.60083 6.84825C3.60083 6.98058 3.46886 7.11291 3.33689 7.11291C3.16139 7.11291 3.07294 6.98058 3.02942 6.84825C3.02942 6.67228 3.16139 6.53995 3.29336 6.53995C3.46886 6.58359 3.55731 6.67228 3.60083 6.84825Z" fill="#E382BC"/>
</g>
</svg>
