<svg viewBox="0 0 16 16" fill="none" xmlns="http://www.w3.org/2000/svg">
    <g>
        <g>
            <path fill-rule="evenodd" clip-rule="evenodd" d="M7.645 2.64749C7.833 2.45849 8.167 2.45849 8.355 2.64749C8.524 2.81849 12.5 6.85549 12.5 9.49999C12.5 12.317 10.212 14 8 14C5.788 14 3.5 12.317 3.5 9.49999C3.5 6.85549 7.476 2.81849 7.645 2.64749ZM8 11.5C8.27614 11.5 8.5 11.2761 8.5 11C8.5 10.7238 8.27614 10.5 8 10.5C7.99 10.5 7 10.473 7 9.49997C7 9.22383 6.77614 8.99997 6.5 8.99997C6.22386 8.99997 6 9.22383 6 9.49997C6 10.957 7.227 11.5 8 11.5Z" fill="#70E3EB"/>
        </g>
    </g>
</svg>
