<?xml version="1.0" encoding="UTF-8" standalone="no"?>
<!DOCTYPE svg PUBLIC "-//W3C//DTD SVG 1.1//EN" "http://www.w3.org/Graphics/SVG/1.1/DTD/svg11.dtd">
<svg width="100%" height="100%" viewBox="0 0 16 16" version="1.1" xmlns="http://www.w3.org/2000/svg" xmlns:xlink="http://www.w3.org/1999/xlink" xml:space="preserve" xmlns:serif="http://www.serif.com/" style="fill-rule:evenodd;clip-rule:evenodd;stroke-linejoin:round;stroke-miterlimit:2;">
    <g transform="matrix(0.632711,0,0,0.535801,-2.01701,-0.653488)">
        <path d="M15.942,24.095C14.758,24.1 13.578,23.968 12.424,23.702C12.081,23.625 11.745,23.521 11.418,23.391L12.231,24.78L12.549,29.12C12.549,29.607 14.095,30.001 16.001,30.001C17.907,30.001 19.453,29.607 19.453,29.12L19.705,24.733L20.474,23.387C20.145,23.519 19.805,23.624 19.459,23.702C18.306,23.968 17.126,24.1 15.942,24.095ZM20.5,9.973C19.007,10.159 17.504,10.246 16,10.234C14.496,10.246 12.993,10.159 11.5,9.973C11.026,9.915 10.558,9.818 10.1,9.681C9.981,9.644 9.865,9.596 9.755,9.538L10.5,16.4C10.535,16.282 10.573,16.164 10.616,16.046C10.702,15.805 10.803,15.569 10.916,15.339C11.028,15.114 11.154,14.896 11.292,14.686C11.423,14.487 11.567,14.298 11.724,14.12C11.866,13.957 12.024,13.808 12.194,13.675C12.343,13.558 12.507,13.46 12.681,13.384C12.835,13.318 13.001,13.284 13.168,13.284C13.358,13.285 13.544,13.338 13.706,13.436C13.903,13.561 14.069,13.729 14.192,13.928C14.225,13.974 14.247,14.027 14.258,14.082C14.267,14.13 14.272,14.18 14.272,14.229C14.277,14.321 14.25,14.412 14.194,14.486C14.15,14.545 14.082,14.579 14.009,14.58C13.936,14.576 13.869,14.54 13.827,14.48C13.756,14.387 13.693,14.289 13.639,14.185C13.588,14.086 13.514,14 13.424,13.934C13.349,13.883 13.26,13.856 13.169,13.856C13.002,13.865 12.842,13.927 12.712,14.033C12.532,14.168 12.371,14.325 12.231,14.501C12.061,14.711 11.909,14.933 11.774,15.167C11.63,15.414 11.501,15.671 11.388,15.934C11.28,16.185 11.191,16.444 11.121,16.708C11.059,16.931 11.025,17.161 11.021,17.393C11.021,17.463 11.026,17.532 11.035,17.601C11.043,17.668 11.06,17.733 11.087,17.795C11.109,17.85 11.143,17.899 11.187,17.938C11.234,17.976 11.293,17.996 11.353,17.994C11.444,17.99 11.532,17.964 11.61,17.918C11.716,17.861 11.816,17.794 11.91,17.718C12.018,17.631 12.122,17.538 12.22,17.439C12.324,17.336 12.421,17.231 12.51,17.124C12.599,17.017 12.679,16.915 12.748,16.818C12.807,16.737 12.859,16.652 12.904,16.563L13.188,15.713C13.212,15.634 13.259,15.564 13.324,15.513C13.374,15.476 13.435,15.456 13.497,15.455C13.526,15.455 13.555,15.46 13.582,15.469C13.642,15.489 13.69,15.535 13.712,15.594C13.726,15.63 13.733,15.669 13.732,15.708C13.732,15.817 13.722,15.927 13.701,16.034C13.681,16.135 13.655,16.236 13.623,16.334C13.592,16.431 13.557,16.528 13.518,16.625C13.479,16.722 13.442,16.824 13.405,16.931C13.387,16.968 13.372,17.006 13.361,17.045C13.34,17.112 13.314,17.192 13.283,17.286C13.252,17.38 13.219,17.488 13.183,17.61L13.073,17.975C13.035,18.099 12.999,18.221 12.965,18.34C12.931,18.459 12.9,18.567 12.872,18.664L12.803,18.906C12.785,18.971 12.773,19.006 12.769,19.022C12.757,19.066 12.74,19.109 12.72,19.15C12.698,19.197 12.671,19.242 12.641,19.284C12.613,19.322 12.579,19.356 12.541,19.384C12.509,19.41 12.469,19.425 12.428,19.426C12.373,19.431 12.319,19.406 12.286,19.361C12.25,19.287 12.235,19.204 12.242,19.122L12.242,19.071C12.241,19.053 12.241,19.035 12.242,19.017C12.255,18.943 12.274,18.87 12.3,18.8C12.329,18.694 12.362,18.574 12.4,18.44C12.438,18.306 12.481,18.167 12.528,18.024C12.574,17.881 12.615,17.752 12.652,17.639C12.544,17.76 12.427,17.88 12.301,17.999C12.179,18.115 12.049,18.222 11.913,18.321C11.788,18.412 11.654,18.49 11.513,18.554C11.392,18.611 11.259,18.642 11.125,18.644C10.996,18.647 10.869,18.615 10.757,18.55C10.738,18.539 10.721,18.526 10.704,18.513L11.119,22.865C11.227,23.136 13.261,23.801 15.944,23.801C18.627,23.801 20.663,23.135 20.769,22.864L21.369,17.69L21.226,17.822C21.072,17.967 20.91,18.104 20.742,18.232C20.605,18.338 20.456,18.427 20.298,18.498C20.152,18.561 19.993,18.593 19.834,18.592C19.706,18.6 19.58,18.565 19.475,18.492C19.391,18.425 19.343,18.322 19.348,18.214L19.348,18.187C19.347,18.177 19.347,18.166 19.348,18.156C19.362,18.067 19.395,17.982 19.443,17.906C19.504,17.804 19.57,17.706 19.643,17.613C19.72,17.512 19.803,17.409 19.89,17.305C19.977,17.201 20.058,17.103 20.133,17.01C20.199,16.928 20.261,16.843 20.318,16.755C20.359,16.7 20.384,16.635 20.391,16.567C20.392,16.54 20.381,16.515 20.36,16.498C20.33,16.479 20.295,16.47 20.26,16.473C20.172,16.474 20.086,16.496 20.008,16.536C19.916,16.582 19.829,16.639 19.751,16.706C19.663,16.781 19.58,16.863 19.504,16.95C19.424,17.041 19.348,17.137 19.278,17.236C19.208,17.335 19.144,17.435 19.086,17.536C19.028,17.637 18.979,17.73 18.938,17.813L18.886,17.925C18.863,17.973 18.839,18.027 18.813,18.088C18.787,18.149 18.759,18.211 18.729,18.274C18.7,18.341 18.673,18.401 18.648,18.455L18.582,18.607C18.563,18.652 18.549,18.682 18.541,18.699C18.533,18.716 18.516,18.757 18.491,18.822C18.468,18.882 18.441,18.953 18.41,19.034L18.31,19.289L18.215,19.542L18.137,19.752C18.115,19.812 18.1,19.852 18.094,19.875C18.074,19.936 18.05,19.995 18.022,20.052C17.996,20.105 17.964,20.154 17.927,20.199C17.893,20.24 17.851,20.273 17.805,20.299C17.758,20.325 17.705,20.338 17.651,20.337C17.586,20.34 17.522,20.322 17.469,20.285C17.415,20.234 17.388,20.159 17.397,20.085C17.397,20.035 17.403,19.985 17.415,19.937C17.427,19.886 17.443,19.836 17.461,19.787C17.479,19.737 17.498,19.687 17.518,19.642C17.538,19.597 17.555,19.55 17.571,19.506C17.681,19.265 17.793,19.023 17.907,18.781C18.021,18.539 18.13,18.299 18.235,18.061C18.257,18.011 18.277,17.961 18.298,17.914L18.279,17.933C18.153,18.054 18.019,18.167 17.879,18.271C17.757,18.363 17.626,18.441 17.488,18.504C17.37,18.559 17.241,18.589 17.111,18.591C17.039,18.593 16.968,18.58 16.902,18.551C16.849,18.527 16.803,18.49 16.768,18.443C16.733,18.394 16.708,18.339 16.696,18.28C16.696,18.259 16.688,18.236 16.685,18.214C16.649,18.242 16.613,18.269 16.577,18.295C16.46,18.379 16.335,18.451 16.204,18.51C16.101,18.56 15.988,18.587 15.874,18.591C15.784,18.594 15.697,18.557 15.636,18.491C15.566,18.395 15.533,18.276 15.545,18.158C15.547,18.028 15.564,17.898 15.594,17.771C15.536,17.872 15.469,17.968 15.394,18.057C15.313,18.155 15.222,18.243 15.122,18.321C15.018,18.402 14.903,18.467 14.78,18.514C14.649,18.564 14.509,18.589 14.368,18.588C14.303,18.588 14.237,18.58 14.174,18.563C14.114,18.547 14.058,18.517 14.011,18.476C13.961,18.431 13.922,18.374 13.898,18.311C13.867,18.228 13.852,18.14 13.855,18.052C13.858,17.964 13.855,18.013 13.867,17.942C13.885,17.828 13.911,17.716 13.945,17.606C13.989,17.453 14.056,17.253 14.145,17.006C14.234,16.759 14.364,16.464 14.533,16.12C14.564,16.042 14.615,15.973 14.681,15.92C14.734,15.881 14.798,15.86 14.863,15.86C14.893,15.86 14.923,15.865 14.952,15.873C14.983,15.881 15.012,15.895 15.038,15.913C15.064,15.931 15.086,15.955 15.102,15.982C15.119,16.012 15.128,16.047 15.126,16.082C15.126,16.105 15.123,16.129 15.117,16.151C15.101,16.207 15.079,16.261 15.051,16.312C15.018,16.379 14.978,16.455 14.933,16.54C14.888,16.625 14.84,16.718 14.791,16.817C14.741,16.916 14.695,17.018 14.652,17.124C14.609,17.23 14.573,17.338 14.542,17.448C14.512,17.552 14.495,17.66 14.49,17.768C14.49,17.81 14.5,17.851 14.521,17.887C14.541,17.923 14.58,17.944 14.621,17.941C14.758,17.939 14.891,17.894 15,17.811C15.125,17.719 15.238,17.61 15.333,17.487C15.436,17.356 15.528,17.217 15.609,17.071C15.692,16.923 15.76,16.787 15.815,16.664C15.854,16.578 15.888,16.49 15.915,16.4C15.944,16.312 15.977,16.225 16.015,16.14C16.045,16.068 16.085,16.001 16.134,15.94C16.175,15.889 16.237,15.859 16.302,15.86C16.37,15.857 16.435,15.889 16.476,15.943C16.519,16 16.542,16.071 16.54,16.143C16.536,16.205 16.522,16.265 16.499,16.322C16.472,16.398 16.438,16.485 16.399,16.582C16.36,16.679 16.314,16.784 16.263,16.895C16.214,17.006 16.169,17.119 16.127,17.233C16.088,17.343 16.054,17.455 16.027,17.569C16.001,17.669 15.987,17.772 15.986,17.875C15.985,17.88 15.985,17.885 15.985,17.889C15.985,17.954 16.038,18.006 16.102,18.006C16.108,18.006 16.114,18.006 16.12,18.005C16.202,18 16.282,17.978 16.355,17.94C16.46,17.89 16.559,17.828 16.65,17.757C16.676,17.737 16.702,17.717 16.727,17.696C16.753,17.585 16.786,17.476 16.827,17.369C16.898,17.181 16.971,16.994 17.044,16.808L17.244,16.298L18.169,13.965C18.195,13.884 18.247,13.814 18.317,13.765C18.373,13.728 18.438,13.708 18.505,13.707C18.568,13.707 18.628,13.728 18.677,13.768C18.733,13.818 18.762,13.893 18.755,13.968C18.754,14.015 18.745,14.061 18.729,14.105C18.71,14.158 18.688,14.21 18.663,14.261C18.612,14.374 18.552,14.513 18.481,14.677C18.41,14.841 18.335,15.019 18.255,15.212C18.174,15.405 18.092,15.605 18.008,15.812L17.761,16.421C17.681,16.621 17.606,16.808 17.535,16.983L17.353,17.444C17.328,17.508 17.306,17.572 17.287,17.638C17.267,17.703 17.256,17.77 17.255,17.838C17.254,17.868 17.26,17.898 17.273,17.925C17.288,17.948 17.315,17.961 17.343,17.958C17.399,17.954 17.453,17.939 17.503,17.913C17.575,17.878 17.645,17.839 17.711,17.794C17.786,17.745 17.863,17.688 17.943,17.624C18.023,17.56 18.103,17.493 18.183,17.424C18.262,17.357 18.338,17.289 18.411,17.218C18.484,17.147 18.548,17.084 18.605,17.028C18.618,17.015 18.634,17.004 18.652,16.997C18.686,16.897 18.718,16.797 18.745,16.697C18.761,16.654 18.783,16.592 18.812,16.512C18.841,16.432 18.875,16.354 18.912,16.277C18.945,16.206 18.987,16.139 19.036,16.077C19.071,16.03 19.126,16.002 19.185,16C19.249,15.994 19.313,16.014 19.362,16.056C19.402,16.101 19.421,16.161 19.417,16.221C19.416,16.244 19.414,16.267 19.411,16.29C19.411,16.321 19.402,16.355 19.396,16.39C19.39,16.425 19.383,16.458 19.376,16.49C19.371,16.513 19.364,16.537 19.356,16.559C19.431,16.477 19.513,16.396 19.6,16.315C19.685,16.236 19.776,16.163 19.872,16.096C19.962,16.033 20.058,15.98 20.159,15.937C20.252,15.897 20.351,15.877 20.452,15.876C20.52,15.876 20.587,15.886 20.652,15.905C20.715,15.923 20.775,15.952 20.829,15.99C20.881,16.027 20.924,16.075 20.956,16.131C20.99,16.192 21.007,16.261 21.005,16.331C21.003,16.441 20.977,16.549 20.93,16.648C20.877,16.766 20.814,16.879 20.742,16.986C20.667,17.099 20.585,17.21 20.498,17.317C20.411,17.424 20.329,17.522 20.252,17.61L20.059,17.834C20.023,17.869 19.995,17.912 19.978,17.959C19.978,17.985 19.988,18.011 20.006,18.03C20.032,18.051 20.065,18.06 20.098,18.057C20.153,18.05 20.205,18.03 20.251,17.999C20.349,17.939 20.444,17.872 20.533,17.799C20.654,17.704 20.808,17.576 20.994,17.416C21.122,17.306 21.271,17.175 21.44,17.026L22.248,9.546C22.138,9.604 22.022,9.652 21.903,9.689C21.444,9.823 20.975,9.918 20.5,9.973ZM16,8.2C12.508,8.2 9.678,8.59 9.678,9.072C9.678,9.554 12.5,9.942 16,9.942C19.5,9.942 22.322,9.552 22.322,9.07C22.322,8.588 19.488,8.2 16,8.2ZM18.524,9.327C18.524,9.44 18.188,9.527 17.773,9.527C17.358,9.527 17.022,9.435 17.022,9.327C17.022,9.219 17.358,9.127 17.773,9.127C18.188,9.127 18.521,9.212 18.521,9.325L18.524,9.327Z" style="fill:rgb(218,70,72);fill-rule:nonzero;"/>
    </g>
    <g transform="matrix(0.632711,0,0,0.535801,-2.01701,-0.653488)">
        <path d="M17.17,9.234C17.166,9.239 17.164,9.246 17.164,9.252C17.164,9.325 17.435,9.384 17.764,9.384C18.093,9.384 18.364,9.325 18.364,9.252L19.154,6.052L22.296,2.735C22.362,2.66 22.228,2.427 22.004,2.227C21.78,2.027 21.538,1.96 21.463,2.036L18.122,5.559L17.17,9.234Z" style="fill:rgb(218,70,72);fill-rule:nonzero;"/>
    </g>
</svg>
