<svg xmlns="http://www.w3.org/2000/svg" viewBox="0 0 16 16">
  <g>
    <g>
      <path fill-rule="evenodd" clip-rule="evenodd" d="M9.24336 7.92611C9.22006 7.79762 9.23579 7.66509 9.28852 7.54561C9.33873 7.42845 9.4221 7.32853 9.52838 7.25815C9.63465 7.18777 9.75919 7.15 9.88665 7.1495H9.9223C10.1324 7.1495 10.3339 7.06603 10.4825 6.91746C10.6311 6.76888 10.7145 6.56738 10.7145 6.35727C10.7145 6.14715 10.6311 5.94565 10.4825 5.79707C10.3339 5.6485 10.1324 5.56504 9.9223 5.56504H9.85496C9.7275 5.56453 9.60296 5.52676 9.49669 5.45638C9.39042 5.386 9.30704 5.28608 9.25683 5.16892V5.13723C9.2041 5.01776 9.18837 4.88523 9.21167 4.75673C9.23497 4.62823 9.29623 4.50966 9.38755 4.4163L9.41131 4.39253C9.48497 4.31896 9.54341 4.23158 9.58327 4.13541C9.62314 4.03923 9.64366 3.93614 9.64366 3.83203C9.64366 3.72792 9.62314 3.62483 9.58327 3.52866C9.54341 3.43248 9.48497 3.34511 9.41131 3.27153C9.33774 3.19787 9.25036 3.13944 9.15419 3.09957C9.05801 3.0597 8.95492 3.03918 8.85081 3.03918C8.7467 3.03918 8.64361 3.0597 8.54743 3.09957C8.45126 3.13944 8.36388 3.19787 8.29031 3.27153L8.26654 3.2953C8.17318 3.38662 8.05461 3.44787 7.92611 3.47117C7.79762 3.49447 7.66509 3.47874 7.54561 3.42601C7.42845 3.3758 7.32853 3.29243 7.25815 3.18615C7.18777 3.07988 7.15 2.95534 7.1495 2.82788V2.79223C7.1495 2.58212 7.06603 2.38061 6.91746 2.23204C6.76888 2.08347 6.56738 2 6.35727 2C6.14715 2 5.94565 2.08347 5.79707 2.23204C5.6485 2.38061 5.56504 2.58212 5.56504 2.79223V2.85957C5.56453 2.98703 5.52676 3.11157 5.45638 3.21784C5.386 3.32412 5.28608 3.40749 5.16892 3.4577H5.13723C5.01776 3.51043 4.88523 3.52616 4.75673 3.50286C4.62823 3.47956 4.50966 3.4183 4.4163 3.32699L4.39253 3.30322C4.31896 3.22956 4.23158 3.17113 4.13541 3.13126C4.03923 3.09139 3.93614 3.07087 3.83203 3.07087C3.72792 3.07087 3.62483 3.09139 3.52866 3.13126C3.43248 3.17113 3.34511 3.22956 3.27153 3.30322C3.19787 3.3768 3.13944 3.46417 3.09957 3.56034C3.0597 3.65652 3.03918 3.75961 3.03918 3.86372C3.03918 3.96783 3.0597 4.07092 3.09957 4.1671C3.13944 4.26327 3.19787 4.35065 3.27153 4.42422L3.2953 4.44799C3.38662 4.54135 3.44787 4.65992 3.47117 4.78842C3.49447 4.91691 3.47874 5.04945 3.42601 5.16892C3.38074 5.29201 3.29949 5.39863 3.19282 5.47492C3.08615 5.55122 2.95899 5.59366 2.82788 5.59672H2.79223C2.58212 5.59672 2.38061 5.68019 2.23204 5.82876C2.08347 5.97734 2 6.17884 2 6.38895C2 6.59907 2.08347 6.80057 2.23204 6.94915C2.38061 7.09772 2.58212 7.18118 2.79223 7.18118H2.85957C2.98703 7.18169 3.11157 7.21946 3.21784 7.28984C3.32412 7.36022 3.40749 7.46014 3.4577 7.5773C3.51043 7.69677 3.52616 7.82931 3.50286 7.9578C3.47956 8.0863 3.4183 8.20487 3.32699 8.29823L3.30322 8.322C3.22956 8.39557 3.17113 8.48295 3.13126 8.57912C3.09139 8.6753 3.07087 8.77839 3.07087 8.8825C3.07087 8.98661 3.09139 9.0897 3.13126 9.18588C3.17113 9.28205 3.22956 9.36942 3.30322 9.443C3.3768 9.51666 3.46417 9.57509 3.56034 9.61496C3.65652 9.65483 3.75961 9.67535 3.86372 9.67535C3.96783 9.67535 4.07092 9.65483 4.1671 9.61496C4.26327 9.57509 4.35065 9.51666 4.42422 9.443L4.44799 9.41923C4.54135 9.32792 4.65992 9.26666 4.78842 9.24336C4.91691 9.22006 5.04945 9.23579 5.16892 9.28852C5.29201 9.33379 5.39863 9.41504 5.47492 9.52171C5.55122 9.62838 5.59366 9.75554 5.59672 9.88665V9.9223C5.59672 10.1324 5.68019 10.3339 5.82876 10.4825C5.97734 10.6311 6.17884 10.7145 6.38895 10.7145C6.59907 10.7145 6.80057 10.6311 6.94915 10.4825C7.09772 10.3339 7.18118 10.1324 7.18118 9.9223V9.85496C7.18169 9.7275 7.21946 9.60296 7.28984 9.49669C7.36022 9.39042 7.46014 9.30704 7.5773 9.25683C7.69677 9.2041 7.82931 9.18837 7.9578 9.21167C8.0863 9.23497 8.20487 9.29623 8.29823 9.38755L8.322 9.41131C8.39557 9.48497 8.48295 9.54341 8.57912 9.58327C8.6753 9.62314 8.77839 9.64366 8.8825 9.64366C8.98661 9.64366 9.0897 9.62314 9.18588 9.58327C9.28205 9.54341 9.36942 9.48497 9.443 9.41131C9.51666 9.33774 9.57509 9.25036 9.61496 9.15419C9.65483 9.05801 9.67535 8.95492 9.67535 8.85081C9.67535 8.7467 9.65483 8.64361 9.61496 8.54743C9.57509 8.45126 9.51666 8.36388 9.443 8.29031L9.41923 8.26654C9.32792 8.17318 9.26666 8.05461 9.24336 7.92611ZM8.27703 6.39393C8.27703 7.43395 7.43393 8.27705 6.39391 8.27705C5.3539 8.27705 4.5108 7.43395 4.5108 6.39393C4.5108 5.35392 5.3539 4.51082 6.39391 4.51082C7.43393 4.51082 8.27703 5.35392 8.27703 6.39393Z" fill="#CBCEDC"/>
      <path fill-rule="evenodd" clip-rule="evenodd" d="M13.0688 11.2753C13.0304 11.2144 13.0111 11.1434 13.0133 11.0715C13.0148 11.0012 13.0368 10.9329 13.0766 10.875C13.1164 10.8171 13.1722 10.7721 13.2372 10.7455L13.2555 10.7381C13.3629 10.6947 13.4486 10.6105 13.4939 10.5039C13.5391 10.3972 13.5402 10.277 13.4968 10.1696C13.4534 10.0622 13.3691 9.97648 13.2625 9.93123C13.1559 9.88597 13.0357 9.88492 12.9283 9.92831L12.8939 9.94221C12.8286 9.96828 12.7572 9.97469 12.6883 9.96066C12.6195 9.94664 12.5562 9.91278 12.5064 9.86327L12.4998 9.84708C12.4482 9.7969 12.4128 9.73241 12.3982 9.66193C12.3835 9.59144 12.3904 9.51819 12.4177 9.45162L12.425 9.43456C12.4474 9.38175 12.4593 9.32502 12.4598 9.26763C12.4603 9.21025 12.4495 9.15332 12.428 9.10011C12.4065 9.0469 12.3747 8.99844 12.3345 8.95752C12.2943 8.9166 12.2463 8.88401 12.1935 8.86161C12.1407 8.83916 12.084 8.82734 12.0266 8.82682C11.9692 8.8263 11.9123 8.8371 11.8591 8.8586C11.8058 8.8801 11.7574 8.91188 11.7165 8.95211C11.6755 8.99235 11.643 9.04026 11.6206 9.0931L11.6133 9.11015C11.5845 9.17611 11.5365 9.2319 11.4756 9.27034C11.4148 9.30879 11.3438 9.32811 11.2718 9.32584C11.2016 9.32436 11.1333 9.30238 11.0754 9.2626C11.0175 9.22282 10.9725 9.16697 10.9459 9.10193L10.9385 9.0837C10.8951 8.97632 10.8109 8.89056 10.7042 8.84531C10.5976 8.80005 10.4774 8.799 10.37 8.84239C10.2626 8.88578 10.1769 8.97005 10.1316 9.07666C10.0864 9.18328 10.0853 9.3035 10.1287 9.41089L10.1426 9.44531C10.1687 9.51056 10.1751 9.58201 10.161 9.65086C10.147 9.71971 10.1132 9.78296 10.0637 9.83281L10.0475 9.83936C9.99729 9.89098 9.9328 9.92639 9.86231 9.94101C9.79182 9.95564 9.71857 9.94881 9.652 9.92142L9.63494 9.91418C9.58213 9.89173 9.52541 9.8799 9.46802 9.87939C9.41063 9.87887 9.3537 9.88967 9.30049 9.91117C9.24728 9.93267 9.19883 9.96444 9.15791 10.0047C9.11698 10.0449 9.08439 10.0928 9.062 10.1457C9.03954 10.1985 9.02772 10.2552 9.0272 10.3126C9.02669 10.37 9.03749 10.4269 9.05899 10.4801C9.08048 10.5333 9.11226 10.5818 9.1525 10.6227C9.19273 10.6636 9.24064 10.6962 9.29348 10.7186L9.31054 10.7259C9.37649 10.7547 9.43228 10.8027 9.47073 10.8635C9.50917 10.9244 9.5285 10.9954 9.52622 11.0673C9.5285 11.1396 9.50899 11.2109 9.47022 11.2719C9.43146 11.3329 9.37523 11.3808 9.30885 11.4095L9.29063 11.4169C9.18324 11.4602 9.09749 11.5445 9.05223 11.6511C9.00698 11.7577 9.00593 11.878 9.04932 11.9854C9.0927 12.0927 9.17698 12.1785 9.28359 12.2238C9.39021 12.269 9.51043 12.2701 9.61782 12.2267L9.65224 12.2128C9.71749 12.1867 9.78894 12.1803 9.85779 12.1943C9.92664 12.2083 9.98988 12.2422 10.0397 12.2917C10.0914 12.3419 10.1268 12.4064 10.1414 12.4769C10.156 12.5473 10.1492 12.6206 10.1218 12.6872L10.1146 12.7042C10.0921 12.757 10.0803 12.8138 10.0798 12.8712C10.0793 12.9285 10.0901 12.9855 10.1116 13.0387C10.133 13.0919 10.1648 13.1403 10.2051 13.1813C10.2453 13.2222 10.2932 13.2548 10.346 13.2772C10.3989 13.2996 10.4556 13.3114 10.513 13.312C10.5704 13.3125 10.6273 13.3017 10.6805 13.2802C10.7337 13.2587 10.7822 13.2269 10.8231 13.1867C10.864 13.1464 10.8966 13.0985 10.919 13.0457L10.9262 13.0286C10.9551 12.9627 11.003 12.9069 11.0639 12.8684C11.1248 12.83 11.1958 12.8107 11.2677 12.8129C11.34 12.8107 11.4112 12.8302 11.4723 12.8689C11.5333 12.9077 11.5812 12.9639 11.6099 13.0303L11.6172 13.0485C11.6606 13.1559 11.7449 13.2417 11.8515 13.2869C11.9581 13.3322 12.0784 13.3332 12.1857 13.2899C12.2931 13.2465 12.3789 13.1622 12.4241 13.0556C12.4694 12.949 12.4704 12.8287 12.4271 12.7213L12.4131 12.6869C12.3871 12.6217 12.3807 12.5502 12.3947 12.4814C12.4087 12.4125 12.4426 12.3493 12.4921 12.2994C12.5423 12.2478 12.6068 12.2124 12.6772 12.1978C12.7477 12.1831 12.821 12.19 12.8876 12.2174L12.9046 12.2246C12.9574 12.2471 13.0141 12.2589 13.0715 12.2594C13.1289 12.2599 13.1858 12.2491 13.2391 12.2276C13.2923 12.2061 13.3407 12.1743 13.3816 12.1341C13.4226 12.0939 13.4552 12.046 13.4776 11.9931C13.5 11.9403 13.5118 11.8836 13.5123 11.8262C13.5129 11.7688 13.5021 11.7119 13.4806 11.6587C13.4591 11.6055 13.4273 11.557 13.3871 11.5161C13.3468 11.4752 13.2989 11.4426 13.2461 11.4202L13.229 11.4129C13.1631 11.3841 13.1073 11.3361 13.0688 11.2753ZM12.2879 10.658C12.5151 11.2204 12.2435 11.8604 11.6811 12.0876C11.1188 12.3148 10.4787 12.0431 10.2515 11.4808C10.0243 10.9185 10.296 10.2784 10.8584 10.0512C11.4207 9.82402 12.0607 10.0957 12.2879 10.658Z" fill="#6B7394"/>
    </g>
  </g>
</svg>
