<?xml version="1.0" encoding="UTF-8" standalone="no"?>
<svg viewBox="0 0 32 32" version="1.1" xmlns="http://www.w3.org/2000/svg" xmlns:xlink="http://www.w3.org/1999/xlink" xml:space="preserve" xmlns:serif="http://www.serif.com/" style="fill-rule:evenodd;clip-rule:evenodd;stroke-linejoin:round;stroke-miterlimit:2;">
    <path d="M19.513,25.173C19.445,25.173 19.377,25.173 19.313,25.163C19.378,25.169 19.445,25.173 19.513,25.173Z" style="fill:none;fill-rule:nonzero;"/>
    <path d="M18.919,25.087C19.047,25.126 19.178,25.151 19.311,25.163C19.178,25.151 19.047,25.126 18.919,25.087Z" style="fill:none;fill-rule:nonzero;"/>
    <path d="M20.091,27.511C20.07,27.39 20.048,27.29 20.027,27.201C20.048,27.29 20.07,27.39 20.091,27.511Z" style="fill:none;fill-rule:nonzero;"/>
    <path d="M7.436,14.214C7.486,14.17 7.541,14.131 7.6,14.1C7.539,14.128 7.484,14.167 7.436,14.214Z" style="fill:rgb(240,214,183);fill-rule:nonzero;"/>
    <path d="M10.412,18.253C10.472,18.674 10.652,22.417 13.178,24.503C13.691,24.583 14.208,24.637 14.727,24.665C15.007,24.065 16.039,24.111 16.712,24.265C15.868,23.834 15.126,23.228 14.536,22.487C13.75,21.801 13.229,20.861 13.064,19.831C14.412,21.701 15.526,23.331 17.977,24.157C19.832,24.779 21.998,23.872 23.423,22.871C23.972,22.395 24.434,21.826 24.788,21.191C26.404,18.62 27.155,15.598 26.933,12.57C26.979,11.4 26.809,10.232 26.433,9.124C25.98,8.216 24.449,7.404 23.553,8.224C23.538,8.143 23.533,8.06 23.537,7.978C23.394,8.112 23.307,8.21 23.307,8.21C23.233,8.058 23.191,7.892 23.185,7.723C23.211,6.91 23.872,6.249 24.685,6.223C24.259,5.643 23.762,5.118 23.206,4.66C21.256,3.994 19.152,3.916 17.159,4.438C14.35,5.042 12.068,7.104 11.184,9.838C10.993,10.581 10.864,11.337 10.796,12.101C10.765,12.985 11.212,13.756 11.246,14.718C11.007,15.112 10.277,15.161 9.772,15.134C9.735,14.947 9.69,14.755 9.636,14.568C9.238,14.346 8.813,14.178 8.371,14.068C9.169,14.394 9.604,15.273 9.38,16.106C9.007,15.893 8.918,14.956 8.48,14.929C7.854,14.891 7.968,16.145 7.971,16.879C7.531,16.224 7.459,15.386 7.781,14.666C7.497,14.527 7.337,14.727 7.181,14.883C6.959,15.919 6.634,16.756 7.243,17.803C7.595,18.212 8.118,18.434 8.657,18.403C9.224,18.347 9.363,17.779 9.981,17.785C10.215,17.822 10.394,18.017 10.412,18.253ZM16.861,20.2L16.561,20.139C16.561,20.139 16.247,19.039 16.398,18.833C16.478,18.726 16.918,18.565 17.534,18.861C17.53,18.862 16.8,18.984 16.861,20.2ZM22.567,21.541C21.456,21.918 20.249,21.913 19.141,21.527C18.62,21.145 18.183,20.659 17.858,20.1C17.703,19.9 16.931,19.392 17.846,19.391C18.563,21.191 21.026,20.983 23.103,20.934C23.007,21.197 22.816,21.414 22.567,21.542L22.567,21.541ZM22.867,19.941C22.82,19.588 22.82,19.231 22.867,18.878C23.919,18.672 24.924,18.27 25.827,17.693C25.368,18.956 24.206,19.838 22.866,19.939L22.867,19.941ZM25.623,11.868C25.44,11.929 24.253,12.63 24.345,11.746C24.44,11.215 24.845,10.79 25.371,10.669C25.362,10.536 25.362,10.402 25.371,10.269L25.45,10.269C25.783,11.061 26.175,11.826 26.622,12.559C26.305,13.297 24.222,13.949 24.256,12.625C24.706,12.425 25.483,12.585 25.882,12.334C25.788,12.077 25.682,11.834 25.582,11.578L25.623,11.868ZM20.436,16.618C20.454,16.65 20.469,16.684 20.482,16.718C20.573,16.211 20.741,15.618 21.03,15.705C21.318,15.785 21.521,16.045 21.53,16.343C21.193,16.561 20.876,16.808 20.582,17.081C20.647,17.381 20.726,17.681 21.105,17.749C22.211,17.938 23.498,17.072 24.294,16.77C24.787,15.938 24.251,15.632 23.807,15.097C22.897,13.997 21.677,12.641 21.721,10.997C22.089,10.73 22.121,11.404 22.173,11.527C22.848,12.805 23.705,13.98 24.716,15.013C24.93,15.247 25.283,15.472 25.322,15.627C25.435,16.078 25.028,16.618 25.075,16.917C23.808,17.914 22.218,18.413 20.609,18.317C20.144,17.871 20.069,17.146 20.434,16.615L20.436,16.618ZM22.394,18.939C22.458,19.289 22.483,19.645 22.47,20C20.659,20.09 18.518,19.642 18.043,18.371C19.435,18.87 20.919,19.063 22.393,18.936L22.394,18.939ZM18.138,10.291C18.37,10.946 18.7,11.563 19.115,12.12C19.343,12.342 19.785,12.612 19.566,13.229C19.411,13.468 19.187,13.654 18.924,13.763C18.134,13.996 16.293,13.811 16.916,12.826C17.569,12.856 18.448,13.25 18.936,12.776C18.841,12.624 18.727,12.435 18.614,12.225C18.114,12.541 16.74,12.555 16.74,11.746C16.74,10.894 18.079,10.712 18.079,10.712L18.089,10.736C18.074,10.585 18.091,10.432 18.137,10.288L18.138,10.291ZM14.914,7.363C16.109,6.548 16.714,7.013 17.014,7.551C17.23,7.636 17.373,7.847 17.373,8.079C17.373,8.185 17.344,8.289 17.288,8.379C15.63,7.993 14.806,9.073 14.303,10.193C14.174,10.427 14.167,10.261 14.093,10.057C14.064,10.016 14.043,9.97 14.032,9.921C14.007,9.877 13.976,9.836 13.94,9.8C13.7,9.553 13.575,8.276 14.914,7.363Z" style="fill:rgb(240,214,183);fill-rule:nonzero;"/>
    <path d="M6.283,29.28L15.036,29.28C14.996,29.145 14.957,29.012 14.918,28.886C14.706,28.251 14.547,27.599 14.442,26.938C13.369,26.473 12.336,25.919 11.355,25.283C11.269,25.203 11.188,25.118 11.115,25.026L5.849,27.379C5.849,27.379 6.038,28.133 6.283,29.28Z" style="fill:rgb(51,80,97);fill-rule:nonzero;"/>
    <path d="M9.433,7C9.585,6.953 9.742,6.924 9.9,6.912C10.147,6.946 10.398,6.956 10.647,6.941C11.141,6.818 11.559,5.71 11.932,5.297C12.232,5.022 12.546,4.763 12.873,4.521C11.508,4.991 10.311,5.854 9.433,7Z" style="fill:rgb(109,107,109);fill-rule:nonzero;"/>
    <path d="M7.177,12.586C7.486,12.423 7.831,12.337 8.18,12.337C9.301,12.337 10.243,13.215 10.322,14.333C11.016,14.315 10.581,13.467 10.456,12.92C10.087,11.312 10.943,9.58 10.648,8.059C6.782,8.637 7,11.606 7.177,12.586Z" style="fill:rgb(109,107,109);fill-rule:nonzero;"/>
    <path d="M13.249,3.851C11.429,4.367 9.097,5.689 8.349,7.324C8.718,7.244 9.08,7.136 9.433,7C10.311,5.854 11.508,4.991 12.873,4.521C12.93,4.469 12.983,4.414 13.032,4.355C13.224,4.262 13.508,4.269 13.519,3.98C13.436,3.891 13.348,3.823 13.249,3.851Z" style="fill:rgb(220,217,216);fill-rule:nonzero;"/>
    <path d="M7.5,8.985C6.7,9.87 6.864,11.527 6.962,12.706C7.032,12.662 7.105,12.622 7.18,12.586C7,11.607 6.786,8.637 10.651,8.059C10.619,7.891 10.571,7.726 10.509,7.566C9.36,7.628 8.279,8.138 7.5,8.985Z" style="fill:rgb(220,217,216);fill-rule:nonzero;"/>
    <path d="M10.412,18.253C10.395,18.02 10.222,17.827 9.992,17.785C10.327,18.453 9.476,18.663 9.392,19.14C9.403,19.421 9.445,19.7 9.517,19.972C9.813,21.164 10.301,22.301 10.962,23.337C11.511,24.013 12.314,24.435 13.182,24.503C10.652,22.418 10.472,18.674 10.412,18.253Z" style="fill:rgb(247,228,205);fill-rule:nonzero;"/>
    <path d="M21.525,16.338C21.516,16.04 21.313,15.78 21.025,15.7C20.736,15.618 20.568,16.206 20.477,16.713C20.52,16.831 20.553,16.953 20.577,17.076C20.871,16.803 21.188,16.556 21.525,16.338Z" style="fill:rgb(247,228,205);fill-rule:nonzero;"/>
    <path d="M24.344,11.744C24.252,12.628 25.444,11.927 25.622,11.866L25.579,11.58C25.465,11.287 25.395,10.98 25.37,10.667C24.844,10.788 24.439,11.213 24.344,11.744Z" style="fill:rgb(247,228,205);fill-rule:nonzero;"/>
    <path d="M16.739,11.744C16.739,12.553 18.11,12.539 18.613,12.223C18.342,11.766 18.164,11.26 18.088,10.734L18.078,10.71C18.078,10.71 16.739,10.892 16.739,11.744Z" style="fill:rgb(247,228,205);fill-rule:nonzero;"/>
    <path d="M7.192,14.885C7.154,14.926 7.112,14.962 7.067,14.994C7.091,14.697 7.223,14.419 7.437,14.213C7.484,14.166 7.54,14.128 7.6,14.1C7.845,13.981 8.128,13.97 8.382,14.068C8.824,14.178 9.249,14.346 9.647,14.568C9.454,13.904 9.123,13.305 8.439,13.23C8.383,13.225 8.328,13.223 8.272,13.223C7.18,13.223 6.273,14.102 6.239,15.193C6.239,16.158 6.602,17.089 7.254,17.8C6.644,16.758 6.97,15.921 7.192,14.885Z" style="fill:rgb(247,228,205);fill-rule:nonzero;"/>
    <path d="M17.165,4.443C19.158,3.921 21.262,3.999 23.212,4.665C23.057,4.544 22.893,4.434 22.722,4.336C20.833,3.27 17.636,2.469 15.622,3.47C14.001,4.278 11.809,5.616 11.062,7.311C11.369,8.121 11.412,9.007 11.185,9.843C12.07,7.108 14.354,5.045 17.165,4.443Z" style="fill:rgb(247,228,205);fill-rule:nonzero;"/>
    <path d="M23.188,7.728C23.194,7.897 23.236,8.063 23.31,8.215C23.384,8.367 23.397,8.115 23.54,7.983C23.571,7.249 24.405,6.831 25.372,7.117C25.15,6.831 24.925,6.528 24.691,6.228C23.877,6.253 23.214,6.914 23.188,7.728Z" style="fill:rgb(247,228,205);fill-rule:nonzero;"/>
    <path d="M14.092,10.058C14.166,10.258 14.174,10.428 14.302,10.194C14.218,10.176 14.143,10.128 14.092,10.058Z" style="fill:rgb(247,228,205);fill-rule:nonzero;"/>
    <path d="M14.032,9.922C14.003,9.664 14.042,9.402 14.146,9.164C14.557,8.15 15.523,7.463 16.616,7.409C16.757,7.431 16.893,7.48 17.016,7.552C16.716,7.014 16.116,6.552 14.916,7.364C13.578,8.277 13.699,9.554 13.943,9.798C13.978,9.835 14.008,9.877 14.032,9.922Z" style="fill:rgb(247,228,205);fill-rule:nonzero;"/>
    <path d="M5.849,27.379L11.115,25.026C10.729,24.578 10.036,23.726 9.915,23.769C7.894,24.667 6.006,25.84 4.305,27.254C4.611,27.914 4.882,28.591 5.115,29.28L6.283,29.28C6.038,28.133 5.849,27.379 5.849,27.379Z" style="fill:rgb(73,114,139);fill-rule:nonzero;"/>
    <path d="M27,29.307C27.218,28.631 27.401,27.944 27.548,27.249C27.584,27.068 27.654,26.774 27.704,26.493L24.818,24.349C25.374,25.58 25.421,26.983 24.948,28.249C25.048,28.621 25.402,28.764 25.548,29.099C25.514,29.159 25.48,29.218 25.448,29.278L26.924,29.278C26.952,29.28 26.978,29.29 27,29.307Z" style="fill:rgb(51,80,97);fill-rule:nonzero;"/>
    <path d="M24.441,28.074C24.523,27.959 24.581,27.83 24.613,27.693C24.581,27.83 24.523,27.959 24.441,28.074Z" style="fill:rgb(51,80,97);fill-rule:nonzero;"/>
    <path d="M23.617,23.946C23.775,23.863 23.953,23.826 24.131,23.84L23.893,23.663C23.789,23.744 23.696,23.84 23.617,23.946Z" style="fill:rgb(51,80,97);fill-rule:nonzero;"/>
    <path d="M27.756,25.879C27.682,25.342 26.956,24.944 26.584,24.613C25.9,24 25.472,23.46 24.761,22.887C24.507,23.183 24.215,23.444 23.892,23.663L24.13,23.84C24.427,23.889 24.683,24.079 24.816,24.35L27.7,26.493C27.746,26.292 27.765,26.085 27.756,25.879Z" style="fill:rgb(73,114,139);fill-rule:nonzero;"/>
    <path d="M20.572,29.2C20.573,29.226 20.576,29.251 20.581,29.276L21.06,29.276C21.06,29.093 21.21,28.943 21.393,28.943C21.576,28.943 21.726,29.093 21.726,29.276L22.5,29.276L22.5,29.246C22.226,29.102 21.627,28.791 21.3,28.653C20.876,28.475 20.572,29.2 20.572,29.2Z" style="fill:white;fill-rule:nonzero;"/>
    <path d="M20.572,29.2C20.572,29.2 20.872,28.47 21.302,28.652C21.624,28.79 22.223,29.101 22.502,29.245C22.512,29.025 22.522,28.805 22.536,28.585C21.918,28.624 21.575,28.026 21.142,27.98C20.764,27.939 20.442,28.415 19.952,28.209C19.839,28.333 19.737,28.468 19.622,28.59C19.8,28.807 19.963,29.036 20.111,29.275L20.587,29.275C20.58,29.25 20.575,29.225 20.572,29.2Z" style="fill:rgb(220,217,216);fill-rule:nonzero;"/>
    <path d="M14.511,25.169C13.737,25.167 12.97,25.032 12.242,24.769C12.187,24.822 12.156,24.895 12.156,24.972C12.156,25.056 12.194,25.136 12.259,25.19C12.941,25.485 13.661,25.68 14.399,25.768C14.471,25.576 14.509,25.374 14.511,25.169Z" style="fill:white;fill-rule:nonzero;"/>
    <path d="M14.357,26.069C14.358,25.968 14.372,25.867 14.398,25.769C13.66,25.681 12.94,25.486 12.258,25.191C12.864,25.67 13.59,25.973 14.357,26.069Z" style="fill:rgb(220,217,216);fill-rule:nonzero;"/>
    <path d="M24.613,27.693C24.68,27.408 24.705,27.115 24.686,26.823C24.665,26.358 24.598,25.897 24.486,25.445C24.149,25.404 23.808,25.421 23.477,25.494C23.177,25.555 22.868,25.616 22.808,25.981C22.748,26.346 22.93,26.529 22.747,26.833C22.564,27.137 22.26,26.955 21.956,27.133C21.749,27.257 21.88,27.578 21.985,27.771C22.792,27.955 23.616,28.055 24.444,28.071C24.524,27.957 24.582,27.829 24.613,27.693Z" style="fill:rgb(211,56,51);fill-rule:nonzero;"/>
    <path d="M15.562,29.219C15.578,29.262 15.595,29.307 15.609,29.347C15.623,29.387 15.638,29.44 15.651,29.486L15.642,29.369L15.562,29.219Z" style="fill:rgb(211,56,51);fill-rule:nonzero;"/>
    <path d="M19.563,27.925C19.57,27.749 19.577,27.573 19.584,27.398C19.266,27.496 18.923,27.47 18.624,27.324C17.687,26.813 18.574,26.964 18.242,26.286C17.862,26.084 17.446,25.96 17.018,25.921C15.79,25.921 15.318,25.674 15.45,27.09C15.519,27.85 15.581,28.609 15.641,29.37C15.741,29.558 15.831,29.727 15.903,29.87C16.545,29.808 17.168,29.618 17.736,29.311C18.37,28.883 18.98,28.42 19.563,27.925Z" style="fill:rgb(211,56,51);fill-rule:nonzero;"/>
    <path d="M20.027,27.2C20.048,27.289 20.07,27.389 20.091,27.51C20.193,27.565 20.307,27.593 20.422,27.593C20.806,27.593 21.122,27.277 21.122,26.893C21.122,26.546 20.863,26.248 20.519,26.2C20.587,26.603 20.388,27.008 20.027,27.2Z" style="fill:rgb(211,56,51);fill-rule:nonzero;"/>
    <path d="M21.953,27.137C22.253,26.954 22.562,27.137 22.744,26.837C22.926,26.537 22.744,26.35 22.805,25.985C22.866,25.62 23.17,25.559 23.474,25.498C23.805,25.425 24.146,25.408 24.483,25.449C24.444,25.199 24.321,24.969 24.135,24.797C23.388,24.361 22.079,25.622 21.47,25.89L21.413,25.913C21.503,26.087 21.562,26.276 21.588,26.471C21.723,26.438 21.861,26.424 22,26.429C22.093,26.433 22.185,26.444 22.276,26.462C22.321,26.471 22.365,26.482 22.409,26.494C22.493,26.517 22.574,26.548 22.652,26.586C22.397,26.596 22.144,26.63 21.895,26.686C21.824,26.707 21.756,26.739 21.695,26.781C21.668,27.08 21.656,27.381 21.66,27.681C21.765,27.711 21.873,27.739 21.982,27.765C21.877,27.582 21.746,27.261 21.953,27.137Z" style="fill:rgb(239,61,58);fill-rule:nonzero;"/>
    <path d="M15.651,29.485C15.702,29.668 15.746,29.833 15.904,29.87C15.832,29.726 15.741,29.557 15.642,29.37L15.651,29.485Z" style="fill:rgb(239,61,58);fill-rule:nonzero;"/>
    <path d="M15.45,27.089C15.321,25.673 15.79,25.92 17.018,25.92C17.446,25.959 17.862,26.083 18.242,26.285C18.574,26.963 17.687,26.812 18.624,27.323C18.923,27.469 19.266,27.495 19.584,27.397L19.584,27.334C19.296,27.189 18.987,27.091 18.668,27.044C18.545,27.025 18.421,27.013 18.297,27.008C18.39,26.963 18.488,26.928 18.588,26.902C18.902,26.853 19.207,26.758 19.494,26.621C19.494,26.542 19.5,26.463 19.503,26.385C19.436,26.38 19.369,26.371 19.303,26.358C19.243,26.347 19.184,26.332 19.126,26.314C19.024,26.282 18.925,26.239 18.832,26.187C18.654,26.087 18.501,25.971 18.307,25.865C17.55,25.459 16.739,25.162 15.899,24.984C14.978,24.808 14.97,26.089 15.009,27.033C15.009,27.133 15.017,27.225 15.022,27.313C15.107,27.97 15.29,28.611 15.566,29.213L15.645,29.363C15.582,28.609 15.519,27.849 15.45,27.089Z" style="fill:rgb(239,61,58);fill-rule:nonzero;"/>
    <path d="M20.52,26.2C20.31,26.204 20.106,26.274 19.938,26.4C19.924,26.537 19.926,26.675 19.945,26.812C19.956,26.891 19.973,26.967 19.993,27.05L20.024,27.181L20.024,27.198C20.386,27.007 20.587,26.604 20.52,26.2Z" style="fill:rgb(239,61,58);fill-rule:nonzero;"/>
    <path d="M14.146,9.164C14.042,9.402 14.003,9.664 14.032,9.922C14.043,9.971 14.064,10.017 14.093,10.058C14.144,10.128 14.219,10.176 14.303,10.194C14.803,9.074 15.63,7.994 17.288,8.38C17.344,8.29 17.373,8.186 17.373,8.08C17.373,7.848 17.23,7.637 17.014,7.552C16.891,7.48 16.755,7.431 16.614,7.409C15.522,7.464 14.557,8.151 14.146,9.164Z" style="fill:rgb(35,31,32);fill-rule:nonzero;"/>
    <path d="M24.252,12.627C24.22,13.951 26.301,13.299 26.618,12.561C26.171,11.828 25.779,11.063 25.446,10.271L25.367,10.271C25.358,10.404 25.358,10.538 25.367,10.671C25.392,10.984 25.462,11.291 25.576,11.584C25.671,11.84 25.781,12.084 25.876,12.34C25.479,12.587 24.7,12.43 24.252,12.627Z" style="fill:rgb(35,31,32);fill-rule:nonzero;"/>
    <path d="M18.934,12.773C18.446,13.247 17.567,12.853 16.914,12.823C16.291,13.808 18.132,13.993 18.922,13.76C19.185,13.651 19.409,13.465 19.564,13.226C19.783,12.609 19.341,12.339 19.113,12.117C18.698,11.56 18.368,10.943 18.136,10.288C18.09,10.431 18.073,10.583 18.087,10.733C18.163,11.259 18.341,11.765 18.612,12.222C18.726,12.432 18.839,12.621 18.934,12.773Z" style="fill:rgb(35,31,32);fill-rule:nonzero;"/>
    <path d="M20.605,18.315C22.214,18.411 23.804,17.912 25.071,16.915C25.024,16.615 25.431,16.075 25.318,15.625C25.279,15.47 24.926,15.245 24.712,15.011C23.701,13.978 22.844,12.803 22.169,11.525C22.116,11.402 22.084,10.725 21.717,10.995C21.673,12.637 22.893,13.995 23.803,15.095C24.247,15.63 24.783,15.936 24.29,16.768C23.49,17.068 22.207,17.937 21.101,17.747C20.722,17.682 20.643,17.382 20.578,17.079C20.554,16.956 20.521,16.834 20.478,16.716C20.465,16.682 20.45,16.648 20.432,16.616C20.069,17.146 20.142,17.869 20.605,18.315Z" style="fill:rgb(35,31,32);fill-rule:nonzero;"/>
    <path d="M7.6,14.1C7.543,14.131 7.489,14.168 7.441,14.211C7.227,14.417 7.095,14.695 7.071,14.992C7.116,14.96 7.158,14.924 7.196,14.883C7.349,14.727 7.509,14.526 7.796,14.666C7.474,15.386 7.546,16.224 7.986,16.879C7.986,16.146 7.869,14.892 8.495,14.929C8.933,14.956 9.022,15.893 9.395,16.106C9.617,15.272 9.178,14.393 8.378,14.07C8.126,13.972 7.844,13.983 7.6,14.1Z" style="fill:rgb(35,31,32);fill-rule:nonzero;"/>
    <path d="M22.868,18.875C22.821,19.228 22.821,19.585 22.868,19.938C24.209,19.837 25.372,18.954 25.83,17.689C24.926,18.267 23.921,18.669 22.868,18.875Z" style="fill:rgb(35,31,32);fill-rule:nonzero;"/>
    <path d="M22.47,20C22.483,19.643 22.457,19.285 22.393,18.934C20.92,19.062 19.436,18.87 18.043,18.372C18.518,19.644 20.659,20.092 22.47,20Z" style="fill:rgb(35,31,32);fill-rule:nonzero;"/>
    <path d="M17.846,19.39C16.931,19.39 17.703,19.9 17.858,20.099C18.183,20.659 18.62,21.145 19.142,21.527C20.25,21.913 21.457,21.918 22.568,21.541C22.817,21.413 23.009,21.195 23.104,20.932C21.026,20.982 18.563,21.189 17.846,19.39Z" style="fill:rgb(35,31,32);fill-rule:nonzero;"/>
    <path d="M24.96,29.28C24.724,28.903 24.35,28.633 23.918,28.527C23.607,28.464 23.284,28.507 23,28.647C22.992,28.847 22.982,29.062 22.969,29.279L24.96,29.28Z" style="fill:rgb(129,176,196);fill-rule:nonzero;"/>
    <path d="M21.971,24.749C21.285,24.81 20.478,25.122 19.719,25.168C19.65,25.168 19.581,25.174 19.513,25.174C19.445,25.174 19.377,25.174 19.313,25.164C19.18,25.152 19.049,25.127 18.921,25.088C18.857,25.068 18.794,25.045 18.733,25.018C18.733,25.07 18.662,25.051 18.651,25.094C18.736,25.16 18.818,25.22 18.898,25.273C18.978,25.326 19.057,25.373 19.136,25.416C19.286,25.497 19.446,25.561 19.611,25.606C19.878,25.673 20.152,25.703 20.427,25.696C20.527,25.696 20.639,25.696 20.754,25.687C21.169,25.384 21.537,25.031 21.971,24.749Z" style="fill:rgb(240,214,183);fill-rule:nonzero;"/>
    <path d="M19.086,29.048L18.735,29.281L19.262,29.281C19.205,29.202 19.146,29.124 19.086,29.048Z" style="fill:rgb(129,176,196);fill-rule:nonzero;"/>
    <path d="M4.681,29.769L4.681,29.434C4.681,29.35 4.75,29.281 4.834,29.281L5.117,29.281C4.884,28.592 4.613,27.915 4.307,27.255C6.008,25.841 7.896,24.668 9.917,23.77C10.035,23.723 10.728,24.579 11.117,25.027C11.19,25.119 11.271,25.204 11.357,25.284C12.338,25.92 13.371,26.474 14.444,26.939C14.549,27.6 14.708,28.252 14.92,28.887C14.959,29.013 14.998,29.147 15.038,29.281L15.2,29.281C15.284,29.281 15.353,29.35 15.353,29.434L15.353,29.592L15.492,29.592C15.576,29.592 15.645,29.661 15.645,29.745L15.645,30L17.336,30L17.336,29.745C17.336,29.661 17.405,29.592 17.489,29.592L18.269,29.592L18.269,29.434C18.269,29.35 18.338,29.281 18.422,29.281L18.739,29.281L19.09,29.048C19.15,29.124 19.209,29.202 19.266,29.281L20.109,29.281C19.961,29.042 19.798,28.813 19.62,28.596C19.735,28.474 19.837,28.34 19.95,28.215C20.442,28.421 20.762,27.945 21.14,27.986C21.573,28.032 21.916,28.63 22.534,28.591C22.52,28.811 22.51,29.031 22.5,29.251L22.5,29.281L22.974,29.281C22.986,29.064 22.997,28.852 23.005,28.649C23.289,28.509 23.612,28.466 23.923,28.529C24.355,28.635 24.729,28.905 24.965,29.282L25.446,29.282C25.48,29.222 25.515,29.163 25.546,29.103C25.403,28.768 25.051,28.626 24.946,28.253C25.419,26.987 25.372,25.584 24.816,24.353C24.683,24.082 24.427,23.892 24.13,23.843C23.952,23.829 23.774,23.866 23.616,23.949C23.694,23.843 23.787,23.747 23.891,23.666C24.214,23.447 24.506,23.186 24.76,22.89C25.472,23.463 25.901,24.002 26.584,24.615C26.954,24.947 27.684,25.345 27.756,25.881C27.765,26.087 27.747,26.294 27.702,26.495C27.651,26.776 27.582,27.07 27.546,27.251C27.399,27.945 27.217,28.631 27,29.307C27.044,29.334 27.072,29.382 27.072,29.434L27.072,30L27.44,30C27.698,29.192 27.951,28.365 28.206,27.511C28.497,26.817 28.659,26.076 28.684,25.324C28.606,24.707 27.644,24.059 27.137,23.57C26.856,23.299 25.544,22.303 25.468,21.93C25.392,21.557 26.003,20.752 26.199,20.344C26.454,19.766 26.662,19.168 26.82,18.556C27.852,14.929 27.957,9.945 26.481,6.964C25.669,5.639 24.618,4.477 23.381,3.536C21.081,1.794 16.818,1.601 14.042,2.623C13.282,2.87 12.546,3.184 11.842,3.562C10.024,4.628 8.094,5.342 7.555,7.49C6.227,8.09 5.826,9.79 5.893,11.758C5.983,12.161 6.033,12.572 6.042,12.985C6.005,13.169 5.756,13.404 5.706,13.523C5.194,15.065 5.419,16.76 6.315,18.115C6.811,18.854 7.59,19.355 8.468,19.5C8.509,20.081 8.661,20.648 8.915,21.172C9.085,21.545 9.72,22.215 9.486,22.691C9.031,23.075 8.528,23.4 7.991,23.657C6.833,24.352 5.991,24.777 4.925,25.547C4.233,26.047 3.152,26.109 3.325,27.257C3.532,28.113 3.802,28.953 4.133,29.77C4.158,29.848 4.186,29.925 4.213,30.002L4.683,30.002L4.681,29.769ZM13.032,4.355C12.983,4.414 12.93,4.469 12.873,4.521C12.546,4.763 12.232,5.022 11.932,5.297C11.559,5.71 11.142,6.818 10.647,6.941C10.398,6.956 10.147,6.946 9.9,6.912C9.742,6.924 9.585,6.953 9.433,7C9.081,7.136 8.718,7.245 8.349,7.325C9.097,5.69 11.429,4.368 13.249,3.852C13.349,3.824 13.437,3.892 13.52,3.981C13.509,4.268 13.224,4.262 13.032,4.355ZM10.647,8.055C10.947,9.576 10.086,11.309 10.455,12.916C10.58,13.462 11.015,14.31 10.321,14.329C10.242,13.211 9.3,12.333 8.179,12.333C7.83,12.333 7.485,12.419 7.176,12.582C7.101,12.618 7.028,12.658 6.958,12.702C6.858,11.523 6.692,9.866 7.496,8.981C8.275,8.134 9.356,7.624 10.505,7.562C10.568,7.723 10.615,7.889 10.647,8.059L10.647,8.055ZM7.254,17.8C6.601,17.092 6.236,16.164 6.232,15.2C6.266,14.109 7.173,13.23 8.265,13.23C8.321,13.23 8.376,13.232 8.432,13.237C9.116,13.312 9.446,13.911 9.64,14.575C9.694,14.762 9.74,14.954 9.776,15.141C10.281,15.168 11.011,15.119 11.25,14.725C11.216,13.763 10.769,12.992 10.8,12.108C10.868,11.344 10.997,10.588 11.188,9.845C11.415,9.009 11.372,8.123 11.065,7.313C11.812,5.618 14.004,4.281 15.625,3.472C17.634,2.472 20.832,3.272 22.725,4.338C22.896,4.436 23.06,4.546 23.215,4.667C23.771,5.125 24.268,5.65 24.694,6.23C24.928,6.53 25.153,6.83 25.375,7.119C24.408,6.832 23.575,7.251 23.543,7.985C23.539,8.067 23.544,8.15 23.559,8.231C24.459,7.41 25.986,8.222 26.439,9.131C26.815,10.239 26.985,11.407 26.939,12.577C27.161,15.605 26.41,18.627 24.794,21.198C24.44,21.833 23.978,22.402 23.429,22.878C22.004,23.878 19.838,24.786 17.983,24.164C15.532,23.341 14.418,21.708 13.07,19.838C13.235,20.868 13.756,21.808 14.542,22.494C15.132,23.235 15.874,23.841 16.718,24.272C16.045,24.114 15.018,24.064 14.733,24.672C14.214,24.644 13.697,24.59 13.184,24.51C12.316,24.442 11.513,24.02 10.964,23.344C10.303,22.308 9.815,21.171 9.519,19.979C9.447,19.707 9.405,19.428 9.394,19.147C9.482,18.669 10.333,18.46 9.994,17.792C9.376,17.786 9.237,18.354 8.67,18.41C8.129,18.439 7.604,18.213 7.254,17.8ZM20.024,27.18L19.993,27.049C19.973,26.966 19.957,26.89 19.945,26.811C19.926,26.674 19.924,26.536 19.938,26.399C20.106,26.273 20.31,26.203 20.52,26.199C20.864,26.247 21.123,26.545 21.123,26.892C21.123,27.276 20.807,27.592 20.423,27.592C20.308,27.592 20.194,27.564 20.092,27.509C20.071,27.388 20.049,27.288 20.028,27.199L20.024,27.18ZM12.242,24.761C12.97,25.024 13.737,25.159 14.511,25.161C14.509,25.366 14.471,25.569 14.399,25.761C14.373,25.859 14.359,25.96 14.358,26.061C13.591,25.964 12.864,25.659 12.258,25.179C12.196,25.125 12.16,25.047 12.16,24.965C12.16,24.89 12.189,24.819 12.242,24.766L12.242,24.761ZM19.609,25.6C19.444,25.555 19.284,25.491 19.134,25.41C19.056,25.368 18.977,25.32 18.896,25.267C18.815,25.214 18.734,25.154 18.649,25.088C18.66,25.045 18.728,25.064 18.731,25.012C18.792,25.039 18.855,25.062 18.919,25.082C19.047,25.121 19.178,25.146 19.311,25.158C19.378,25.164 19.445,25.167 19.511,25.168C19.577,25.169 19.648,25.168 19.717,25.162C20.476,25.116 21.283,24.804 21.969,24.743C21.536,25.026 21.169,25.379 20.751,25.681C20.636,25.687 20.527,25.69 20.424,25.69C20.15,25.698 19.876,25.67 19.609,25.605L19.609,25.6ZM17.737,29.306C17.169,29.613 16.546,29.803 15.904,29.865C15.746,29.828 15.704,29.665 15.651,29.48C15.638,29.434 15.625,29.388 15.609,29.341C15.593,29.294 15.579,29.256 15.562,29.213C15.286,28.611 15.103,27.97 15.018,27.313C15.018,27.225 15.009,27.131 15.005,27.033C14.966,26.089 14.974,24.808 15.895,24.984C16.735,25.162 17.546,25.459 18.303,25.865C18.497,25.971 18.65,26.09 18.828,26.187C18.921,26.239 19.02,26.282 19.122,26.314C19.18,26.332 19.239,26.347 19.299,26.358C19.365,26.371 19.432,26.38 19.499,26.385C19.499,26.463 19.493,26.542 19.49,26.621C19.203,26.758 18.898,26.853 18.584,26.902C18.484,26.928 18.386,26.963 18.293,27.008C18.417,27.013 18.541,27.025 18.664,27.044C18.983,27.091 19.292,27.189 19.58,27.334L19.58,27.397C19.573,27.573 19.566,27.749 19.559,27.924C18.977,28.419 18.369,28.882 17.737,29.311L17.737,29.306ZM21.982,27.77C21.873,27.744 21.765,27.716 21.66,27.686C21.656,27.386 21.668,27.085 21.695,26.786C21.756,26.744 21.824,26.712 21.895,26.691C22.144,26.635 22.397,26.601 22.652,26.591C22.574,26.553 22.493,26.522 22.409,26.499C22.366,26.487 22.321,26.476 22.276,26.467C22.185,26.447 22.093,26.434 22,26.429C21.863,26.423 21.726,26.436 21.593,26.467C21.567,26.272 21.508,26.083 21.418,25.909L21.475,25.886C22.084,25.618 23.393,24.357 24.14,24.793C24.326,24.965 24.449,25.195 24.488,25.445C24.6,25.897 24.667,26.358 24.688,26.823C24.707,27.115 24.682,27.408 24.615,27.693C24.583,27.83 24.525,27.959 24.443,28.074C23.615,28.058 22.79,27.958 21.982,27.774L21.982,27.77Z" style="fill:rgb(35,31,32);fill-rule:nonzero;"/>
    <path d="M17.53,18.862C16.914,18.562 16.474,18.727 16.394,18.834C16.242,19.034 16.557,20.14 16.557,20.14L16.857,20.201C16.8,18.984 17.53,18.862 17.53,18.862Z" style="fill:rgb(247,228,205);fill-rule:nonzero;"/>
    <path d="M21.393,28.961C21.216,28.961 21.068,29.103 21.06,29.28L21.726,29.28C21.718,29.103 21.57,28.961 21.393,28.961Z" style="fill:rgb(29,25,25);fill-rule:nonzero;"/>
    <path d="M15.642,29.745C15.642,29.661 15.573,29.592 15.489,29.592L15.35,29.592L15.35,29.769C15.35,29.853 15.281,29.922 15.197,29.922L4.834,29.922C4.75,29.922 4.681,29.853 4.681,29.769L4.681,30L15.642,30L15.642,29.745Z" style="fill:rgb(35,31,32);fill-rule:nonzero;"/>
    <path d="M26.918,29.922L18.418,29.922C18.334,29.922 18.265,29.853 18.265,29.769L18.265,29.592L17.485,29.592C17.401,29.592 17.332,29.661 17.332,29.745L17.332,30L27.069,30L27.069,29.769C27.069,29.852 27.001,29.921 26.918,29.922Z" style="fill:rgb(35,31,32);fill-rule:nonzero;"/>
    <path d="M4.834,29.922L15.2,29.922C15.284,29.922 15.353,29.853 15.353,29.769L15.353,29.434C15.353,29.35 15.284,29.281 15.2,29.281L4.834,29.281C4.75,29.281 4.681,29.35 4.681,29.434L4.681,29.769C4.681,29.853 4.75,29.922 4.834,29.922Z" style="fill:rgb(35,31,32);fill-rule:nonzero;"/>
    <path d="M18.266,29.769C18.266,29.853 18.335,29.922 18.419,29.922L26.919,29.922C27.003,29.922 27.072,29.853 27.072,29.769L27.072,29.434C27.072,29.382 27.044,29.334 27,29.307C26.976,29.291 26.948,29.282 26.919,29.281L18.419,29.281C18.335,29.281 18.266,29.35 18.266,29.434L18.266,29.769Z" style="fill:rgb(35,31,32);fill-rule:nonzero;"/>
</svg>
