<svg xmlns="http://www.w3.org/2000/svg" viewBox="0 0 16 16">
  <g fill="none" transform="translate(1)">
    <path fill="#679EC3" d="M5.26741002 11.9841107C6.44187143 12.0935375 7.04212507 12.0778446 8.33638953 11.8777834 8.33638953 11.8777834 8.72729914 12.5089728 9.20251658 12.6598996 5.71523196 14.0983748 2.16375604 12.62405 4.86433806 11.6240854 4.86433806 11.6240854 4.29796004 11.8930849 5.26741002 11.9841107zM4.83430972 10.1360472C6.15437636 10.2438871 7.19686164 10.2527073 9.00076215 9.97764898 9.00076215 9.97764898 9.1646241 10.5935393 9.55695366 10.7030767 5.34944621 11.9582181 1.49573238 10.7820722 4.48191086 9.66065289 4.48191086 9.66065289 3.81351312 10.052438 4.83430972 10.1360472z"/>
    <path fill="#F8981D" d="M7.56606905,8 C7.56606905,8 9.76225568,7.16677915 8.7536463,6.12338829 C8.18862505,5.40742083 7.26212547,4.7215624 10.1840658,2.7890945 C10.1840658,2.7890945 4.86139715,4.12675556 7.7933191,6.60958179 C8.22661437,7.24222442 7.56606905,8 7.56606905,8 Z"/>
    <path fill="#679EC3" d="M10.6259367 13.5515561C8.833541 14.1953033 3.99180856 14.3444549 2.41733244 13.5319648 1.85134876 13.2400483 2.55461125 12.9704953 2.8884809 12.8854903 3.23667331 12.7959739 3.43565261 12.8126505 3.43565261 12.8126505 2.8062213 12.2869575-.575650658 13.9785671 1.65208083 14.5984091 6.82506137 16.0377347 13.4927931 14.149657 11.5878612 12.8646572 11.5878612 12.8646572 11.5685445 13.2125497 10.6259367 13.5515561zM4.02198569 8.3119857C4.91670975 8.33351646 6.3080239 8.32773074 7.77360255 8.24011064 8.97135449 8.16801776 10.1544949 8.06340743 10.1544949 8.06340743 10.1544949 8.06340743 9.75080887 8.83296661 9.44525465 8.98183809 6.34235614 9.79334516.620518438 9.35865941 2.38498598 8.20170772 3.77340742 7.57166017 4.8912259 7.77901194 4.8912259 7.77901194 4.8912259 7.77901194 2.80531371 8.28270754 4.02198569 8.3119857zM10.0711798 11.2671931C12.1404137 10.2948229 11.8728585 9.36623624 10.7299111 9.55863188 10.449771 9.60571397 10.3248628 9.64651023 10.3248628 9.64651023 10.3248628 9.64651023 10.5312792 9.15970947 10.7299111 9.10276726 12.9910277 8.46087328 14.7299724 10.9959519 10 12 10 12.0000411 10.0547968 11.9604773 10.0711798 11.9251041L10.0711798 11.2671931z"/>
    <path fill="#F8981D" d="M6.77767673,4 C5.11308729,5.71083368 6.96276983,6.64417341 7.05637855,8 C5.58612015,6.75318856 4.4078655,5.2131297 5.13172491,4.19161059 C6.1941799,2.69211172 8.01674323,2.37488896 8.14156109,0 C8.14156109,0 9.53116682,1.6697807 6.77767673,4 Z"/>
    <path fill="#679EC3" d="M13,14 C13,14 12.3076831,14.5493452 10.0336117,15.1067035 C7.34311004,15.608081 4.88478871,15.6649606 3.02491355,15.2736571 C3.02495813,15.2736002 3.38074008,15.7734388 5.33851984,15.9336468 C8.31734284,16.176974 12.891663,15.798642 13,14 Z"/>
  </g>
</svg>
