<svg xmlns="http://www.w3.org/2000/svg" viewBox="0 0 16 16">
  <g fill="none" fill-rule="evenodd">
    <path fill="#99A0B8" d="M10,1 L10,4.5 L10,4.5 C10,4.77614237 10.2238576,5 10.5,5 L14,5 L10,1 Z"/>
    <path stroke="#CBD1E1" stroke-width="1.25" d="M2.625,1.625 L2.625,15.375 L13.375,15.375 L13.375,4.68206301 L10.2359474,1.625 L2.625,1.625 Z"/>
    <path fill="#CBD1E1" d="M9.9288673,10.3809128 C9.89953382,10.3075791 9.87203409,10.2617462 9.8463673,10.2434128 C9.8207005,10.2250794 9.76753437,10.2159128 9.6868673,10.2159128 L7.8058673,10.2159128 C7.71786686,10.2159128 7.65736746,10.2360793 7.6243673,10.2764128 C7.59136713,10.3167463 6.44353994,11.8174998 6.44353994,11.8615 C6.44353994,11.9935007 6.52053917,12.0595 6.67453994,12.0595 C6.70387342,12.0595 6.74420635,12.0576667 6.79553994,12.054 C6.84687353,12.0503333 6.90187298,12.0448334 6.96053994,12.0375 C7.0192069,12.0301666 7.07420635,12.0246667 7.12553994,12.021 C7.17687353,12.0173333 7.22453972,12.0155 7.26853994,12.0155 C7.67920866,12.0155 7.88453994,12.1878316 7.88453994,12.5325 C7.88453994,12.8625017 7.66454214,13.0275 7.22453994,13.0275 C7.19520646,13.0275 7.16220679,13.0256667 7.12553994,13.022 C7.08887309,13.0183333 7.05220679,13.0128334 7.01553994,13.0055 L6.97153994,13.0055 L6.44353994,12.9285 C6.39953972,12.9211666 6.33354038,12.9156667 6.24553994,12.912 C6.1575395,12.9083333 6.06954038,12.9065 5.98153994,12.9065 C5.87887276,12.9065 5.78170706,12.9083333 5.69003994,12.912 C5.59837281,12.9156667 5.53054016,12.9211666 5.48653994,12.9285 L5.04653994,12.9945 C4.95120613,13.0091667 4.86504032,13.0201666 4.78803994,13.0275 C4.71103955,13.0348334 4.6432069,13.0385 4.58453994,13.0385 C4.18853796,13.0385 3.99053994,12.8735016 3.99053994,12.5435 C3.99053994,12.1988316 4.18487133,12.0265 4.57353994,12.0265 C4.61020679,12.0265 4.63770651,12.0246667 4.65603994,12.021 C4.67437336,12.0173333 4.70187309,12.0228333 4.73853994,12.0375 L4.83753994,12.0375 C4.95487386,12.0375 5.04653961,11.9861672 5.11253994,11.8835 C5.14187342,11.8443887 6.54181588,9.97470143 9.31236733,6.27443822 C9.48588684,5.96504883 9.72303187,5.73543822 10.1483673,5.73543822 C10.559036,5.73543822 10.8303667,5.91510309 10.9623673,6.27443822 C11.1431222,9.97714574 11.2591664,11.8614997 11.3105,11.9275 C11.3875004,12.0265005 11.5065343,12.0265 11.5358677,12.0265 C11.5652012,12.0265 11.5908676,12.0228334 11.6128677,12.0155 C12.0162031,12.0155 12.2178677,12.1768317 12.2178677,12.4995 C12.2178677,12.836835 12.0235363,13.0055 11.6348677,13.0055 L11.5083677,13.0055 C11.4765898,13.0055 10.8024295,13.0165 9.48588684,13.0385 L9.37038684,13.0385 C8.96705149,13.0385 8.76538684,12.869835 8.76538684,12.5325 C8.76538684,12.195165 8.98171801,12.0265 9.41438684,12.0265 C9.45105369,12.0265 9.49505325,12.0283333 9.54638684,12.032 C9.59772043,12.0356667 9.908,12.0283338 9.908,11.933 C9.908,11.9256666 9.90433337,11.9110001 9.897,11.889 C9.88966663,11.8669999 9.87866674,11.8376668 9.864,11.801 L9.9288673,10.3809128 Z M9.69518857,7.25098164 L8.50185565,8.74815998 C8.43300899,8.83453633 8.4472196,8.96036945 8.53359595,9.02921612 C8.56901305,9.05744548 8.61296294,9.0728179 8.65825387,9.0728179 L9.72784131,9.0728179 C9.83191098,9.0728179 9.91858926,8.99300823 9.92716164,8.88929222 L10.0509071,7.39211388 C10.0600056,7.2820323 9.97814269,7.18541774 9.8680611,7.17631923 C9.80159245,7.17082543 9.73675906,7.19882651 9.69518857,7.25098164 Z"/>
  </g>
</svg>
