<svg xmlns="http://www.w3.org/2000/svg" viewBox="0 0 16 16">
  <g fill="none" transform="translate(0 1)">
    <path fill="#9B9BFF" d="M4.57154297,4.73870222 L7.40935547,3.12312 C7.48037109,3.08267556 7.56791016,3.08267556 7.63892578,3.12312 L10.4767969,4.73870222 C10.5477539,4.77914667 10.591582,4.85385333 10.591582,4.93474222 L10.591582,8.16590667 C10.591582,8.24673778 10.5477539,8.32150222 10.4767969,8.36200444 L7.63892578,9.97758667 C7.56791016,10.0180311 7.48037109,10.0180311 7.40935547,9.97758667 L4.57154297,8.36200444 C4.50052734,8.32156 4.45675781,8.24679556 4.45675781,8.16590667 L4.45675781,4.93474222 C4.45681641,4.85385333 4.50058594,4.77914667 4.57154297,4.73870222"/>
    <path fill="#674AF5" d="M11.5118555,0.393813333 C11.3886914,0.183502222 11.1611719,0.0283688889 10.9149023,0.0283688889 L4.13349609,0.0283688889 C3.88716797,0.0283688889 3.65958984,0.183502222 3.53642578,0.393813333 L0.14578125,6.19759111 C0.0226171875,6.40796 0.0226171875,6.67344889 0.14578125,6.88381778 L3.53642578,12.6527556 C3.65958984,12.8630667 3.88716797,12.9705911 4.13349609,12.9705911 L10.9148437,12.9705911 C11.1611133,12.9705911 11.3886914,12.8663022 11.5117969,12.6559333 L14.9024414,6.87757778 C15.0257227,6.66732444 15.0257227,6.42072889 14.9025,6.21041778 L11.5118555,0.393813333 Z M12.0948633,9.00744 C12.0948633,9.09295111 12.0426562,9.17204889 11.9674805,9.21486222 L7.64853516,11.6719778 C7.57341797,11.7147333 7.47931641,11.7147333 7.40419922,11.6719778 L3.08191406,9.21486222 C3.00679688,9.17204889 2.95423828,9.09300889 2.95423828,9.00744 L2.95423828,4.09315111 C2.95423828,4.00758222 3.00603516,3.92854222 3.08121094,3.88572889 L7.39998047,1.42861333 C7.47509766,1.3858 7.56908203,1.3858 7.64419922,1.42861333 L11.9667773,3.88572889 C12.0419531,3.92854222 12.0948633,4.00758222 12.0948633,4.09315111 L12.0948633,9.00744 L12.0948633,9.00744 Z"/>
    <path fill="#FFFFFF" d="M12.0948633,9.00744 C12.0948633,9.09295111 12.0426562,9.17204889 11.9674805,9.21486222 L7.64853516,11.6719778 C7.57341797,11.7147333 7.47931641,11.7147333 7.40419922,11.6719778 L3.08191406,9.21486222 C3.00679687,9.17204889 2.95423828,9.09300889 2.95423828,9.00744 L2.95423828,4.09315111 C2.95423828,4.00758222 3.00603516,3.92854222 3.08121094,3.88572889 L7.39998047,1.42861333 C7.47509766,1.3858 7.56908203,1.3858 7.64419922,1.42861333 L11.9667773,3.88572889 C12.0419531,3.92854222 12.0948633,4.00758222 12.0948633,4.09315111 L12.0948633,9.00744 L12.0948633,9.00744 Z M4.57154297,4.73870222 C4.50058594,4.77914667 4.45681641,4.85385333 4.45675781,4.93474222 L4.45675781,8.16590667 C4.45675781,8.24679556 4.50052734,8.32156 4.57154297,8.36200444 L7.40935547,9.97758667 C7.48037109,10.0180311 7.56791016,10.0180311 7.63892578,9.97758667 L10.4767969,8.36200444 C10.5477539,8.32150222 10.591582,8.24673778 10.591582,8.16590667 L10.591582,4.93474222 C10.591582,4.85385333 10.5477539,4.77914667 10.4767969,4.73870222 L7.63892578,3.12312 C7.56791016,3.08267556 7.48037109,3.08267556 7.40935547,3.12312 L4.57154297,4.73870222 Z"/>
  </g>
</svg>
