<svg viewBox="0 0 16 16" fill="none" xmlns="http://www.w3.org/2000/svg">
    <g>
        <g>
            <path fill-rule="evenodd" clip-rule="evenodd" d="M11.6802 3.46206C12.184 3.4725 12.8974 3.69084 13.2964 4.42184L13.2963 4.42183C14.0627 5.75216 13.3858 7.27111 12.6714 8.51294C12.4953 8.819 12.2937 9.09007 12.0956 9.35652C11.4899 10.171 10.9163 10.9423 11.2003 12.5383H9.85493C9.85493 12.5383 7.54177 9.43305 6.62895 12.5383H5.59689C5.38558 11.0068 4.15274 10.9481 3.80786 12.5383H2.45529C2.45529 12.5383 1.71838 8.21944 4.442 7.24111C4.442 7.24111 4.68946 7.82767 5.00818 8.33616C5.3618 8.90055 6.28362 9.29072 7.35877 7.67622C7.35877 7.67622 5.91544 9.27454 5.25593 8.18026C5.06008 7.85497 4.98825 7.74 4.92204 7.62188C4.84791 7.48962 4.78083 7.3534 4.55464 6.91359C4.23926 6.30093 4.60591 6.03585 5.40337 5.77259C6.20082 5.50909 7.96188 5.07582 9.77268 6.38321C11.5837 7.69059 13.0307 5.80259 12.562 4.88515C12.363 4.49549 12.0658 4.35525 11.8425 4.32887C11.6086 4.30093 11.4027 4.33488 11.2099 4.43934C11.2055 4.44169 11.2007 4.44441 11.1953 4.44739C11.1207 4.48889 10.954 4.5816 10.8578 4.43882C10.7866 4.33279 10.6707 4.07633 10.6501 4.02723C10.554 3.79818 11.062 3.44952 11.6802 3.46206ZM9.3696 7.55423C9.3696 7.55423 9.11501 8.27506 9.82628 8.51167L9.82631 8.51139C10.3645 8.6903 10.7825 8.26146 10.8309 8.03791C9.99066 7.75872 9.3696 7.55423 9.3696 7.55423Z" fill="#3965BD"/>
        </g>
    </g>
</svg>
