<svg xmlns="http://www.w3.org/2000/svg" xmlns:xlink="http://www.w3.org/1999/xlink" viewBox="0 0 16 16">
  <defs>
    <circle id="a" cx="2.051" cy="2.326" r="1.8"/>
    <circle id="b" cx="2.051" cy="2.226" r="2"/>
    <path id="c" d="M0.713043669,0.53319706 L0.713043669,1.51713564 C0.822076277,2.39614577 1.07615271,2.83732979 1.47527296,2.84068771 C1.87439322,2.84404563 2.18653567,2.5976476 2.41170033,2.10149362 C2.53706552,2.59428968 2.7937509,2.84068771 3.18175646,2.84068771 C3.7637648,2.84068771 3.96304367,2.47293227 3.96304367,2.10149362 C3.96304367,1.85386784 3.96304367,1.23809335 3.96304367,0.254170123 C3.55309968,0.104248956 3.03598524,0.029288373 2.41170033,0.029288373 C1.78741542,0.029288373 1.22119653,0.197257935 0.713043669,0.53319706 Z"/>
    <path id="d" d="M8.36140657,7.30203927 C7.76761084,7.59473789 7.48289532,7.91792409 7.50726003,8.27159785 C7.54380709,8.8021085 7.77652148,8.91096145 8.13320324,8.99033924 C8.48988501,9.06971704 8.76252143,8.63378435 9.26492145,8.63625607 C9.76732147,8.63872778 10.1158678,8.91917142 10.360673,8.91917142 C10.6054781,8.91917142 11.0157688,8.81771144 11.083031,8.3960484 C11.1502931,7.97438536 10.3326907,7.35180709 10.2008383,7.30203927 C10.1129367,7.26886073 9.49979281,7.26886073 8.36140657,7.30203927 Z"/>
  </defs>
  <g fill="none" fill-rule="evenodd" transform="translate(-1 1)">
    <path fill="#000000" d="M1.73440075,0.45830374 C1.28626189,0.124420756 1.00304966,0.152616732 0.884764049,0.542891669 C0.707335638,1.12830408 1.03388303,1.36921921 1.28170656,1.50746888 L1.73440075,0.45830374 Z" transform="matrix(-1 0 0 1 16 3.231)"/>
    <g transform="translate(0 .477)">
      <path fill="#69D7E6" fill-rule="nonzero" d="M3.0417211,6.35953891 C1.72731542,5.57957085 0.73412131,4.28836018 1.24738657,2.78864353 C1.61974413,1.70064695 2.39295557,1.07489274 3.34469838,1.01116831 C4.04952637,0.963976192 4.11220659,0.876200664 4.88441439,1.43298569 C3.90456694,2.30546508 3.29033584,3.94764949 3.0417211,6.35953891 Z"/>
      <path fill="#69D7E6" fill-rule="nonzero" d="M14.9537278,6.52272727 C13.6393221,5.74275921 12.3431507,4.28836018 12.856416,2.78864353 C13.2287735,1.70064695 14.0019849,1.07489274 14.9537278,1.01116831 C15.6585558,0.963976192 16.0894421,0.764278359 16.8616499,1.32106338 C15.5897018,2.98248453 14.9537278,4.7163725 14.9537278,6.52272727 Z" transform="matrix(-1 0 0 1 29.603 0)"/>
      <path fill="#000000" d="M3.73440075,3.45830374 C3.28626189,3.12442076 3.00304966,3.15261673 2.88476405,3.54289167 C2.70733564,4.12830408 3.03388303,4.36921921 3.28170656,4.50746888 L3.73440075,3.45830374 Z"/>
    </g>
    <path fill="#67D7E6" d="M14.0794745,13 C14.0561973,11.131406 14.0281953,9.7545018 13.9954685,8.8692873 C13.9463783,7.54146555 14.5787729,0.873004453 9.15106037,1.0046902 C5.75937733,0.998598924 4.0601955,2.83607468 4.05351486,6.51711746 L4.05351486,13 L14.0794745,13 Z"/>
    <g transform="translate(4.549 2.674)">
      <use fill="#FFFFFF" xlink:href="#a"/>
      <circle cx="2.051" cy="2.326" r="2.05" stroke="#000000" stroke-width=".5"/>
      <ellipse cx="2.01" cy="2.657" fill="#000000" rx="1" ry="1"/>
    </g>
    <g transform="translate(9.549 2.674)">
      <use fill="#FFFFFF" xlink:href="#b"/>
      <circle cx="2.051" cy="2.226" r="2.25" stroke="#000000" stroke-width=".5"/>
      <ellipse cx="2.01" cy="2.657" fill="#000000" rx="1" ry="1"/>
    </g>
    <g transform="translate(7.087 8.682)">
      <use fill="#FFFFFF" xlink:href="#c"/>
      <path stroke="#000000" stroke-width=".5" d="M2.37147661 2.647803C2.13278058 2.94050274 1.83139698 3.09369274 1.47316971 3.09067886.903285219 3.08588425.587754774 2.5379901.463043669 1.51713564L.463043669.398779013.575173572.324650096C1.12449496-.0385054789 1.73870482-.220711627 2.41170033-.220711627 3.06319448-.220711627 3.60858909-.14165157 4.04890958.0193786302L4.21304367.0794043281 4.21304367 2.10149362C4.21304367 2.67610502 3.84579501 3.09068771 3.18175646 3.09068771 2.83050111 3.09068771 2.55749945 2.93557643 2.37147661 2.647803zM2.35304367.0313572593C2.22859922 1.43086313 2.18711774 2.39086317 2.22859922 2.91135737"/>
    </g>
    <use fill="#F6D49F" xlink:href="#d"/>
    <path stroke="#000000" stroke-width=".75" d="M8.35048174,6.92719844 C9.63339849,6.88980752 10.1706147,6.88980752 10.3332632,6.95119935 C10.7724066,7.11695444 11.5427174,7.89487516 11.4533491,8.45512022 C11.361788,9.02911173 10.8811161,9.29417142 10.360673,9.29417142 C10.2532946,9.29417142 10.1521988,9.27123936 10.0313181,9.22868577 C9.97107656,9.20747895 9.74614327,9.11749622 9.77090849,9.12714103 C9.56782482,9.04805015 9.42243811,9.01203556 9.26307654,9.01125153 C9.14745595,9.0106827 9.04807223,9.04642799 8.8696973,9.14575355 C8.62487632,9.28207865 8.63954142,9.27425649 8.54208107,9.31165646 C8.37939651,9.37408593 8.21924224,9.39366078 8.05174168,9.35638434 C7.46692613,9.22623648 7.17794908,8.94771362 7.13314673,8.29737065 C7.09577385,7.75487257 7.4804734,7.31819253 8.1956071,6.96568301 L8.35048174,6.92719844 Z"/>
    <path fill="#000000" d="M9.72835001,7.79545455 C10.4360262,7.79545455 11.0869565,7.39333965 11.0869565,6.98540206 C11.0869565,6.57746446 10.4360262,6.31818182 9.72835001,6.31818182 C9.02067383,6.31818182 8.20108696,6.66243078 8.20108696,7.07036838 C8.20108696,7.47830598 9.02067383,7.79545455 9.72835001,7.79545455 Z"/>
  </g>
</svg>
